<svg width="315" height="368" viewBox="0 0 315 368" fill="none" xmlns="http://www.w3.org/2000/svg">
<circle cx="177.071" cy="144.512" r="137.929" fill="url(#paint0_linear_529_1074)"/>
<path d="M176.5 322C139.088 322 102.644 310.078 72.4275 287.956C42.2112 265.834 19.7862 234.655 8.38918 198.92C-3.00781 163.186 -2.78719 124.743 9.01921 89.1427C20.8256 53.5419 43.607 22.6241 74.0752 0.852051L87.6577 19.9674C61.2299 38.8523 41.4695 65.6701 31.2287 96.5499C20.988 127.43 20.7966 160.774 30.6822 191.77C40.5679 222.766 60.0192 249.81 86.2284 268.999C112.438 288.188 144.049 298.528 176.5 298.528L176.5 322Z" fill="#3457CA"/>
<path d="M172.602 116.817L157.811 129.343C153.516 124.094 147.552 120.754 140.513 120.754C128.107 120.754 118.326 131.371 118.326 144.493C118.326 157.376 128.107 168.47 140.513 168.47C150.176 168.47 157.572 165.13 159.361 157.495H136.338V141.51H181.072C181.072 173.003 164.014 186.602 140.513 186.602C116.775 186.602 98.1655 167.635 98.1655 144.493C98.1655 121.231 116.775 102.264 140.513 102.264C153.993 102.264 165.445 107.871 172.602 116.817Z" fill="white"/>
<path d="M212.906 185.528H192.984V103.337H226.982C246.426 103.337 255.134 117.056 255.134 130.774C255.134 142.345 248.812 153.916 235.451 157.137L255.492 185.528H232.35L214.695 158.092H212.906V185.528ZM226.028 120.754H212.906V140.914H226.028C232.589 140.914 234.974 135.665 234.974 130.774C234.974 126.003 232.589 120.754 226.028 120.754Z" fill="white"/>
<rect x="177.071" y="298.595" width="80.7692" height="22.9882" fill="#3457CA"/>
<rect x="119.911" y="344.572" width="137.929" height="22.9882" fill="#3457CA"/>
<rect x="177.071" y="321.583" width="22.9882" height="22.9882" fill="#3457CA"/>
<defs>
<linearGradient id="paint0_linear_529_1074" x1="39.1421" y1="8.31796" x2="315" y2="280.707" gradientUnits="userSpaceOnUse">
<stop stop-color="#FFBC40"/>
<stop offset="1" stop-color="#F2A310"/>
</linearGradient>
</defs>
</svg>
