<svg width="1920" height="810" viewBox="0 0 1920 810" fill="none" xmlns="http://www.w3.org/2000/svg">
<rect x="35" y="130" width="100" height="100" rx="50" fill="#323232"/>
<rect x="260" y="105" width="150" height="150" rx="75" fill="#323232"/>
<g filter="url(#filter0_d_130_253)">
<rect x="485" y="79.9998" width="200" height="200" rx="100" fill="white"/>
</g>
<g filter="url(#filter1_d_130_253)">
<rect x="735" y="79.9998" width="200" height="200" rx="100" fill="#63ED98"/>
</g>
<g filter="url(#filter2_d_130_253)">
<rect x="985" y="79.9998" width="200" height="200" rx="100" fill="#EA5555"/>
</g>
<g filter="url(#filter3_d_130_253)">
<rect x="1235" y="79.9998" width="200" height="200" rx="100" fill="#003250"/>
</g>
<rect x="1510" y="105" width="150" height="150" rx="75" fill="#323232"/>
<rect x="1785" y="130" width="100" height="100" rx="50" fill="#323232"/>
<path fill-rule="evenodd" clip-rule="evenodd" d="M798.178 163.393C792.474 163.393 787.84 167.948 787.84 173.585C787.84 179.221 792.474 183.788 798.178 183.788L813.831 183.801C816.58 183.801 819.937 181.893 821.323 179.537L836.563 153.444C838.618 149.921 843.69 147.043 847.801 147.043H871.798C886.746 147.043 898.859 158.996 898.872 173.743C898.884 188.49 886.782 200.43 871.834 200.43L862.639 200.418C859.903 200.418 856.522 202.35 855.135 204.694L850.38 212.821L830.786 212.809L844.019 190.214C846.086 186.667 851.134 183.813 855.257 183.813H871.834C877.538 183.813 882.16 179.245 882.16 173.609C882.16 167.973 877.526 163.417 871.822 163.405H853.031C850.294 163.405 846.901 165.312 845.539 167.681L830.165 194.029C828.11 197.551 823.05 200.43 818.927 200.43H798.19C783.254 200.43 771.128 188.465 771.128 173.718C771.116 158.983 783.218 147.043 798.154 147.043L826.456 147.055L816.884 163.417L798.178 163.393Z" fill="white"/>
<path d="M1062.78 168.76C1042.57 168.782 1025.06 168.81 1023.85 168.817L1021.67 168.831L1021.99 169.112C1022.17 169.267 1022.5 169.541 1022.73 169.724C1022.96 169.9 1023.16 170.075 1023.17 170.104C1023.19 170.132 1023.23 170.16 1023.27 170.16C1023.33 170.16 1023.94 170.561 1024.03 170.659C1024.06 170.701 1024.27 170.807 1024.89 171.116C1025.07 171.208 1025.37 171.32 1025.55 171.362C1025.8 171.419 1039.96 171.433 1077.16 171.419C1126.49 171.397 1128.44 171.404 1128.95 171.524C1129.67 171.7 1130.23 171.953 1132.8 173.233C1133.67 173.669 1134.44 174.077 1134.5 174.133C1134.56 174.189 1134.65 174.238 1134.68 174.238C1134.73 174.238 1134.97 174.379 1135.23 174.555C1135.49 174.731 1135.71 174.871 1135.73 174.871C1135.8 174.871 1136.65 175.476 1136.7 175.553C1136.73 175.603 1136.79 175.645 1136.84 175.645C1136.93 175.645 1137.78 176.271 1138.4 176.798C1139.46 177.684 1141.32 179.632 1141.32 179.85C1141.32 179.892 1141.35 179.934 1141.38 179.948C1141.65 180.061 1142.7 182.304 1142.55 182.452C1142.53 182.473 1142.21 182.508 1141.83 182.529C1141.11 182.571 1141.09 182.592 1141.22 182.902C1141.25 182.972 1141.24 183.028 1141.2 183.028C1141.15 183.028 1140.91 182.817 1139.88 181.833C1139.16 181.144 1138.46 180.553 1137.76 180.04C1137.46 179.815 1137.17 179.59 1137.13 179.555C1137.09 179.512 1136.97 179.414 1136.86 179.337C1136.75 179.259 1136.63 179.154 1136.58 179.105C1136.52 179.062 1136.46 179.02 1136.44 179.02C1136.41 179.02 1135.96 178.725 1135.42 178.366C1134.19 177.557 1133.31 177.044 1131.84 176.292C1128.21 174.421 1126.57 173.95 1123.85 173.971C1121.56 173.992 1120.35 173.985 1120.05 173.957L1119.77 173.922L1119.78 174.238C1119.78 174.414 1119.81 175.04 1119.84 175.631L1119.89 176.714L1121.63 176.657C1122.58 176.629 1123.41 176.608 1123.46 176.622C1123.52 176.629 1124.02 176.657 1124.59 176.693C1125.52 176.749 1125.67 176.77 1126.39 177.03C1126.81 177.185 1127.22 177.347 1127.3 177.389C1127.37 177.431 1127.85 177.67 1128.35 177.916C1129.47 178.472 1130.97 179.273 1131.71 179.709C1132.02 179.892 1132.4 180.117 1132.55 180.209C1132.72 180.3 1132.86 180.405 1132.87 180.434C1132.88 180.469 1132.93 180.497 1132.98 180.497C1133.1 180.497 1134.55 181.629 1135.13 182.178L1135.66 182.67L1132.04 182.677C1130.05 182.677 1128.35 182.698 1128.26 182.719C1127.97 182.796 1128.07 183.042 1128.55 183.471C1128.81 183.689 1129.04 183.872 1129.08 183.872C1129.12 183.872 1129.19 183.928 1129.22 183.999C1129.26 184.076 1129.46 184.259 1129.67 184.421C1129.88 184.575 1130.09 184.751 1130.15 184.8C1130.21 184.857 1130.45 185.054 1130.7 185.236C1130.96 185.426 1131.18 185.595 1131.2 185.623C1131.22 185.651 1131.39 185.736 1131.58 185.82C1132.06 186.017 1133.24 186.066 1136.06 186.01C1137.93 185.968 1138.3 185.94 1138.3 185.862C1138.3 185.574 1138.59 185.975 1139.07 186.931C1139.14 187.086 1139.28 187.332 1139.36 187.473C1139.45 187.62 1139.51 187.754 1139.49 187.768C1139.47 187.782 1136.79 187.866 1133.52 187.944C1125.27 188.148 1124.73 188.162 1124.73 188.26C1124.73 188.302 1124.9 188.464 1125.09 188.619C1125.29 188.774 1125.51 188.956 1125.59 189.02C1125.67 189.09 1125.75 189.146 1125.77 189.146C1125.8 189.146 1125.94 189.266 1126.11 189.413C1126.26 189.554 1126.51 189.765 1126.66 189.885C1126.81 189.997 1127.2 190.314 1127.53 190.581C1127.86 190.848 1128.25 191.115 1128.38 191.178C1128.66 191.305 1128.9 191.305 1139.62 191.27C1146.01 191.256 1145.59 191.284 1145.37 190.855C1145.31 190.75 1145.15 190.356 1145.01 189.99C1144.87 189.624 1144.64 189.097 1144.52 188.816C1144.38 188.541 1144.28 188.288 1144.28 188.26C1144.28 188.218 1144.09 187.761 1143.78 187.058C1143.7 186.889 1143.64 186.734 1143.64 186.706C1143.64 186.671 1143.57 186.502 1143.47 186.312L1143.29 185.982H1148.42V185.715C1148.42 185.419 1148.1 184.097 1148 183.978C1147.97 183.935 1147.93 183.837 1147.91 183.76C1147.9 183.689 1147.86 183.563 1147.83 183.485C1147.8 183.408 1147.69 183.141 1147.6 182.888C1146.73 180.637 1144.89 178.071 1142.83 176.235C1142.23 175.708 1141.53 175.124 1141.11 174.801C1140.94 174.667 1140.78 174.541 1140.76 174.52C1140.69 174.449 1138.8 173.184 1138.76 173.184C1138.73 173.184 1138.53 173.057 1138.31 172.909C1138.09 172.755 1137.73 172.537 1137.51 172.424C1137.29 172.305 1136.84 172.051 1136.48 171.855C1136.14 171.658 1135.82 171.496 1135.77 171.496C1135.73 171.496 1135.7 171.475 1135.7 171.44C1135.7 171.412 1135.63 171.355 1135.54 171.313C1135.45 171.271 1134.54 170.814 1133.52 170.286C1132.49 169.766 1131.5 169.281 1131.3 169.218C1130.34 168.887 1130.09 168.824 1129.43 168.753C1128.67 168.676 1126.44 168.676 1062.78 168.76ZM1136.89 183.647C1136.89 183.668 1136.82 183.612 1136.72 183.521C1136.62 183.429 1136.54 183.324 1136.54 183.282C1136.54 183.239 1136.62 183.296 1136.72 183.408C1136.82 183.521 1136.89 183.626 1136.89 183.647ZM1137.57 184.301C1137.7 184.456 1137.7 184.456 1137.55 184.357C1137.45 184.301 1137.38 184.238 1137.38 184.21C1137.38 184.125 1137.43 184.146 1137.57 184.301Z" fill="white"/>
<path d="M1056.87 173.725C1056.07 173.802 1054.35 174.182 1053.95 174.372C1053.29 174.681 1052.69 175.16 1052.52 175.518C1052.04 176.51 1052.81 177.522 1054.3 177.86C1054.65 177.937 1055.64 178 1057.54 178.071C1060.81 178.19 1061.26 178.226 1061.6 178.366C1062.06 178.563 1061.87 178.865 1061.09 179.119C1059.67 179.576 1056.95 179.555 1054.65 179.055C1053.25 178.753 1053.45 178.697 1052.94 179.512C1052.7 179.899 1052.52 180.251 1052.54 180.286C1052.68 180.511 1055.24 181.003 1056.94 181.13C1058.13 181.221 1059.66 181.214 1060.38 181.123C1061.63 180.968 1063.24 180.293 1063.9 179.653C1064.34 179.224 1064.43 178.865 1064.29 178.162C1064.17 177.565 1064.04 177.368 1063.6 177.093C1063.13 176.798 1061.97 176.643 1059.75 176.559C1058.77 176.524 1057.44 176.475 1056.8 176.453C1056.16 176.425 1055.48 176.376 1055.3 176.334C1055.01 176.271 1054.96 176.243 1054.98 176.109C1055.01 175.905 1055.46 175.764 1056.81 175.539C1058.51 175.251 1060.22 175.307 1062.05 175.708C1062.41 175.785 1062.77 175.884 1062.84 175.926C1062.92 175.961 1063.02 175.996 1063.08 175.996C1063.2 175.996 1064.06 174.576 1063.98 174.499C1063.9 174.421 1062.6 174.112 1061.97 174.02C1061.66 173.985 1061.1 173.901 1060.74 173.838C1060.08 173.732 1057.54 173.655 1056.87 173.725Z" fill="white"/>
<path d="M1081.04 173.866L1079.44 173.887V176.13C1079.44 177.361 1079.42 178.943 1079.39 179.639L1079.35 180.919H1081.9V178.69L1084.77 178.64C1086.35 178.619 1088.19 178.577 1088.86 178.549L1090.09 178.507V177.712C1090.09 177.283 1090.07 176.896 1090.04 176.861C1090 176.833 1088.16 176.819 1085.94 176.833L1081.9 176.854V176.214C1081.9 175.652 1081.92 175.574 1082.03 175.567C1082.09 175.567 1084.17 175.567 1086.66 175.574L1091.16 175.581L1091.21 175.209C1091.23 175.005 1091.25 174.625 1091.25 174.358V173.887H1087.72C1085.78 173.887 1083.84 173.873 1083.41 173.866C1082.99 173.852 1081.92 173.852 1081.04 173.866Z" fill="white"/>
<path d="M1092.7 174.041C1092.68 174.133 1092.66 175.715 1092.66 177.557V180.919H1104.97L1104.93 179.14L1095.19 179.168V178.19L1095.71 178.155C1095.98 178.127 1097.53 178.106 1099.13 178.106C1102.6 178.092 1103.29 178.078 1103.41 178.008C1103.46 177.972 1103.49 177.719 1103.49 177.213V176.468L1101.04 176.51C1099.7 176.538 1097.84 176.538 1096.89 176.51L1095.19 176.468V176.017C1095.19 175.581 1095.19 175.574 1095.39 175.567C1095.5 175.567 1096.97 175.567 1098.68 175.574C1100.39 175.581 1102.41 175.56 1103.17 175.532L1104.55 175.483V173.887H1092.75L1092.7 174.041Z" fill="white"/>
<path d="M1106.64 173.936L1106.44 173.964V175.574L1108.5 175.589C1109.63 175.596 1110.61 175.603 1110.68 175.603C1110.78 175.603 1110.8 175.729 1110.84 176.545C1110.87 177.058 1110.87 178.24 1110.86 179.168L1110.82 180.848H1113.34V175.574H1117.68L1117.72 175.413C1117.74 175.328 1117.77 174.949 1117.77 174.569V173.887L1112.3 173.894C1109.29 173.901 1106.75 173.922 1106.64 173.936Z" fill="white"/>
<path d="M1065.8 180.834L1066.66 180.884C1067.14 180.912 1067.71 180.919 1067.94 180.905L1068.37 180.884L1068.32 178.598L1070.22 178.584C1071.27 178.577 1072.39 178.563 1072.7 178.563H1073.28L1074.11 179.723L1074.95 180.884L1075.81 180.933C1076.28 180.961 1076.94 180.961 1077.28 180.94L1077.89 180.898L1077.58 180.504C1077.33 180.173 1076.21 178.514 1076.15 178.38C1076.14 178.352 1076.21 178.31 1076.32 178.289C1076.65 178.204 1077.11 177.895 1077.42 177.543C1077.95 176.96 1078.12 176.074 1077.82 175.455C1077.57 174.956 1077.04 174.428 1076.54 174.196L1076.1 173.992L1065.8 173.95V180.834ZM1074.35 175.687C1074.84 175.722 1074.96 175.757 1075.15 175.912C1075.33 176.074 1075.36 176.137 1075.33 176.292C1075.26 176.559 1074.89 176.763 1074.36 176.84C1074.12 176.875 1072.66 176.918 1071.13 176.939L1068.33 176.974V175.652L1068.53 175.631C1068.8 175.596 1073.67 175.645 1074.35 175.687Z" fill="white"/>
<path d="M1027.83 174.85C1027.83 174.885 1028.52 175.293 1029.36 175.771C1031.3 176.868 1031.3 176.868 1031.34 176.911C1031.43 177.002 1032.37 177.431 1032.6 177.48C1032.74 177.515 1035.65 177.522 1039.06 177.494L1045.27 177.452V176.165C1045.27 175.061 1045.25 174.878 1045.15 174.843C1044.99 174.78 1027.83 174.794 1027.83 174.85Z" fill="white"/>
<path d="M1051.05 185.947C1050.78 186.066 1050.68 186.242 1050.68 186.615C1050.68 187.044 1050.83 187.212 1051.44 187.459C1052.3 187.817 1052.49 188.113 1052.12 188.478C1051.73 188.872 1051.01 188.527 1050.81 187.845C1050.73 187.557 1050.6 187.459 1050.65 187.726C1050.66 187.789 1050.67 188.063 1050.68 188.338C1050.69 188.738 1050.7 188.795 1050.76 188.654C1050.8 188.563 1050.83 188.471 1050.85 188.464C1050.86 188.45 1051.02 188.527 1051.2 188.626C1051.47 188.774 1051.59 188.802 1051.83 188.774C1052.44 188.689 1052.72 188.007 1052.33 187.543C1052.23 187.409 1051.95 187.248 1051.59 187.107C1051.02 186.875 1050.89 186.755 1050.89 186.46C1050.9 186.228 1051.05 186.059 1051.3 186.01C1051.63 185.947 1051.97 186.186 1052.15 186.615C1052.23 186.812 1052.32 186.966 1052.34 186.966C1052.4 186.966 1052.35 185.982 1052.28 185.94C1052.26 185.919 1052.23 185.954 1052.23 186.01C1052.23 186.158 1052.16 186.151 1051.8 185.982C1051.43 185.82 1051.35 185.813 1051.05 185.947Z" fill="white"/>
<path d="M1090.87 185.89C1089.95 186.122 1089.74 187.803 1090.52 188.534C1090.8 188.795 1091.27 188.858 1091.59 188.682C1091.84 188.548 1092.09 188.134 1092.1 187.859C1092.1 187.641 1091.97 187.733 1091.92 188C1091.79 188.717 1090.85 188.914 1090.59 188.274C1090.33 187.648 1090.4 186.425 1090.73 186.136C1091.09 185.827 1091.54 186.024 1091.81 186.601C1091.9 186.797 1092 186.952 1092.02 186.938C1092.04 186.924 1092.05 186.678 1092.04 186.397C1092.02 185.933 1092.01 185.89 1091.92 186.01C1091.82 186.144 1091.81 186.144 1091.51 185.996C1091.21 185.841 1091.13 185.827 1090.87 185.89Z" fill="white"/>
<path d="M1054.06 185.968C1054.06 186.01 1054.14 186.052 1054.25 186.066L1054.44 186.087V188.549L1054.25 188.57C1054.14 188.584 1054.06 188.626 1054.06 188.661C1054.06 188.696 1054.32 188.724 1054.65 188.724C1055 188.724 1055.25 188.696 1055.25 188.654C1055.25 188.612 1055.16 188.584 1055.04 188.584H1054.83V187.227L1055.12 187.269C1055.5 187.318 1055.58 187.43 1055.64 187.972C1055.7 188.549 1055.73 188.64 1055.88 188.724C1056.19 188.886 1056.52 188.619 1056.52 188.218C1056.52 188.035 1056.4 188.127 1056.36 188.338C1056.35 188.415 1056.29 188.478 1056.24 188.478C1056.17 188.478 1056.1 188.338 1056.04 188.021C1055.98 187.684 1055.9 187.522 1055.77 187.402C1055.67 187.311 1055.6 187.234 1055.61 187.227C1055.62 187.219 1055.74 187.163 1055.85 187.107C1056.27 186.889 1056.34 186.312 1055.97 186.066C1055.83 185.975 1055.59 185.94 1054.92 185.919C1054.36 185.904 1054.06 185.926 1054.06 185.968ZM1055.57 186.108C1055.74 186.214 1055.83 186.488 1055.78 186.734C1055.74 186.924 1055.69 187.001 1055.5 187.079C1055.36 187.135 1055.16 187.177 1055.04 187.177H1054.83V186.052H1055.17C1055.35 186.052 1055.53 186.08 1055.57 186.108Z" fill="white"/>
<path d="M1057.99 185.982C1057.99 186.017 1058.07 186.052 1058.17 186.052H1058.34V188.584H1058.17C1058.07 188.584 1057.99 188.612 1057.99 188.654C1057.99 188.696 1058.24 188.724 1058.59 188.724C1059.17 188.724 1059.43 188.619 1058.96 188.57L1058.73 188.548L1058.69 187.381L1058.99 187.402C1059.27 187.423 1059.29 187.437 1059.37 187.705C1059.46 187.972 1059.46 187.944 1059.46 187.318C1059.46 186.805 1059.44 186.699 1059.39 186.868C1059.31 187.156 1059.17 187.262 1058.93 187.234L1058.73 187.212V186.087L1059.17 186.066C1059.73 186.038 1059.93 186.151 1060.03 186.544C1060.07 186.699 1060.12 186.826 1060.14 186.826C1060.16 186.826 1060.17 186.622 1060.17 186.369V185.911H1059.08C1058.4 185.911 1057.99 185.94 1057.99 185.982Z" fill="white"/>
<path d="M1061.72 185.975C1061.72 186.01 1061.8 186.052 1061.92 186.066L1062.11 186.087V188.548L1061.92 188.57C1061.8 188.584 1061.72 188.626 1061.72 188.661C1061.72 188.696 1062.18 188.724 1062.81 188.724H1063.89L1063.94 188.492C1063.99 188.211 1063.95 187.592 1063.89 187.74C1063.87 187.796 1063.82 187.937 1063.79 188.042C1063.77 188.155 1063.68 188.323 1063.58 188.415C1063.44 188.556 1063.34 188.584 1062.95 188.584H1062.49V187.388H1062.73C1063 187.388 1063.13 187.494 1063.13 187.712C1063.13 187.803 1063.16 187.895 1063.2 187.916C1063.24 187.944 1063.27 187.726 1063.27 187.325C1063.27 186.945 1063.24 186.685 1063.2 186.685C1063.16 186.685 1063.13 186.762 1063.13 186.854C1063.13 187.086 1062.95 187.248 1062.7 187.248H1062.49V186.052H1062.95C1063.35 186.052 1063.44 186.073 1063.59 186.228C1063.68 186.319 1063.78 186.495 1063.8 186.615C1063.87 186.91 1063.98 186.805 1063.94 186.488C1063.92 186.347 1063.91 186.158 1063.91 186.066C1063.9 185.911 1063.89 185.911 1062.81 185.911C1062.18 185.911 1061.72 185.94 1061.72 185.975Z" fill="white"/>
<path d="M1064.32 185.982C1064.32 186.017 1064.39 186.052 1064.46 186.052C1064.6 186.052 1064.6 186.101 1064.6 187.318C1064.6 188.57 1064.6 188.591 1064.45 188.654C1064.33 188.696 1064.4 188.717 1064.74 188.717C1065.09 188.717 1065.16 188.696 1065.05 188.654C1064.88 188.591 1064.88 188.57 1064.88 187.248V185.911H1064.6C1064.45 185.911 1064.32 185.94 1064.32 185.982Z" fill="white"/>
<path d="M1073.43 186.101C1073.29 186.249 1073.25 186.376 1073.25 186.594C1073.25 186.847 1073.23 186.896 1073.11 186.896C1073.03 186.896 1072.97 186.924 1072.97 186.966C1072.97 187.001 1073.03 187.037 1073.11 187.037C1073.25 187.037 1073.25 187.086 1073.25 187.81C1073.25 188.549 1073.25 188.591 1073.1 188.654C1072.98 188.696 1073.07 188.71 1073.43 188.71C1073.7 188.703 1073.84 188.689 1073.73 188.675L1073.53 188.647V187.037H1073.71C1073.81 187.037 1073.89 187.009 1073.89 186.973C1073.89 186.938 1073.81 186.917 1073.71 186.931C1073.54 186.945 1073.53 186.931 1073.53 186.573C1073.53 186.108 1073.7 185.89 1073.94 186.045C1074.03 186.094 1074.03 186.13 1073.94 186.256C1073.86 186.383 1073.86 186.418 1073.96 186.474C1074.19 186.622 1074.34 186.235 1074.12 186.024C1073.95 185.848 1073.63 185.883 1073.43 186.101Z" fill="white"/>
<path d="M1076.91 185.982C1076.91 186.017 1076.99 186.052 1077.09 186.052C1077.26 186.052 1077.26 186.059 1077.26 186.615V187.177L1077.12 187.037C1076.97 186.882 1076.7 186.854 1076.48 186.966C1076.12 187.163 1076.01 188.021 1076.3 188.443C1076.5 188.752 1076.77 188.837 1077.05 188.703C1077.16 188.64 1077.26 188.626 1077.26 188.661C1077.26 188.696 1077.41 188.724 1077.6 188.717C1077.85 188.71 1077.89 188.696 1077.75 188.661L1077.58 188.612L1077.56 187.262L1077.54 185.911H1077.23C1077.05 185.911 1076.91 185.94 1076.91 185.982ZM1077.09 187.191C1077.26 187.395 1077.28 187.459 1077.25 187.93C1077.22 188.478 1077.11 188.647 1076.78 188.654C1076.57 188.654 1076.49 188.415 1076.49 187.789C1076.49 186.994 1076.73 186.762 1077.09 187.191Z" fill="white"/>
<path d="M1079.42 185.961C1079.39 185.982 1079.37 186.228 1079.38 186.502L1079.38 187.001L1079.48 186.692C1079.62 186.263 1079.83 186.038 1080.11 186.066L1080.32 186.087V188.548L1080.09 188.57C1079.97 188.584 1079.86 188.619 1079.86 188.661C1079.86 188.696 1080.17 188.724 1080.53 188.724C1080.93 188.724 1081.2 188.696 1081.2 188.654C1081.2 188.612 1081.09 188.584 1080.95 188.584H1080.71V186.052H1080.92C1081.21 186.052 1081.47 186.319 1081.52 186.678C1081.59 187.114 1081.72 187.037 1081.66 186.594C1081.64 186.397 1081.62 186.158 1081.62 186.066C1081.62 185.911 1081.61 185.911 1080.54 185.911C1079.95 185.911 1079.44 185.933 1079.42 185.961Z" fill="white"/>
<path d="M1107.01 185.982C1107.01 186.017 1107.08 186.052 1107.18 186.052H1107.36V188.584H1107.18C1107.08 188.584 1107.01 188.612 1107.01 188.654C1107.01 188.696 1107.41 188.724 1108.06 188.724H1109.12V188.176L1109.11 187.634L1108.98 188.021C1108.81 188.513 1108.69 188.598 1108.17 188.57L1107.74 188.548V186.087L1107.98 186.066C1108.44 186.017 1108.18 185.911 1107.6 185.911C1107.25 185.911 1107.01 185.94 1107.01 185.982Z" fill="white"/>
<path d="M1118.82 185.982C1118.82 186.017 1118.88 186.052 1118.95 186.052C1119.07 186.052 1119.09 186.115 1119.12 186.58C1119.13 186.868 1119.12 187.1 1119.1 187.086C1118.79 186.91 1118.66 186.875 1118.49 186.938C1117.86 187.156 1117.81 188.366 1118.41 188.682C1118.64 188.809 1118.67 188.809 1118.89 188.703C1119.16 188.563 1119.19 188.555 1119.14 188.654C1119.11 188.696 1119.22 188.724 1119.43 188.717C1119.61 188.71 1119.71 188.689 1119.63 188.675C1119.55 188.654 1119.47 188.605 1119.44 188.555C1119.41 188.513 1119.38 187.902 1119.38 187.191V185.911H1119.1C1118.95 185.911 1118.82 185.94 1118.82 185.982ZM1118.91 187.142C1119.19 187.43 1119.2 188.359 1118.92 188.563C1118.52 188.851 1118.3 188.527 1118.34 187.719C1118.38 186.98 1118.56 186.798 1118.91 187.142Z" fill="white"/>
<path d="M1072.1 186.172C1072.03 186.354 1072.26 186.509 1072.39 186.376C1072.45 186.319 1072.48 186.221 1072.46 186.165C1072.4 186.017 1072.16 186.024 1072.1 186.172Z" fill="white"/>
<path d="M1085.8 186.158C1085.77 186.221 1085.78 186.305 1085.83 186.347C1085.94 186.46 1086.16 186.383 1086.16 186.228C1086.16 186.045 1085.86 185.989 1085.8 186.158Z" fill="white"/>
<path d="M1109.7 186.165C1109.68 186.221 1109.71 186.319 1109.76 186.376C1109.85 186.474 1109.88 186.474 1109.98 186.369C1110.04 186.312 1110.08 186.214 1110.06 186.158C1110 186.017 1109.76 186.024 1109.7 186.165Z" fill="white"/>
<path d="M1113.9 186.221C1113.9 186.369 1113.93 186.404 1114.08 186.404C1114.23 186.404 1114.26 186.376 1114.24 186.242C1114.22 186.144 1114.16 186.08 1114.06 186.066C1113.93 186.045 1113.9 186.073 1113.9 186.221Z" fill="white"/>
<path d="M1069.31 186.509C1069.23 186.783 1069.17 186.868 1069.05 186.882C1068.86 186.91 1068.84 187.037 1069.03 187.037C1069.17 187.037 1069.17 187.086 1069.17 187.768C1069.17 188.478 1069.18 188.506 1069.36 188.647C1069.66 188.886 1070.02 188.689 1070.01 188.302L1070 188.127L1069.95 188.295C1069.9 188.499 1069.72 188.619 1069.57 188.563C1069.48 188.527 1069.46 188.401 1069.46 187.775V187.037H1069.7C1069.84 187.037 1069.95 187.016 1069.95 186.98C1069.95 186.952 1069.84 186.931 1069.72 186.931C1069.49 186.931 1069.49 186.924 1069.46 186.544L1069.42 186.158L1069.31 186.509Z" fill="white"/>
<path d="M1115.16 186.376C1115.16 186.622 1115.05 186.805 1114.83 186.924L1114.64 187.03L1114.83 187.037H1115.02V187.761C1115.02 188.52 1115.07 188.675 1115.35 188.752C1115.54 188.809 1115.77 188.612 1115.83 188.338C1115.86 188.197 1115.85 188.148 1115.81 188.197C1115.77 188.232 1115.73 188.331 1115.71 188.408C1115.7 188.506 1115.63 188.549 1115.52 188.549C1115.34 188.549 1115.34 188.549 1115.32 187.789L1115.3 187.037H1115.55C1115.7 187.037 1115.79 187.009 1115.76 186.966C1115.74 186.931 1115.63 186.917 1115.52 186.945L1115.3 186.98V186.587C1115.3 186.369 1115.28 186.193 1115.23 186.193C1115.2 186.193 1115.16 186.277 1115.16 186.376Z" fill="white"/>
<path d="M1065.77 187.079C1065.41 187.451 1065.38 188.12 1065.71 188.513C1066.03 188.907 1066.57 188.851 1066.76 188.401C1066.9 188.056 1066.83 188.014 1066.67 188.352C1066.39 188.921 1065.8 188.661 1065.8 187.979C1065.8 187.817 1065.82 187.81 1066.33 187.81H1066.85V187.613C1066.85 187.416 1066.7 187.142 1066.5 186.987C1066.31 186.833 1065.97 186.882 1065.77 187.079ZM1066.38 187.086C1066.44 187.156 1066.5 187.325 1066.52 187.459L1066.54 187.705L1066.17 187.726C1065.76 187.747 1065.75 187.733 1065.87 187.325C1065.97 186.959 1066.18 186.868 1066.38 187.086Z" fill="white"/>
<path d="M1067.64 187.008C1067.17 187.339 1067.15 188.274 1067.61 188.612C1067.89 188.816 1068.24 188.795 1068.44 188.556C1068.53 188.45 1068.61 188.295 1068.6 188.211C1068.6 188.063 1068.6 188.063 1068.53 188.232C1068.36 188.661 1067.95 188.802 1067.74 188.499C1067.61 188.323 1067.59 187.508 1067.69 187.226C1067.77 187.001 1068.01 186.924 1068.23 187.044C1068.43 187.149 1068.44 187.219 1068.29 187.367C1068.19 187.466 1068.19 187.487 1068.29 187.585C1068.37 187.677 1068.41 187.677 1068.5 187.599C1068.66 187.473 1068.64 187.269 1068.44 187.072C1068.24 186.868 1067.88 186.84 1067.64 187.008Z" fill="white"/>
<path d="M1070.33 186.98C1070.31 187.008 1070.36 187.037 1070.43 187.037C1070.57 187.037 1070.58 187.079 1070.58 187.81C1070.58 188.548 1070.57 188.591 1070.43 188.654C1070.3 188.703 1070.36 188.717 1070.67 188.717C1070.93 188.724 1071.07 188.696 1071.04 188.654C1071.01 188.612 1070.96 188.605 1070.92 188.626C1070.87 188.661 1070.85 188.471 1070.86 188.049C1070.9 186.98 1070.9 186.987 1070.61 186.952C1070.48 186.938 1070.35 186.952 1070.33 186.98Z" fill="white"/>
<path d="M1071.09 187.058C1071 187.149 1070.93 187.269 1070.93 187.325C1070.93 187.381 1070.99 187.339 1071.06 187.226C1071.17 187.037 1071.4 186.917 1071.47 186.994C1071.5 187.016 1071.46 187.1 1071.4 187.17C1071.26 187.318 1071.3 187.459 1071.45 187.459C1071.64 187.459 1071.73 187.262 1071.65 187.072C1071.54 186.847 1071.29 186.84 1071.09 187.058Z" fill="white"/>
<path d="M1072.02 186.966C1071.9 187.016 1071.9 187.03 1072.01 187.03C1072.11 187.037 1072.13 187.121 1072.13 187.838C1072.13 188.548 1072.11 188.647 1072.01 188.675C1071.94 188.696 1072.07 188.71 1072.3 188.71C1072.63 188.717 1072.69 188.703 1072.56 188.654C1072.41 188.591 1072.4 188.556 1072.42 187.824C1072.43 186.882 1072.39 186.805 1072.02 186.966Z" fill="white"/>
<path d="M1074.68 187.023C1074.44 187.205 1074.29 187.641 1074.34 187.993C1074.46 188.781 1075.34 189.062 1075.62 188.401C1075.76 188.056 1075.69 188.014 1075.53 188.352C1075.43 188.563 1075.36 188.626 1075.18 188.64C1075.05 188.654 1074.91 188.619 1074.85 188.549C1074.73 188.429 1074.62 187.972 1074.69 187.902C1074.71 187.88 1074.93 187.852 1075.17 187.838C1075.41 187.831 1075.63 187.817 1075.66 187.817C1075.74 187.81 1075.72 187.473 1075.64 187.297C1075.52 187.058 1075.28 186.896 1075.05 186.896C1074.93 186.896 1074.76 186.952 1074.68 187.023ZM1075.25 187.121C1075.31 187.212 1075.37 187.388 1075.4 187.508L1075.45 187.74H1074.64L1074.68 187.487C1074.73 187.212 1074.91 186.966 1075.05 186.966C1075.11 186.966 1075.19 187.037 1075.25 187.121Z" fill="white"/>
<path d="M1082.07 186.973C1082.06 187.001 1082.1 187.037 1082.17 187.051C1082.27 187.079 1082.29 187.17 1082.27 187.866C1082.25 188.527 1082.23 188.647 1082.13 188.675C1082.06 188.696 1082.2 188.71 1082.43 188.71C1082.77 188.717 1082.82 188.703 1082.68 188.647C1082.52 188.584 1082.51 188.555 1082.56 188.134C1082.61 187.613 1082.78 187.128 1082.96 187.037C1083.13 186.945 1083.17 186.945 1083.17 187.072C1083.17 187.128 1083.14 187.177 1083.1 187.177C1083.06 187.177 1083.03 187.241 1083.03 187.325C1083.03 187.43 1083.06 187.466 1083.19 187.444C1083.31 187.43 1083.35 187.367 1083.36 187.191C1083.38 187.037 1083.35 186.952 1083.28 186.924C1083.09 186.854 1082.82 186.959 1082.73 187.142C1082.65 187.311 1082.52 187.318 1082.54 187.156C1082.55 187.107 1082.55 187.037 1082.54 187.001C1082.54 186.924 1082.12 186.896 1082.07 186.973Z" fill="white"/>
<path d="M1083.97 187.072C1083.77 187.269 1083.77 187.437 1083.96 187.557C1084.05 187.613 1084.1 187.606 1084.17 187.543C1084.24 187.466 1084.23 187.43 1084.12 187.353C1083.96 187.227 1084.02 187.058 1084.26 186.994C1084.5 186.931 1084.72 187.128 1084.72 187.423C1084.72 187.634 1084.69 187.655 1084.31 187.761C1083.86 187.88 1083.77 187.958 1083.7 188.239C1083.64 188.457 1083.82 188.696 1084.09 188.759C1084.22 188.795 1084.33 188.759 1084.48 188.626C1084.68 188.457 1084.69 188.457 1084.77 188.591C1084.82 188.675 1084.93 188.724 1085.06 188.724C1085.27 188.724 1085.35 188.619 1085.34 188.352C1085.33 188.211 1085.33 188.211 1085.28 188.373C1085.26 188.471 1085.18 188.556 1085.12 188.57C1085.01 188.591 1085 188.52 1085 187.916C1085 187.29 1084.98 187.227 1084.82 187.072C1084.59 186.833 1084.21 186.833 1083.97 187.072ZM1084.72 187.986C1084.72 188.155 1084.65 188.295 1084.52 188.45C1084.34 188.647 1084.3 188.661 1084.17 188.591C1084.06 188.534 1084.01 188.443 1084.01 188.316C1084.01 188.049 1084.14 187.902 1084.43 187.824C1084.57 187.782 1084.69 187.747 1084.7 187.747C1084.71 187.74 1084.72 187.852 1084.72 187.986Z" fill="white"/>
<path d="M1085.69 186.98C1085.62 187.023 1085.63 187.037 1085.72 187.037C1085.83 187.037 1085.84 187.121 1085.84 187.838C1085.84 188.549 1085.83 188.647 1085.72 188.675C1085.65 188.696 1085.78 188.71 1086.02 188.71C1086.29 188.71 1086.39 188.696 1086.3 188.661C1086.17 188.612 1086.16 188.52 1086.12 187.775C1086.09 186.98 1086.08 186.945 1085.93 186.931C1085.85 186.924 1085.73 186.945 1085.69 186.98Z" fill="white"/>
<path d="M1086.68 186.98C1086.68 187.008 1086.73 187.037 1086.79 187.037C1086.9 187.037 1086.91 187.093 1086.89 187.979C1086.89 188.415 1086.86 188.563 1086.77 188.633C1086.67 188.703 1086.71 188.717 1087.07 188.724C1087.48 188.724 1087.49 188.724 1087.32 188.605C1087.17 188.499 1087.16 188.464 1087.2 187.965C1087.25 187.409 1087.35 187.17 1087.61 187.03C1087.87 186.896 1087.98 187.1 1088.01 187.74C1088.04 188.401 1087.99 188.633 1087.82 188.675C1087.76 188.696 1087.89 188.71 1088.13 188.71C1088.36 188.71 1088.5 188.696 1088.43 188.675C1088.34 188.654 1088.32 188.52 1088.29 187.916C1088.27 187.325 1088.24 187.163 1088.13 187.044C1087.95 186.84 1087.63 186.854 1087.42 187.072C1087.32 187.163 1087.24 187.226 1087.24 187.212C1087.23 187.191 1087.23 187.135 1087.22 187.093C1087.21 186.994 1086.68 186.882 1086.68 186.98Z" fill="white"/>
<path d="M1092.84 187.135C1092.46 187.536 1092.47 188.19 1092.85 188.541C1093.26 188.921 1093.77 188.802 1094 188.267C1094.2 187.831 1094.14 187.444 1093.82 187.128C1093.49 186.798 1093.15 186.805 1092.84 187.135ZM1093.55 187.072C1093.82 187.262 1093.86 188.295 1093.6 188.549C1093.44 188.703 1093.17 188.675 1093.05 188.492C1092.74 188 1092.92 186.966 1093.33 186.966C1093.37 186.966 1093.47 187.016 1093.55 187.072Z" fill="white"/>
<path d="M1094.52 186.973C1094.5 187.008 1094.53 187.037 1094.59 187.037C1094.69 187.037 1094.7 187.156 1094.7 187.81C1094.7 188.464 1094.68 188.584 1094.58 188.647C1094.48 188.703 1094.56 188.717 1094.88 188.717C1095.2 188.717 1095.26 188.703 1095.14 188.654C1095 188.598 1094.98 188.541 1094.98 188.148C1094.98 187.585 1095.09 187.212 1095.28 187.072C1095.47 186.938 1095.51 186.938 1095.64 187.079C1095.73 187.163 1095.76 187.346 1095.76 187.887C1095.76 188.548 1095.75 188.591 1095.6 188.654C1095.48 188.696 1095.55 188.717 1095.9 188.717C1096.28 188.717 1096.32 188.703 1096.2 188.64C1096.05 188.57 1096.04 188.513 1096.04 187.993C1096.04 187.459 1096.05 187.402 1096.24 187.177C1096.42 186.973 1096.47 186.945 1096.58 187.008C1096.68 187.079 1096.7 187.198 1096.73 187.866C1096.74 188.563 1096.73 188.647 1096.62 188.675C1096.55 188.696 1096.68 188.71 1096.92 188.71C1097.15 188.71 1097.29 188.696 1097.23 188.675C1097.05 188.605 1097.02 188.499 1097.02 187.824C1097.02 187.269 1097 187.156 1096.88 187.037C1096.68 186.833 1096.41 186.861 1096.17 187.114C1096.04 187.248 1095.97 187.29 1095.97 187.233C1095.97 187.072 1095.73 186.896 1095.52 186.896C1095.4 186.896 1095.27 186.966 1095.17 187.079L1095.02 187.262L1094.98 187.1C1094.94 186.938 1094.6 186.84 1094.52 186.973Z" fill="white"/>
<path d="M1097.61 186.98C1097.59 187.008 1097.64 187.037 1097.72 187.037C1097.86 187.037 1097.86 187.072 1097.86 188.253C1097.86 189.449 1097.86 189.477 1097.71 189.554C1097.58 189.617 1097.63 189.631 1098.01 189.631C1098.35 189.631 1098.42 189.61 1098.31 189.568C1098.16 189.512 1098.15 189.456 1098.15 189.048V188.598L1098.36 188.703C1099.16 189.097 1099.66 187.564 1098.92 186.987C1098.76 186.854 1098.44 186.882 1098.29 187.037C1098.17 187.149 1098.15 187.156 1098.15 187.072C1098.15 186.959 1098.14 186.952 1097.84 186.938C1097.73 186.931 1097.63 186.952 1097.61 186.98ZM1098.78 187.107C1098.89 187.219 1098.92 187.339 1098.92 187.768C1098.92 188.436 1098.84 188.654 1098.6 188.654C1098.28 188.654 1098.15 188.429 1098.15 187.887C1098.15 187.466 1098.17 187.367 1098.33 187.184C1098.54 186.931 1098.59 186.917 1098.78 187.107Z" fill="white"/>
<path d="M1099.91 187.065C1099.71 187.276 1099.75 187.599 1099.97 187.599C1100.16 187.599 1100.23 187.451 1100.09 187.353C1099.93 187.241 1099.95 187.128 1100.12 187.037C1100.27 186.952 1100.54 187.008 1100.62 187.135C1100.65 187.177 1100.68 187.318 1100.68 187.437C1100.68 187.676 1100.69 187.669 1100.14 187.782C1099.87 187.831 1099.67 188.056 1099.67 188.302C1099.67 188.731 1100.16 188.914 1100.48 188.598C1100.62 188.464 1100.62 188.464 1100.79 188.633C1100.95 188.795 1100.98 188.802 1101.12 188.703C1101.21 188.647 1101.28 188.52 1101.29 188.401C1101.3 188.204 1101.3 188.204 1101.25 188.373C1101.22 188.471 1101.14 188.555 1101.08 188.57C1100.97 188.591 1100.96 188.52 1100.96 187.916C1100.96 187.29 1100.94 187.226 1100.78 187.072C1100.55 186.833 1100.13 186.833 1099.91 187.065ZM1100.68 187.993C1100.68 188.33 1100.33 188.703 1100.12 188.584C1099.95 188.499 1099.93 188.183 1100.07 188.007C1100.11 187.944 1100.26 187.859 1100.4 187.824C1100.53 187.782 1100.65 187.747 1100.66 187.747C1100.67 187.74 1100.68 187.852 1100.68 187.993Z" fill="white"/>
<path d="M1101.62 186.973C1101.61 187.001 1101.65 187.037 1101.72 187.051C1101.82 187.079 1101.84 187.17 1101.82 187.866C1101.8 188.527 1101.77 188.647 1101.68 188.675C1101.61 188.696 1101.75 188.71 1101.98 188.71C1102.21 188.71 1102.35 188.696 1102.3 188.675C1102.13 188.612 1102.08 188.499 1102.08 188.162C1102.09 187.452 1102.38 186.896 1102.7 186.994C1102.88 187.051 1102.91 187.156 1102.92 187.88C1102.93 188.492 1102.9 188.605 1102.72 188.675C1102.66 188.696 1102.8 188.71 1103.03 188.71C1103.27 188.71 1103.41 188.696 1103.34 188.675C1103.24 188.654 1103.22 188.52 1103.2 187.916C1103.17 187.325 1103.15 187.163 1103.04 187.044C1102.86 186.84 1102.56 186.861 1102.3 187.086C1102.16 187.198 1102.08 187.234 1102.08 187.17C1102.09 187.114 1102.1 187.037 1102.09 187.001C1102.08 186.924 1101.67 186.903 1101.62 186.973Z" fill="white"/>
<path d="M1103.74 186.973C1103.6 187.023 1103.6 187.03 1103.75 187.03C1103.91 187.037 1103.98 187.17 1104.36 188.359C1104.55 188.935 1104.56 188.935 1104.43 189.202C1104.29 189.484 1104 189.624 1104.08 189.371C1104.11 189.287 1104.08 189.202 1104.01 189.139C1103.91 189.062 1103.88 189.062 1103.81 189.167C1103.61 189.435 1103.86 189.702 1104.23 189.61C1104.45 189.554 1104.51 189.442 1104.86 188.302C1105.21 187.205 1105.28 187.037 1105.44 187.037C1105.5 187.037 1105.53 187.016 1105.51 186.987C1105.48 186.966 1105.33 186.945 1105.18 186.945C1105.02 186.945 1104.88 186.966 1104.85 186.987C1104.83 187.016 1104.85 187.037 1104.92 187.037C1105 187.037 1105.04 187.093 1105.04 187.184C1105.04 187.416 1104.74 188.387 1104.69 188.323C1104.62 188.253 1104.26 187.219 1104.26 187.114C1104.26 187.072 1104.33 187.037 1104.42 187.037C1104.5 187.037 1104.55 187.016 1104.52 186.98C1104.45 186.91 1103.91 186.903 1103.74 186.973Z" fill="white"/>
<path d="M1109.68 186.973C1109.57 187.001 1109.55 187.023 1109.63 187.03C1109.73 187.037 1109.75 187.121 1109.75 187.81C1109.75 188.464 1109.73 188.584 1109.63 188.647C1109.53 188.703 1109.61 188.717 1109.92 188.717C1110.25 188.717 1110.31 188.703 1110.19 188.654C1110.04 188.591 1110.03 188.556 1110.03 187.782C1110.03 186.924 1110.01 186.875 1109.68 186.973Z" fill="white"/>
<path d="M1110.62 186.973C1110.61 187.001 1110.65 187.037 1110.72 187.051C1110.82 187.079 1110.84 187.17 1110.82 187.866C1110.8 188.527 1110.78 188.647 1110.68 188.675C1110.61 188.696 1110.75 188.71 1110.98 188.71C1111.21 188.71 1111.35 188.696 1111.3 188.675C1111.13 188.612 1111.09 188.499 1111.09 188.162C1111.09 187.698 1111.19 187.325 1111.37 187.135C1111.56 186.938 1111.6 186.931 1111.75 187.079C1111.84 187.163 1111.86 187.346 1111.86 187.916C1111.86 188.548 1111.84 188.647 1111.74 188.675C1111.67 188.696 1111.8 188.71 1112.03 188.71C1112.35 188.717 1112.41 188.703 1112.3 188.654C1112.15 188.598 1112.14 188.541 1112.14 188.091C1112.14 187.529 1112.27 187.156 1112.5 187.03C1112.64 186.959 1112.67 186.966 1112.79 187.107C1112.89 187.234 1112.91 187.388 1112.91 187.923C1112.91 188.548 1112.91 188.591 1112.76 188.654C1112.64 188.703 1112.7 188.717 1113.02 188.71C1113.25 188.71 1113.39 188.696 1113.32 188.675C1113.23 188.654 1113.2 188.527 1113.18 187.916C1113.17 187.325 1113.14 187.163 1113.03 187.044C1112.84 186.833 1112.53 186.854 1112.3 187.086C1112.18 187.219 1112.11 187.255 1112.09 187.191C1111.97 186.861 1111.58 186.805 1111.28 187.086L1111.09 187.276V187.1C1111.09 186.959 1111.05 186.931 1110.87 186.931C1110.75 186.931 1110.64 186.952 1110.62 186.973Z" fill="white"/>
<path d="M1113.79 186.973C1113.67 187.023 1113.67 187.03 1113.81 187.03C1113.96 187.037 1113.97 187.058 1113.97 187.81C1113.97 188.548 1113.96 188.591 1113.81 188.654C1113.69 188.703 1113.75 188.717 1114.07 188.717C1114.42 188.724 1114.47 188.71 1114.37 188.633C1114.28 188.563 1114.25 188.401 1114.24 187.747C1114.21 186.987 1114.21 186.945 1114.07 186.931C1113.99 186.924 1113.86 186.945 1113.79 186.973Z" fill="white"/>
<path d="M1116.46 187.135C1116.22 187.374 1116.18 187.529 1116.21 187.986C1116.25 188.429 1116.6 188.795 1116.99 188.795C1117.2 188.795 1117.55 188.422 1117.55 188.218C1117.54 188.056 1117.54 188.056 1117.46 188.239C1117.32 188.541 1117.2 188.654 1116.98 188.654C1116.75 188.654 1116.58 188.443 1116.56 188.091L1116.53 187.845L1117.06 187.838C1117.35 187.838 1117.59 187.803 1117.59 187.768C1117.57 186.987 1116.95 186.643 1116.46 187.135ZM1117.09 187.1C1117.15 187.17 1117.23 187.346 1117.25 187.487L1117.29 187.747L1116.91 187.726C1116.54 187.705 1116.53 187.705 1116.56 187.494C1116.58 187.241 1116.75 186.966 1116.88 186.966C1116.93 186.966 1117.03 187.023 1117.09 187.1Z" fill="white"/>
<path d="M1053.08 188.436C1053.02 188.541 1053.03 188.598 1053.11 188.682C1053.3 188.872 1053.52 188.766 1053.48 188.506C1053.45 188.288 1053.18 188.239 1053.08 188.436Z" fill="white"/>
<path d="M1056.97 188.457C1056.92 188.598 1057.07 188.795 1057.23 188.795C1057.33 188.795 1057.44 188.584 1057.4 188.443C1057.33 188.246 1057.04 188.253 1056.97 188.457Z" fill="white"/>
<path d="M1265 180L1289.22 204H1405V156H1289.22L1265 180ZM1308.74 168.435C1310.49 169.002 1312.13 169.954 1313.05 170.926C1315.67 173.742 1315.95 178.481 1313.7 181.863C1311.95 184.516 1309.08 185.711 1304.02 185.914L1301.18 186.035V192.05H1295.25V167.909L1301.44 167.99C1306.61 168.071 1307.8 168.131 1308.74 168.435ZM1326.42 174.329C1328.75 177.833 1330.69 180.709 1330.71 180.709C1330.73 180.709 1332.67 177.833 1335.02 174.329L1339.29 167.949L1341.54 168.01L1343.79 168.05V191.949L1337.76 192.071L1337.72 186.096L1337.66 180.121L1335.02 184.152L1332.4 188.202H1329.07L1323.76 180.061L1323.7 186.055L1323.66 192.05H1317.73V167.949H1322.19L1326.42 174.329ZM1361.57 168.435C1366.74 169.893 1369.93 173.276 1370.66 178.157C1371.58 184.253 1368.03 189.661 1361.88 191.463C1360.49 191.868 1359.79 191.909 1354.17 191.99L1347.98 192.091V167.909L1354.17 167.99C1359.18 168.071 1360.57 168.152 1361.57 168.435ZM1386.01 168.233C1388.28 168.638 1390.02 169.529 1391.37 170.987C1393.02 172.749 1393.45 173.924 1393.45 176.881C1393.45 179.169 1393.43 179.23 1392.68 180.749C1391.47 183.18 1389.49 184.698 1386.5 185.468C1385.83 185.63 1384.01 185.833 1382.48 185.914L1379.66 186.035V192.071L1373.63 191.949L1373.57 179.939L1373.53 167.949H1378.98C1382.68 167.969 1384.97 168.05 1386.01 168.233Z" fill="white"/>
<path d="M1301.22 176.901L1301.28 180.607L1303.1 180.668C1306.31 180.769 1307.96 180.141 1308.74 178.562C1309.19 177.65 1309.27 176.071 1308.92 175.382C1308.08 173.762 1306.67 173.215 1303.38 173.215H1301.18L1301.22 176.901Z" fill="white"/>
<path d="M1354.11 186.582H1356.42C1359.87 186.582 1361.59 185.954 1363.18 184.131C1364.21 182.936 1364.84 180.891 1364.66 179.352C1364.47 177.711 1363.82 176.395 1362.67 175.342C1361.02 173.802 1360.2 173.539 1356.93 173.458L1354.11 173.377V186.582Z" fill="white"/>
<path d="M1379.66 180.769L1382.17 180.668C1385.52 180.526 1386.67 179.98 1387.34 178.137C1387.95 176.395 1387.38 174.774 1385.83 173.863C1384.95 173.357 1384.66 173.316 1382.27 173.235L1379.66 173.174V180.769Z" fill="white"/>
<path d="M530 179.625V208.249L547.448 208.161C562.739 208.095 565.137 208.051 566.963 207.699C572.64 206.687 576.314 204.927 579.042 201.935C581.309 199.47 582.365 196.5 582.365 192.562C582.365 188.359 581.265 185.323 578.69 182.463C577.612 181.275 574.994 179.537 573.3 178.921L571.98 178.459L572.706 178.063C574.224 177.27 576.094 175.51 577.216 173.86C578.778 171.506 579.329 169.768 579.439 166.643C579.637 162.133 578.668 159.581 575.676 156.633C573.542 154.52 572.068 153.618 569.208 152.65C564.807 151.176 564.675 151.154 546.458 151.066L530 151V179.625ZM560.209 161.341C562.013 161.737 563.817 162.683 564.741 163.695C566.281 165.345 566.699 168.074 565.731 170.34C565.027 172.078 562.849 173.552 560.209 174.146C559.637 174.278 555.566 174.432 551.188 174.498L543.201 174.608V167.744V160.879L551.188 160.989C555.654 161.055 559.615 161.209 560.209 161.341ZM560.561 184.245C563.223 184.487 564.653 184.905 566.215 185.895C568.173 187.149 568.988 188.711 568.988 191.308C568.988 194.564 567.403 196.588 564.125 197.578C562.233 198.128 559.043 198.326 551.078 198.326H543.201V191.176V184.025H550.748C554.884 184.047 559.307 184.135 560.561 184.245Z" fill="#0F0F0F"/>
<path d="M576.556 151.506C579.703 153.838 581.881 157.117 582.585 160.527L582.827 161.803H589.603H596.38L596.512 164.817C596.71 169.746 597.832 172.474 600.846 175.466C602.123 176.742 602.981 177.358 604.389 178.063C607.359 179.537 608.129 179.625 617.964 179.625H626.589V180.659C626.589 182.485 625.775 185.763 624.873 187.633C623.091 191.33 620.78 193.662 617.282 195.334C613.278 197.248 611.341 197.446 596.666 197.446H585.995L585.621 198.986C584.895 202.045 582.805 205.191 580.187 207.149L578.734 208.249L596.116 208.161C614.62 208.073 614.356 208.073 618.8 206.929C630.285 203.981 638.162 195.334 639.68 184.025C642.056 166.555 631.011 153.112 612.75 151.264C611.363 151.11 603.751 151.022 593.212 151.022H575.918L576.556 151.506Z" fill="#0F0F0F"/>
<rect x="35" y="580" width="100" height="100" rx="50" fill="#323232"/>
<g filter="url(#filter4_d_130_253)">
<rect x="485" y="530" width="200" height="200" rx="100" fill="#FF0000"/>
</g>
<g filter="url(#filter5_d_130_253)">
<rect x="735" y="530" width="200" height="200" rx="100" fill="#5E26C0"/>
</g>
<g opacity="0.8" filter="url(#filter6_d_130_253)">
<rect x="985" y="530" width="200" height="200" rx="100" fill="#820E0E"/>
</g>
<g filter="url(#filter7_d_130_253)">
<rect x="1235" y="530" width="200" height="200" rx="100" fill="#0071B7"/>
</g>
<rect x="1510" y="555" width="150" height="150" rx="75" fill="#323232"/>
<rect x="1785" y="580" width="100" height="100" rx="50" fill="#323232"/>
<path fill-rule="evenodd" clip-rule="evenodd" d="M812.645 621.22C812.645 619.646 813.921 618.371 815.494 618.371C817.068 618.371 818.343 619.646 818.343 621.22V623.798C818.343 625.642 819.838 627.137 821.682 627.137C823.212 627.137 824.502 626.069 825.198 624.707C827.121 620.946 831.034 618.371 835.548 618.371C841.963 618.371 847.164 623.571 847.164 629.987C847.164 636.402 841.963 641.602 835.548 641.602C831.034 641.602 827.121 639.027 825.198 635.266C824.502 633.904 823.212 632.836 821.682 632.836C819.838 632.836 818.343 634.331 818.343 636.175V638.753C818.343 640.327 817.068 641.602 815.494 641.602C813.921 641.602 812.645 640.327 812.645 638.753L812.645 632.836V627.137L812.645 621.22ZM835.548 637.042C831.651 637.042 828.493 633.883 828.493 629.987C828.493 626.09 831.651 622.931 835.548 622.931C839.444 622.931 842.603 626.09 842.603 629.987C842.603 633.883 839.444 637.042 835.548 637.042Z" fill="white"/>
<path d="M812.645 618.371L815.494 618.371V641.602H812.645V618.371Z" fill="white"/>
<path d="M854.612 620.835C854.074 619.356 852.439 618.594 850.96 619.132C849.482 619.67 848.719 621.305 849.257 622.784L851.216 628.165C851.643 629.339 851.643 630.625 851.216 631.798L849.234 637.244C848.696 638.722 849.458 640.357 850.937 640.895C852.416 641.434 854.051 640.671 854.589 639.193L856.902 632.836L857.392 631.49C857.451 631.328 857.579 631.2 857.741 631.141C858.045 631.031 858.201 630.696 858.091 630.392L858.028 630.221C857.972 630.067 857.972 629.897 858.028 629.743L858.081 629.599C858.184 629.316 858.038 629.003 857.755 628.9C857.603 628.845 857.484 628.725 857.429 628.574L856.906 627.137L854.612 620.835Z" fill="white"/>
<path fill-rule="evenodd" clip-rule="evenodd" d="M877.957 621.001C877.957 619.427 879.233 618.152 880.806 618.152L883.655 618.152L889.025 618.152H891.874C893.448 618.152 894.723 619.427 894.723 621.001V630.502C894.723 630.762 894.934 630.973 895.195 630.973C895.721 630.973 896.148 631.4 896.148 631.926V640.324C896.148 641.151 895.477 641.822 894.65 641.822H891.948C891.12 641.822 890.449 641.151 890.449 640.324V638.169C890.449 637.342 889.779 636.671 888.951 636.671H883.619C882.792 636.671 882.121 637.342 882.121 638.169V640.104C882.121 640.932 881.45 641.602 880.623 641.602H877.921C877.093 641.602 876.423 640.932 876.423 640.104V631.926C876.423 631.4 876.85 630.973 877.376 630.973C877.697 630.973 877.957 630.713 877.957 630.392V621.001ZM883.655 629.475C883.655 630.302 884.326 630.973 885.153 630.973H887.527C888.354 630.973 889.025 630.302 889.025 629.475V626.535C889.025 625.052 887.823 623.85 886.34 623.85C884.857 623.85 883.655 625.052 883.655 626.535V629.475Z" fill="white"/>
<path d="M785.256 633.501C781.797 632.435 781.797 627.538 785.256 626.473L811.549 618.371V641.602L785.256 633.501Z" fill="white"/>
<path d="M869.738 631.474V628.499C869.738 627.747 869.128 627.137 868.376 627.137H866.627L866.361 627.868C866.23 628.228 865.947 628.512 865.587 628.643C864.914 628.888 864.567 629.632 864.812 630.305L865.733 632.836H868.376C869.128 632.836 869.738 632.226 869.738 631.474Z" fill="white"/>
<path d="M862.787 618.371H859.813C859.061 618.371 858.451 618.98 858.451 619.733V625.776C858.451 626.528 857.841 627.137 857.089 627.137H856.906L857.429 628.574C857.484 628.725 857.603 628.845 857.755 628.9C858.038 629.003 858.184 629.316 858.081 629.599L858.028 629.743C857.972 629.897 857.972 630.067 858.028 630.221L858.091 630.392C858.201 630.696 858.045 631.031 857.741 631.141C857.579 631.2 857.451 631.328 857.392 631.49L856.902 632.836H857.089C857.841 632.836 858.451 633.446 858.451 634.198V640.241C858.451 640.993 859.061 641.603 859.813 641.603H862.787C863.54 641.603 864.149 640.993 864.149 640.241V634.198C864.149 633.446 864.759 632.836 865.511 632.836H865.733L864.812 630.305C864.567 629.632 864.914 628.888 865.587 628.643C865.947 628.512 866.23 628.228 866.361 627.868L866.627 627.137H865.511C864.759 627.137 864.149 626.528 864.149 625.776V619.733C864.149 618.98 863.54 618.371 862.787 618.371Z" fill="white"/>
<path d="M869.738 628.499V631.474C869.738 632.226 869.128 632.836 868.376 632.836H865.733L868.047 639.193C868.585 640.671 870.22 641.434 871.699 640.895C873.177 640.357 873.94 638.722 873.402 637.244L871.868 633.032C871.441 631.858 871.441 630.572 871.868 629.398L874.278 622.778C874.816 621.299 874.054 619.664 872.575 619.126C871.097 618.588 869.462 619.35 868.923 620.829L866.627 627.137H868.376C869.128 627.137 869.738 627.747 869.738 628.499Z" fill="white"/>
<path d="M1082 652.23L1057.49 671.115L1083.2 613.252C1083.71 612.103 1085.29 612.103 1085.8 613.252L1111.63 671.381L1087 652.241C1085.52 651.096 1083.48 651.092 1082 652.23ZM1115 674L1114.97 673.978L1087.63 612.44C1086.42 609.707 1082.58 609.707 1081.37 612.44L1054.16 673.678L1053.74 674H1045.22L1084.5 585.614L1123.78 674H1115Z" stroke="white" stroke-width="2"/>
<path d="M1329.58 587.258C1318.2 587.932 1306.56 590.887 1297.35 595.45C1295.92 596.155 1294.54 596.859 1294.28 597.012C1294.04 597.165 1293.14 597.686 1292.29 598.191C1287.58 600.963 1284.27 603.642 1279.91 608.236C1276.34 611.972 1273.37 617.102 1271.88 622.079C1271.02 624.957 1270.87 626.152 1270.86 630.118C1270.86 633.471 1270.89 634.053 1271.21 635.554C1271.67 637.743 1272.8 641.173 1273.58 642.827C1274.24 644.159 1275.96 647.283 1276.12 647.421C1276.17 647.467 1276.43 647.804 1276.67 648.186C1278.88 651.494 1283.18 655.797 1287.39 658.89C1290.33 661.064 1294.85 663.683 1298.36 665.275C1299.57 665.826 1300.7 666.332 1300.87 666.408C1301.04 666.485 1301.56 666.699 1302.02 666.883C1312.66 671.017 1324.51 673.038 1336.39 672.778C1344.86 672.579 1351.29 671.676 1359.13 669.563C1365.49 667.863 1373.63 664.356 1378.49 661.248C1384.6 657.328 1388.35 653.944 1392.56 648.569C1395.21 645.185 1397.73 639.611 1398.55 635.309C1399.47 630.546 1399.22 625.493 1397.86 621.16C1397.34 619.476 1396.36 616.964 1395.84 616.015C1394.43 613.412 1393.95 612.661 1392.53 610.747C1390.68 608.282 1386.71 604.194 1384.38 602.356C1381 599.692 1375.79 596.492 1372.07 594.792C1364.8 591.454 1358.78 589.662 1350.25 588.253C1343.99 587.228 1336.36 586.86 1329.58 587.258ZM1343.21 591.898C1349.03 592.602 1354.89 593.98 1359.44 595.711C1369.97 599.753 1377.63 605.556 1382.81 613.427C1384.96 616.719 1386.19 619.598 1387.06 623.457C1388.38 629.275 1387.69 635.845 1385.13 641.679C1384.18 643.853 1382.3 646.931 1380.77 648.799C1379.64 650.208 1376.93 653.163 1376.11 653.852C1375.59 654.311 1374.9 654.909 1374.61 655.169C1374.31 655.429 1373.39 656.133 1372.56 656.746C1365.61 661.876 1356.85 665.551 1347.51 667.25C1338.49 668.889 1328.63 668.736 1319.78 666.852C1310.97 664.953 1302.68 661.202 1296.24 656.195C1293.78 654.281 1290.18 650.59 1288.22 647.957C1286.6 645.782 1284.73 642.138 1283.8 639.336C1281.61 632.797 1281.79 626.213 1284.3 619.675C1285.8 615.831 1287.65 612.799 1290.56 609.492C1292.57 607.21 1295.6 604.408 1297.5 603.076C1297.76 602.907 1298.31 602.525 1298.72 602.234C1306.53 596.798 1316.85 593.077 1327.28 591.928C1328.51 591.791 1329.72 591.653 1329.96 591.622C1331.2 591.454 1341.26 591.668 1343.21 591.898Z" fill="white"/>
<path d="M1331.19 601.192C1330.27 601.269 1328.51 601.514 1327.28 601.728C1320.27 602.953 1314.44 605.296 1308.37 609.308C1306.46 610.564 1305.85 611.13 1305.85 611.636C1305.85 611.988 1307.88 614.759 1308.66 615.448C1309.09 615.846 1309.87 615.801 1310.39 615.356C1311.04 614.821 1311.53 614.729 1311.97 615.081C1312.4 615.433 1312.35 614.346 1312.6 632.307C1312.74 643.041 1312.74 645.522 1312.58 645.828C1312.32 646.288 1311.65 646.318 1311.1 645.889C1310.29 645.246 1309.95 645.43 1308.39 647.329C1306.56 649.549 1306.5 649.718 1307.16 650.376C1307.67 650.881 1310.62 652.642 1312.72 653.699C1325.78 660.222 1342.04 660.589 1354.16 654.618C1361.25 651.126 1364.94 646.364 1364.95 640.714C1364.95 637.238 1363.8 634.313 1361.35 631.664C1360.01 630.194 1357.72 628.801 1355.69 628.219C1355.18 628.066 1354.68 627.928 1354.58 627.882C1354.17 627.76 1354.42 627.423 1355.3 626.856C1358.83 624.575 1361 619.874 1360.51 615.556C1359.96 610.793 1357.02 607.21 1351.4 604.469C1348.31 602.969 1345.32 602.065 1341.32 601.468C1338.95 601.116 1333.76 600.963 1331.19 601.192ZM1337.62 607.976C1343.64 610.028 1345.5 617.837 1341.06 622.324C1338.75 624.651 1337.08 625.126 1331.31 625.034L1328.05 624.988L1327.57 624.498L1327.08 624.008L1326.95 620.67C1326.87 618.832 1326.84 615.494 1326.85 613.243C1326.9 609.186 1326.9 609.155 1327.27 608.772C1328.09 607.899 1330.41 607.455 1333.79 607.516C1336.15 607.562 1336.5 607.593 1337.62 607.976ZM1340.45 631.925C1347.37 633.976 1350.3 641.908 1346.29 647.804C1345.32 649.228 1343.57 650.621 1341.95 651.264C1340.07 651.999 1338.55 652.229 1335.24 652.229C1330.42 652.244 1328.29 651.678 1327.73 650.238C1327.54 649.748 1327.31 642.674 1327.3 636.641C1327.28 633.088 1327.3 632.95 1327.62 632.476C1327.82 632.2 1328.11 631.925 1328.28 631.863C1328.69 631.695 1334.31 631.526 1337.16 631.588C1338.87 631.618 1339.7 631.695 1340.45 631.925Z" fill="white"/>
<path fill-rule="evenodd" clip-rule="evenodd" d="M633.059 605.821C628.588 603.419 623.517 602.218 617.845 602.218H552.255C546.516 602.218 541.411 603.419 536.94 605.821C532.536 608.157 529.033 611.426 526.43 615.63C523.894 619.768 522.626 624.539 522.626 629.944C522.626 635.283 523.894 640.054 526.43 644.258C529.033 648.395 532.536 651.665 536.94 654.067C541.411 656.47 546.516 657.671 552.255 657.671H617.845C623.517 657.671 628.588 656.47 633.059 654.067C637.53 651.665 641.033 648.395 643.57 644.258C646.105 640.054 647.374 635.283 647.374 629.944C647.374 624.472 646.105 619.668 643.57 615.53C641.033 611.393 637.53 608.157 633.059 605.821ZM552.255 644.858C549.652 644.858 547.317 644.258 545.248 643.057C543.179 641.856 541.511 640.154 540.243 637.952C539.042 635.683 538.442 633.014 538.442 629.944C538.442 626.808 539.042 624.139 540.243 621.937C541.511 619.734 543.179 618.033 545.248 616.832C547.317 615.63 549.652 615.03 552.255 615.03H617.845C620.447 615.03 622.783 615.63 624.852 616.832C626.92 618.033 628.555 619.734 629.756 621.937C630.957 624.139 631.558 626.808 631.558 629.944C631.558 633.014 630.957 635.683 629.756 637.952C628.555 640.154 626.92 641.856 624.852 643.057C622.783 644.258 620.447 644.858 617.845 644.858H552.255Z" fill="white"/>
<g filter="url(#filter8_d_130_253)">
<g filter="url(#filter9_d_130_253)">
<rect x="135" y="330" width="150" height="150" rx="75" fill="#EA3030"/>
</g>
<path d="M165 410.6H188.906L212.812 399.4H165V391H212.812L181.875 377H202.969L231.094 391H255V399.4H231.094L207.188 410.6H255V419H207.188L238.125 433H217.031L188.906 419H165V410.6Z" fill="white"/>
</g>
<rect x="-90" y="355" width="100" height="100" rx="50" fill="#323232"/>
<g filter="url(#filter10_d_130_253)">
<rect x="360" y="305" width="200" height="200" rx="100" fill="#020FFF"/>
</g>
<g filter="url(#filter11_d_130_253)">
<rect x="610" y="305" width="200" height="200" rx="100" fill="#09CBCB"/>
</g>
<g filter="url(#filter12_d_130_253)">
<rect x="860" y="305" width="200" height="200" rx="100" fill="#AD00FF"/>
</g>
<g filter="url(#filter13_d_130_253)">
<rect x="1110" y="305" width="200" height="200" rx="100" fill="#69D87D"/>
</g>
<g filter="url(#filter14_d_130_253)">
<rect x="1360" y="305" width="200" height="200" rx="100" fill="#4998E2"/>
</g>
<g filter="url(#filter15_d_130_253)">
<rect x="1635" y="330" width="150" height="150" rx="75" fill="#38B6FF"/>
</g>
<path d="M1663.49 422L1678.32 388.4H1687.68L1702.56 422H1692.68L1681.06 393.056H1684.8L1673.19 422H1663.49ZM1671.6 415.472L1674.05 408.464H1690.47L1692.92 415.472H1671.6ZM1711.69 422L1700.79 388.4H1710.58L1719.75 417.488H1714.81L1724.46 388.4H1733.19L1742.31 417.488H1737.56L1747.02 388.4H1756.09L1745.19 422H1735.02L1727.24 397.28H1729.98L1721.86 422H1711.69Z" fill="white"/>
<rect x="1910" y="355" width="100" height="100" rx="50" fill="#323232"/>
<path d="M1189.66 389.69C1191.13 388.371 1193.47 389.178 1193.82 391.118L1199.14 421.344C1199.48 423.226 1197.66 424.773 1195.85 424.151L1167.71 414.465C1165.9 413.843 1165.42 411.508 1166.84 410.229L1189.66 389.69Z" fill="white"/>
<path d="M1224.72 383.086C1225.36 381.031 1228.13 380.692 1229.25 382.529L1253.48 422.103C1254.43 423.659 1253.46 425.68 1251.64 425.902L1213.49 430.583C1211.68 430.806 1210.24 429.081 1210.79 427.341L1224.72 383.086Z" fill="white"/>
<path d="M1185.26 350.991C1184.13 349.24 1185.51 346.953 1187.58 347.13L1227.08 350.487C1228.93 350.644 1229.98 352.687 1229.02 354.279L1211.03 384.195C1210.07 385.787 1207.78 385.824 1206.77 384.265L1185.26 350.991Z" fill="white"/>
<path d="M1177.91 458.004C1176.75 458.004 1175.82 457.066 1175.82 455.91V443.582C1175.82 442.002 1177.1 440.722 1178.68 440.722H1185.95C1186.89 440.722 1187.65 441.481 1187.65 442.418C1187.65 443.355 1186.89 444.114 1185.95 444.114H1181.78C1180.8 444.114 1180.01 444.908 1180.01 445.886C1180.01 446.865 1180.8 447.658 1181.78 447.658H1185.19C1186.13 447.658 1186.89 448.42 1186.89 449.359C1186.89 450.298 1186.13 451.059 1185.19 451.059H1182.87C1181.29 451.059 1180.01 452.34 1180.01 453.919V455.91C1180.01 457.066 1179.07 458.004 1177.91 458.004Z" fill="white"/>
<path d="M1191.83 458.004C1190.68 458.004 1189.76 457.078 1189.76 455.935V447.112C1189.76 445.969 1190.68 445.042 1191.83 445.042C1192.97 445.042 1193.9 445.969 1193.9 447.112V455.935C1193.9 457.078 1192.97 458.004 1191.83 458.004ZM1191.83 443.532C1191.25 443.532 1190.75 443.341 1190.33 442.958C1189.92 442.57 1189.71 442.103 1189.71 441.557C1189.71 441.017 1189.92 440.556 1190.33 440.173C1190.75 439.785 1191.25 439.591 1191.83 439.591C1192.42 439.591 1192.92 439.785 1193.33 440.173C1193.75 440.556 1193.96 441.017 1193.96 441.557C1193.96 442.103 1193.75 442.57 1193.33 442.958C1192.92 443.341 1192.42 443.532 1191.83 443.532Z" fill="white"/>
<path d="M1206.32 445.042C1207.7 445.042 1208.67 446.402 1208.22 447.707L1205.34 456.075C1204.95 457.229 1203.86 458.004 1202.64 458.004H1201.98C1200.76 458.004 1199.67 457.228 1199.28 456.073L1196.4 447.706C1195.96 446.401 1196.93 445.042 1198.31 445.042C1199.21 445.042 1200.01 445.653 1200.25 446.532L1202.22 453.905C1202.24 453.944 1202.27 453.97 1202.31 453.97C1202.35 453.97 1202.38 453.944 1202.4 453.905L1204.38 446.53C1204.62 445.652 1205.41 445.042 1206.32 445.042Z" fill="white"/>
<path d="M1216.38 458.249C1215.02 458.249 1213.85 457.982 1212.86 457.447C1211.88 456.907 1211.13 456.139 1210.6 455.143C1210.07 454.142 1209.81 452.952 1209.81 451.574C1209.81 450.235 1210.07 449.065 1210.6 448.063C1211.13 447.056 1211.88 446.274 1212.85 445.718C1213.81 445.155 1214.95 444.874 1216.26 444.874C1217.18 444.874 1218.03 445.017 1218.8 445.304C1219.56 445.591 1220.23 446.016 1220.78 446.578C1221.34 447.141 1221.78 447.836 1222.09 448.663C1222.4 449.484 1222.55 450.426 1222.55 451.49C1222.55 452.058 1222.09 452.519 1221.52 452.519H1212.45C1211.79 452.519 1211.26 451.983 1211.26 451.321C1211.26 450.659 1211.79 450.122 1212.45 450.122H1217.47C1218.15 450.122 1218.73 449.531 1218.39 448.95C1218.19 448.606 1217.91 448.339 1217.55 448.148C1217.2 447.951 1216.8 447.853 1216.34 447.853C1215.88 447.853 1215.46 447.957 1215.1 448.165C1214.73 448.367 1214.44 448.646 1214.23 449C1214.01 449.349 1213.9 449.746 1213.89 450.19V452.629C1213.89 453.158 1213.99 453.622 1214.2 454.021C1214.41 454.415 1214.71 454.721 1215.09 454.941C1215.47 455.16 1215.93 455.27 1216.46 455.27C1216.83 455.27 1217.16 455.219 1217.46 455.118C1217.76 455.017 1218.01 454.868 1218.23 454.671C1218.62 454.315 1219.06 453.955 1219.59 453.971L1220.15 453.987C1221.39 454.023 1222.33 455.216 1221.55 456.18C1221.52 456.212 1221.5 456.243 1221.47 456.274C1220.94 456.899 1220.24 457.385 1219.38 457.734C1218.52 458.077 1217.52 458.249 1216.38 458.249Z" fill="white"/>
<path d="M1224.67 443.582C1224.67 442.002 1225.95 440.722 1227.53 440.722H1227.94C1229.1 440.722 1230.14 441.422 1230.58 442.494L1234.22 451.328C1234.24 451.385 1234.3 451.422 1234.36 451.422C1234.42 451.422 1234.47 451.385 1234.5 451.328L1238.13 442.494C1238.57 441.422 1239.62 440.722 1240.78 440.722H1241.19C1242.77 440.722 1244.05 442.002 1244.05 443.582V455.965C1244.05 457.091 1243.13 458.004 1242.01 458.004C1240.88 458.004 1239.97 457.091 1239.97 455.965V447.474C1239.97 447.427 1239.93 447.388 1239.88 447.388C1239.85 447.388 1239.82 447.41 1239.8 447.442L1236.14 456.684C1235.85 457.415 1235.14 457.894 1234.36 457.894C1233.57 457.894 1232.86 457.413 1232.58 456.681L1228.91 447.384C1228.9 447.351 1228.87 447.329 1228.83 447.329C1228.78 447.329 1228.75 447.368 1228.75 447.415V455.965C1228.75 457.091 1227.83 458.004 1226.71 458.004C1225.58 458.004 1224.67 457.091 1224.67 455.965V443.582Z" fill="white"/>
<path fill-rule="evenodd" clip-rule="evenodd" d="M912.911 366.867C911.464 366.867 910.292 368.032 910.292 369.468V440.532C910.292 441.968 911.464 443.132 912.911 443.132H976.65C977.743 443.132 978.721 442.458 979.103 441.441L985.066 425.588H992.8V414.774H993.511L1000.52 425.588H1009.71L1001.75 414.398C1004.28 413.771 1006.2 412.501 1007.53 410.589C1008.89 408.646 1009.57 406.451 1009.57 404.006C1009.57 401.06 1008.6 398.521 1006.68 396.389C1004.75 394.257 1001.99 393.192 998.389 393.192H997.252L1005.83 370.377C1006.47 368.678 1005.21 366.867 1003.38 366.867H912.911ZM994.67 400.057L997.252 393.192H984.891V425.588H985.066L992.8 405.027V408.003H998.01C999.21 408.003 1000.09 407.611 1000.66 406.827C1001.26 406.044 1001.56 405.103 1001.56 404.006C1001.56 402.909 1001.26 401.984 1000.66 401.232C1000.09 400.448 999.21 400.057 998.01 400.057H994.67ZM994.67 400.057L992.8 405.027V400.057H994.67ZM929.954 428.457L929.244 435.51C931.012 436.105 932.764 436.403 934.501 436.403C938.258 436.403 941.021 435.369 942.789 433.3C944.589 431.231 945.488 428.551 945.488 425.259V393.192H937.485V425.259C937.485 426.388 937.232 427.297 936.727 427.986C936.253 428.676 935.511 429.021 934.501 429.021C932.543 429.021 931.028 428.833 929.954 428.457ZM977.61 393.192H969.701V410.636L959.945 393.192H952.793V425.588H960.703V407.909L970.696 425.588H977.61V393.192Z" fill="white"/>
<path fill-rule="evenodd" clip-rule="evenodd" d="M912.911 366.867C911.464 366.867 910.292 368.032 910.292 369.468V440.532C910.292 441.968 911.464 443.132 912.911 443.132H976.65C977.743 443.132 978.721 442.458 979.103 441.441L985.066 425.588H992.8V414.774H993.511L1000.52 425.588H1009.71L1001.75 414.398C1004.28 413.771 1006.2 412.501 1007.53 410.589C1008.89 408.646 1009.57 406.451 1009.57 404.006C1009.57 401.06 1008.6 398.521 1006.68 396.389C1004.75 394.257 1001.99 393.192 998.389 393.192H997.252L1005.83 370.377C1006.47 368.678 1005.21 366.867 1003.38 366.867H912.911ZM994.67 400.057L997.252 393.192H984.891V425.588H985.066L992.8 405.027V408.003H998.01C999.21 408.003 1000.09 407.611 1000.66 406.827C1001.26 406.044 1001.56 405.103 1001.56 404.006C1001.56 402.909 1001.26 401.984 1000.66 401.232C1000.09 400.448 999.21 400.057 998.01 400.057H994.67ZM994.67 400.057L992.8 405.027V400.057H994.67ZM929.954 428.457L929.244 435.51C931.012 436.105 932.764 436.403 934.501 436.403C938.258 436.403 941.021 435.369 942.789 433.3C944.589 431.231 945.488 428.551 945.488 425.259V393.192H937.485V425.259C937.485 426.388 937.232 427.297 936.727 427.986C936.253 428.676 935.511 429.021 934.501 429.021C932.543 429.021 931.028 428.833 929.954 428.457ZM977.61 393.192H969.701V410.636L959.945 393.192H952.793V425.588H960.703V407.909L970.696 425.588H977.61V393.192Z" fill="white"/>
<path d="M421.203 383.524V423.282C421.203 425.012 419.801 426.414 418.071 426.414H410.837V387.882C410.837 385.475 412.788 383.524 415.195 383.524H421.203Z" fill="white"/>
<path d="M509.078 383.524V426.414H500.282L483.214 401.66H482.942V417.912V427.001H472.575V417.912V383.524H481.497L498.377 408.236H498.733V383.524H509.078Z" fill="white"/>
<path d="M466.643 399.063H456.172C456.032 397.988 455.746 397.018 455.313 396.152C454.881 395.287 454.308 394.547 453.596 393.932C452.884 393.318 452.039 392.85 451.062 392.529C450.099 392.194 449.031 392.027 447.858 392.027C445.778 392.027 443.983 392.536 442.476 393.555C440.982 394.575 439.83 396.048 439.02 397.974C438.224 399.901 437.826 402.233 437.826 404.969C437.826 407.817 438.231 410.205 439.041 412.131C439.865 414.044 441.017 415.489 442.496 416.467C443.99 417.43 446.018 417.912 448.056 417.912L447.846 427.001C443.965 427.001 440.228 426.149 437.156 424.446C434.099 422.728 431.683 420.229 429.91 416.948C428.137 413.667 427.25 409.674 427.25 404.969C427.25 400.25 428.151 396.25 429.952 392.969C431.753 389.688 434.189 387.196 437.261 385.492C440.332 383.789 443.774 382.937 447.586 382.937C450.182 382.937 452.584 383.301 454.79 384.027C456.996 384.739 458.936 385.786 460.612 387.168C462.287 388.536 463.648 390.219 464.696 392.215C465.743 394.212 466.392 396.494 466.643 399.063Z" fill="white"/>
<path d="M482.942 427.001H472.575V417.912H448.056L447.846 427.001H482.942Z" fill="white"/>
<rect y="79.9998" width="220" height="650" fill="url(#paint0_linear_130_253)"/>
<rect width="220" height="650" transform="matrix(-1 0 0 1 1920 79.9998)" fill="url(#paint1_linear_130_253)"/>
<rect x="260" y="554.5" width="150" height="150" rx="75" fill="#323232"/>
<defs>
<filter id="filter0_d_130_253" x="405" y="-0.000244141" width="360" height="360" filterUnits="userSpaceOnUse" color-interpolation-filters="sRGB">
<feFlood flood-opacity="0" result="BackgroundImageFix"/>
<feColorMatrix in="SourceAlpha" type="matrix" values="0 0 0 0 0 0 0 0 0 0 0 0 0 0 0 0 0 0 127 0" result="hardAlpha"/>
<feOffset/>
<feGaussianBlur stdDeviation="40"/>
<feComposite in2="hardAlpha" operator="out"/>
<feColorMatrix type="matrix" values="0 0 0 0 1 0 0 0 0 1 0 0 0 0 1 0 0 0 0.25 0"/>
<feBlend mode="normal" in2="BackgroundImageFix" result="effect1_dropShadow_130_253"/>
<feBlend mode="normal" in="SourceGraphic" in2="effect1_dropShadow_130_253" result="shape"/>
</filter>
<filter id="filter1_d_130_253" x="655" y="-0.000244141" width="360" height="360" filterUnits="userSpaceOnUse" color-interpolation-filters="sRGB">
<feFlood flood-opacity="0" result="BackgroundImageFix"/>
<feColorMatrix in="SourceAlpha" type="matrix" values="0 0 0 0 0 0 0 0 0 0 0 0 0 0 0 0 0 0 127 0" result="hardAlpha"/>
<feOffset/>
<feGaussianBlur stdDeviation="40"/>
<feComposite in2="hardAlpha" operator="out"/>
<feColorMatrix type="matrix" values="0 0 0 0 0.388235 0 0 0 0 0.929412 0 0 0 0 0.596078 0 0 0 0.25 0"/>
<feBlend mode="normal" in2="BackgroundImageFix" result="effect1_dropShadow_130_253"/>
<feBlend mode="normal" in="SourceGraphic" in2="effect1_dropShadow_130_253" result="shape"/>
</filter>
<filter id="filter2_d_130_253" x="905" y="-0.000244141" width="360" height="360" filterUnits="userSpaceOnUse" color-interpolation-filters="sRGB">
<feFlood flood-opacity="0" result="BackgroundImageFix"/>
<feColorMatrix in="SourceAlpha" type="matrix" values="0 0 0 0 0 0 0 0 0 0 0 0 0 0 0 0 0 0 127 0" result="hardAlpha"/>
<feOffset/>
<feGaussianBlur stdDeviation="40"/>
<feComposite in2="hardAlpha" operator="out"/>
<feColorMatrix type="matrix" values="0 0 0 0 0.917647 0 0 0 0 0.333333 0 0 0 0 0.333333 0 0 0 0.25 0"/>
<feBlend mode="normal" in2="BackgroundImageFix" result="effect1_dropShadow_130_253"/>
<feBlend mode="normal" in="SourceGraphic" in2="effect1_dropShadow_130_253" result="shape"/>
</filter>
<filter id="filter3_d_130_253" x="1155" y="-0.000244141" width="360" height="360" filterUnits="userSpaceOnUse" color-interpolation-filters="sRGB">
<feFlood flood-opacity="0" result="BackgroundImageFix"/>
<feColorMatrix in="SourceAlpha" type="matrix" values="0 0 0 0 0 0 0 0 0 0 0 0 0 0 0 0 0 0 127 0" result="hardAlpha"/>
<feOffset/>
<feGaussianBlur stdDeviation="40"/>
<feComposite in2="hardAlpha" operator="out"/>
<feColorMatrix type="matrix" values="0 0 0 0 0 0 0 0 0 0.196078 0 0 0 0 0.313726 0 0 0 0.25 0"/>
<feBlend mode="normal" in2="BackgroundImageFix" result="effect1_dropShadow_130_253"/>
<feBlend mode="normal" in="SourceGraphic" in2="effect1_dropShadow_130_253" result="shape"/>
</filter>
<filter id="filter4_d_130_253" x="405" y="450" width="360" height="360" filterUnits="userSpaceOnUse" color-interpolation-filters="sRGB">
<feFlood flood-opacity="0" result="BackgroundImageFix"/>
<feColorMatrix in="SourceAlpha" type="matrix" values="0 0 0 0 0 0 0 0 0 0 0 0 0 0 0 0 0 0 127 0" result="hardAlpha"/>
<feOffset/>
<feGaussianBlur stdDeviation="40"/>
<feComposite in2="hardAlpha" operator="out"/>
<feColorMatrix type="matrix" values="0 0 0 0 1 0 0 0 0 0 0 0 0 0 0 0 0 0 0.25 0"/>
<feBlend mode="normal" in2="BackgroundImageFix" result="effect1_dropShadow_130_253"/>
<feBlend mode="normal" in="SourceGraphic" in2="effect1_dropShadow_130_253" result="shape"/>
</filter>
<filter id="filter5_d_130_253" x="655" y="450" width="360" height="360" filterUnits="userSpaceOnUse" color-interpolation-filters="sRGB">
<feFlood flood-opacity="0" result="BackgroundImageFix"/>
<feColorMatrix in="SourceAlpha" type="matrix" values="0 0 0 0 0 0 0 0 0 0 0 0 0 0 0 0 0 0 127 0" result="hardAlpha"/>
<feOffset/>
<feGaussianBlur stdDeviation="40"/>
<feComposite in2="hardAlpha" operator="out"/>
<feColorMatrix type="matrix" values="0 0 0 0 0.370065 0 0 0 0 0.147691 0 0 0 0 0.754167 0 0 0 0.25 0"/>
<feBlend mode="normal" in2="BackgroundImageFix" result="effect1_dropShadow_130_253"/>
<feBlend mode="normal" in="SourceGraphic" in2="effect1_dropShadow_130_253" result="shape"/>
</filter>
<filter id="filter6_d_130_253" x="905" y="450" width="360" height="360" filterUnits="userSpaceOnUse" color-interpolation-filters="sRGB">
<feFlood flood-opacity="0" result="BackgroundImageFix"/>
<feColorMatrix in="SourceAlpha" type="matrix" values="0 0 0 0 0 0 0 0 0 0 0 0 0 0 0 0 0 0 127 0" result="hardAlpha"/>
<feOffset/>
<feGaussianBlur stdDeviation="40"/>
<feComposite in2="hardAlpha" operator="out"/>
<feColorMatrix type="matrix" values="0 0 0 0 1 0 0 0 0 0 0 0 0 0 0 0 0 0 0.25 0"/>
<feBlend mode="normal" in2="BackgroundImageFix" result="effect1_dropShadow_130_253"/>
<feBlend mode="normal" in="SourceGraphic" in2="effect1_dropShadow_130_253" result="shape"/>
</filter>
<filter id="filter7_d_130_253" x="1155" y="450" width="360" height="360" filterUnits="userSpaceOnUse" color-interpolation-filters="sRGB">
<feFlood flood-opacity="0" result="BackgroundImageFix"/>
<feColorMatrix in="SourceAlpha" type="matrix" values="0 0 0 0 0 0 0 0 0 0 0 0 0 0 0 0 0 0 127 0" result="hardAlpha"/>
<feOffset/>
<feGaussianBlur stdDeviation="40"/>
<feComposite in2="hardAlpha" operator="out"/>
<feColorMatrix type="matrix" values="0 0 0 0 0 0 0 0 0 0.443137 0 0 0 0 0.717647 0 0 0 0.25 0"/>
<feBlend mode="normal" in2="BackgroundImageFix" result="effect1_dropShadow_130_253"/>
<feBlend mode="normal" in="SourceGraphic" in2="effect1_dropShadow_130_253" result="shape"/>
</filter>
<filter id="filter8_d_130_253" x="131" y="330" width="158" height="158" filterUnits="userSpaceOnUse" color-interpolation-filters="sRGB">
<feFlood flood-opacity="0" result="BackgroundImageFix"/>
<feColorMatrix in="SourceAlpha" type="matrix" values="0 0 0 0 0 0 0 0 0 0 0 0 0 0 0 0 0 0 127 0" result="hardAlpha"/>
<feOffset dy="4"/>
<feGaussianBlur stdDeviation="2"/>
<feComposite in2="hardAlpha" operator="out"/>
<feColorMatrix type="matrix" values="0 0 0 0 0 0 0 0 0 0 0 0 0 0 0 0 0 0 0.25 0"/>
<feBlend mode="normal" in2="BackgroundImageFix" result="effect1_dropShadow_130_253"/>
<feBlend mode="normal" in="SourceGraphic" in2="effect1_dropShadow_130_253" result="shape"/>
</filter>
<filter id="filter9_d_130_253" x="55" y="250" width="310" height="310" filterUnits="userSpaceOnUse" color-interpolation-filters="sRGB">
<feFlood flood-opacity="0" result="BackgroundImageFix"/>
<feColorMatrix in="SourceAlpha" type="matrix" values="0 0 0 0 0 0 0 0 0 0 0 0 0 0 0 0 0 0 127 0" result="hardAlpha"/>
<feOffset/>
<feGaussianBlur stdDeviation="40"/>
<feComposite in2="hardAlpha" operator="out"/>
<feColorMatrix type="matrix" values="0 0 0 0 0.917647 0 0 0 0 0.188235 0 0 0 0 0.188235 0 0 0 0.25 0"/>
<feBlend mode="normal" in2="BackgroundImageFix" result="effect1_dropShadow_130_253"/>
<feBlend mode="normal" in="SourceGraphic" in2="effect1_dropShadow_130_253" result="shape"/>
</filter>
<filter id="filter10_d_130_253" x="280" y="225" width="360" height="360" filterUnits="userSpaceOnUse" color-interpolation-filters="sRGB">
<feFlood flood-opacity="0" result="BackgroundImageFix"/>
<feColorMatrix in="SourceAlpha" type="matrix" values="0 0 0 0 0 0 0 0 0 0 0 0 0 0 0 0 0 0 127 0" result="hardAlpha"/>
<feOffset/>
<feGaussianBlur stdDeviation="40"/>
<feComposite in2="hardAlpha" operator="out"/>
<feColorMatrix type="matrix" values="0 0 0 0 0.00784314 0 0 0 0 0.0588235 0 0 0 0 1 0 0 0 0.25 0"/>
<feBlend mode="normal" in2="BackgroundImageFix" result="effect1_dropShadow_130_253"/>
<feBlend mode="normal" in="SourceGraphic" in2="effect1_dropShadow_130_253" result="shape"/>
</filter>
<filter id="filter11_d_130_253" x="530" y="225" width="360" height="360" filterUnits="userSpaceOnUse" color-interpolation-filters="sRGB">
<feFlood flood-opacity="0" result="BackgroundImageFix"/>
<feColorMatrix in="SourceAlpha" type="matrix" values="0 0 0 0 0 0 0 0 0 0 0 0 0 0 0 0 0 0 127 0" result="hardAlpha"/>
<feOffset/>
<feGaussianBlur stdDeviation="40"/>
<feComposite in2="hardAlpha" operator="out"/>
<feColorMatrix type="matrix" values="0 0 0 0 0.0352941 0 0 0 0 0.796078 0 0 0 0 0.796078 0 0 0 0.25 0"/>
<feBlend mode="normal" in2="BackgroundImageFix" result="effect1_dropShadow_130_253"/>
<feBlend mode="normal" in="SourceGraphic" in2="effect1_dropShadow_130_253" result="shape"/>
</filter>
<filter id="filter12_d_130_253" x="780" y="225" width="360" height="360" filterUnits="userSpaceOnUse" color-interpolation-filters="sRGB">
<feFlood flood-opacity="0" result="BackgroundImageFix"/>
<feColorMatrix in="SourceAlpha" type="matrix" values="0 0 0 0 0 0 0 0 0 0 0 0 0 0 0 0 0 0 127 0" result="hardAlpha"/>
<feOffset/>
<feGaussianBlur stdDeviation="40"/>
<feComposite in2="hardAlpha" operator="out"/>
<feColorMatrix type="matrix" values="0 0 0 0 0.678431 0 0 0 0 0 0 0 0 0 1 0 0 0 0.25 0"/>
<feBlend mode="normal" in2="BackgroundImageFix" result="effect1_dropShadow_130_253"/>
<feBlend mode="normal" in="SourceGraphic" in2="effect1_dropShadow_130_253" result="shape"/>
</filter>
<filter id="filter13_d_130_253" x="1030" y="225" width="360" height="360" filterUnits="userSpaceOnUse" color-interpolation-filters="sRGB">
<feFlood flood-opacity="0" result="BackgroundImageFix"/>
<feColorMatrix in="SourceAlpha" type="matrix" values="0 0 0 0 0 0 0 0 0 0 0 0 0 0 0 0 0 0 127 0" result="hardAlpha"/>
<feOffset/>
<feGaussianBlur stdDeviation="40"/>
<feComposite in2="hardAlpha" operator="out"/>
<feColorMatrix type="matrix" values="0 0 0 0 0.411765 0 0 0 0 0.847059 0 0 0 0 0.490196 0 0 0 0.25 0"/>
<feBlend mode="normal" in2="BackgroundImageFix" result="effect1_dropShadow_130_253"/>
<feBlend mode="normal" in="SourceGraphic" in2="effect1_dropShadow_130_253" result="shape"/>
</filter>
<filter id="filter14_d_130_253" x="1280" y="225" width="360" height="360" filterUnits="userSpaceOnUse" color-interpolation-filters="sRGB">
<feFlood flood-opacity="0" result="BackgroundImageFix"/>
<feColorMatrix in="SourceAlpha" type="matrix" values="0 0 0 0 0 0 0 0 0 0 0 0 0 0 0 0 0 0 127 0" result="hardAlpha"/>
<feOffset/>
<feGaussianBlur stdDeviation="40"/>
<feComposite in2="hardAlpha" operator="out"/>
<feColorMatrix type="matrix" values="0 0 0 0 0.286275 0 0 0 0 0.596078 0 0 0 0 0.886275 0 0 0 0.25 0"/>
<feBlend mode="normal" in2="BackgroundImageFix" result="effect1_dropShadow_130_253"/>
<feBlend mode="normal" in="SourceGraphic" in2="effect1_dropShadow_130_253" result="shape"/>
</filter>
<filter id="filter15_d_130_253" x="1555" y="250" width="310" height="310" filterUnits="userSpaceOnUse" color-interpolation-filters="sRGB">
<feFlood flood-opacity="0" result="BackgroundImageFix"/>
<feColorMatrix in="SourceAlpha" type="matrix" values="0 0 0 0 0 0 0 0 0 0 0 0 0 0 0 0 0 0 127 0" result="hardAlpha"/>
<feOffset/>
<feGaussianBlur stdDeviation="40"/>
<feComposite in2="hardAlpha" operator="out"/>
<feColorMatrix type="matrix" values="0 0 0 0 0.219608 0 0 0 0 0.713726 0 0 0 0 1 0 0 0 0.25 0"/>
<feBlend mode="normal" in2="BackgroundImageFix" result="effect1_dropShadow_130_253"/>
<feBlend mode="normal" in="SourceGraphic" in2="effect1_dropShadow_130_253" result="shape"/>
</filter>
<linearGradient id="paint0_linear_130_253" x1="220" y1="405" x2="0" y2="405" gradientUnits="userSpaceOnUse">
<stop stop-color="#141414" stop-opacity="0"/>
<stop offset="1" stop-color="#141414"/>
</linearGradient>
<linearGradient id="paint1_linear_130_253" x1="220" y1="325" x2="0" y2="325" gradientUnits="userSpaceOnUse">
<stop stop-color="#141414" stop-opacity="0"/>
<stop offset="1" stop-color="#141414"/>
</linearGradient>
</defs>
</svg>
