<svg width="2100" height="810" viewBox="0 0 2100 810" fill="none" xmlns="http://www.w3.org/2000/svg">
<rect x="125" y="130" width="100" height="100" rx="50" fill="#1E1E1E"/>
<rect x="350" y="105" width="150" height="150" rx="75" fill="#1E1E1E"/>
<g filter="url(#filter0_d_219_55)">
<rect x="575" y="80" width="200" height="200" rx="100" fill="white"/>
</g>
<g filter="url(#filter1_d_219_55)">
<rect x="825" y="80" width="200" height="200" rx="100" fill="#63ED98"/>
</g>
<g filter="url(#filter2_d_219_55)">
<rect x="1075" y="80" width="200" height="200" rx="100" fill="#EA5555"/>
</g>
<g filter="url(#filter3_d_219_55)">
<rect x="1325" y="80" width="200" height="200" rx="100" fill="#003250"/>
</g>
<rect x="1600" y="105" width="150" height="150" rx="75" fill="#1E1E1E"/>
<rect x="1875" y="130" width="100" height="100" rx="50" fill="#1E1E1E"/>
<path fill-rule="evenodd" clip-rule="evenodd" d="M888.178 163.393C882.474 163.393 877.84 167.948 877.84 173.585C877.84 179.221 882.474 183.789 888.178 183.789L903.831 183.801C906.58 183.801 909.937 181.894 911.323 179.537L926.563 153.444C928.618 149.922 933.69 147.043 937.801 147.043H961.798C976.746 147.043 988.859 158.996 988.872 173.743C988.884 188.49 976.782 200.431 961.834 200.431L952.639 200.419C949.903 200.419 946.522 202.35 945.135 204.694L940.38 212.821L920.786 212.809L934.019 190.215C936.086 186.668 941.134 183.813 945.257 183.813H961.834C967.538 183.813 972.16 179.246 972.16 173.609C972.16 167.973 967.526 163.418 961.822 163.405H943.031C940.294 163.405 936.901 165.313 935.539 167.681L920.165 194.029C918.11 197.552 913.05 200.431 908.927 200.431H888.19C873.254 200.431 861.128 188.465 861.128 173.719C861.116 158.984 873.218 147.043 888.154 147.043L916.456 147.055L906.884 163.418L888.178 163.393Z" fill="white"/>
<path d="M1152.78 168.761C1132.57 168.782 1115.06 168.81 1113.85 168.817L1111.67 168.831L1111.99 169.112C1112.17 169.267 1112.5 169.541 1112.73 169.724C1112.96 169.9 1113.16 170.076 1113.17 170.104C1113.19 170.132 1113.23 170.16 1113.27 170.16C1113.33 170.16 1113.94 170.561 1114.03 170.659C1114.06 170.702 1114.27 170.807 1114.89 171.116C1115.07 171.208 1115.37 171.32 1115.55 171.363C1115.8 171.419 1129.96 171.433 1167.16 171.419C1216.49 171.398 1218.44 171.405 1218.95 171.524C1219.67 171.7 1220.23 171.953 1222.8 173.233C1223.67 173.669 1224.44 174.077 1224.5 174.133C1224.56 174.189 1224.65 174.239 1224.68 174.239C1224.73 174.239 1224.97 174.379 1225.23 174.555C1225.49 174.731 1225.71 174.871 1225.73 174.871C1225.8 174.871 1226.65 175.476 1226.7 175.554C1226.73 175.603 1226.79 175.645 1226.84 175.645C1226.93 175.645 1227.78 176.271 1228.4 176.798C1229.46 177.684 1231.32 179.632 1231.32 179.85C1231.32 179.892 1231.35 179.935 1231.38 179.949C1231.65 180.061 1232.7 182.304 1232.55 182.452C1232.53 182.473 1232.21 182.508 1231.83 182.529C1231.11 182.572 1231.09 182.593 1231.22 182.902C1231.25 182.972 1231.24 183.029 1231.2 183.029C1231.15 183.029 1230.91 182.818 1229.88 181.833C1229.16 181.144 1228.46 180.553 1227.76 180.04C1227.46 179.815 1227.17 179.59 1227.13 179.555C1227.09 179.513 1226.97 179.414 1226.86 179.337C1226.75 179.259 1226.63 179.154 1226.58 179.105C1226.52 179.063 1226.46 179.02 1226.44 179.02C1226.41 179.02 1225.96 178.725 1225.42 178.366C1224.19 177.558 1223.31 177.044 1221.84 176.292C1218.21 174.421 1216.57 173.95 1213.85 173.971C1211.56 173.992 1210.35 173.985 1210.05 173.957L1209.77 173.922L1209.78 174.239C1209.78 174.414 1209.81 175.04 1209.84 175.631L1209.89 176.714L1211.63 176.658C1212.58 176.629 1213.41 176.608 1213.46 176.622C1213.52 176.629 1214.02 176.658 1214.59 176.693C1215.52 176.749 1215.67 176.77 1216.39 177.03C1216.81 177.185 1217.22 177.347 1217.3 177.389C1217.37 177.431 1217.85 177.67 1218.35 177.916C1219.47 178.472 1220.97 179.274 1221.71 179.71C1222.02 179.892 1222.4 180.117 1222.55 180.209C1222.72 180.3 1222.86 180.406 1222.87 180.434C1222.88 180.469 1222.93 180.497 1222.98 180.497C1223.1 180.497 1224.55 181.629 1225.13 182.178L1225.66 182.67L1222.04 182.677C1220.05 182.677 1218.35 182.698 1218.26 182.719C1217.97 182.797 1218.07 183.043 1218.55 183.472C1218.81 183.69 1219.04 183.872 1219.08 183.872C1219.12 183.872 1219.19 183.929 1219.22 183.999C1219.26 184.076 1219.46 184.259 1219.67 184.421C1219.88 184.576 1220.09 184.751 1220.15 184.801C1220.2 184.857 1220.45 185.054 1220.7 185.237C1220.96 185.427 1221.18 185.595 1221.2 185.623C1221.22 185.652 1221.39 185.736 1221.58 185.82C1222.06 186.017 1223.24 186.066 1226.06 186.01C1227.93 185.968 1228.3 185.94 1228.3 185.863C1228.3 185.574 1228.59 185.975 1229.07 186.931C1229.14 187.086 1229.28 187.332 1229.36 187.473C1229.45 187.621 1229.51 187.754 1229.49 187.768C1229.47 187.782 1226.79 187.867 1223.52 187.944C1215.27 188.148 1214.73 188.162 1214.73 188.26C1214.73 188.303 1214.9 188.464 1215.09 188.619C1215.29 188.774 1215.51 188.957 1215.59 189.02C1215.67 189.09 1215.75 189.146 1215.77 189.146C1215.8 189.146 1215.94 189.266 1216.11 189.414C1216.26 189.554 1216.51 189.765 1216.66 189.885C1216.81 189.997 1217.2 190.314 1217.53 190.581C1217.86 190.848 1218.25 191.115 1218.38 191.179C1218.66 191.305 1218.9 191.305 1229.62 191.27C1236.01 191.256 1235.59 191.284 1235.37 190.855C1235.31 190.75 1235.15 190.356 1235.01 189.99C1234.87 189.625 1234.64 189.097 1234.52 188.816C1234.38 188.542 1234.28 188.289 1234.28 188.26C1234.28 188.218 1234.09 187.761 1233.78 187.058C1233.7 186.889 1233.64 186.734 1233.64 186.706C1233.64 186.671 1233.57 186.502 1233.47 186.313L1233.29 185.982H1238.42V185.715C1238.42 185.419 1238.1 184.097 1238 183.978C1237.97 183.936 1237.93 183.837 1237.91 183.76C1237.9 183.69 1237.86 183.563 1237.83 183.486C1237.8 183.408 1237.69 183.141 1237.6 182.888C1236.73 180.638 1234.89 178.071 1232.83 176.236C1232.23 175.708 1231.53 175.125 1231.11 174.801C1230.94 174.668 1230.78 174.541 1230.76 174.52C1230.69 174.45 1228.8 173.184 1228.76 173.184C1228.73 173.184 1228.53 173.057 1228.31 172.91C1228.09 172.755 1227.73 172.537 1227.51 172.424C1227.29 172.305 1226.84 172.052 1226.48 171.855C1226.14 171.658 1225.82 171.496 1225.77 171.496C1225.73 171.496 1225.7 171.475 1225.7 171.44C1225.7 171.412 1225.63 171.355 1225.54 171.313C1225.45 171.271 1224.54 170.814 1223.52 170.287C1222.49 169.766 1221.5 169.281 1221.3 169.218C1220.34 168.887 1220.09 168.824 1219.43 168.754C1218.67 168.676 1216.44 168.676 1152.78 168.761ZM1226.89 183.647C1226.89 183.669 1226.82 183.612 1226.72 183.521C1226.62 183.429 1226.54 183.324 1226.54 183.282C1226.54 183.24 1226.62 183.296 1226.72 183.408C1226.82 183.521 1226.89 183.626 1226.89 183.647ZM1227.57 184.301C1227.7 184.456 1227.7 184.456 1227.55 184.358C1227.45 184.301 1227.38 184.238 1227.38 184.21C1227.38 184.126 1227.43 184.147 1227.57 184.301Z" fill="white"/>
<path d="M1146.87 173.725C1146.07 173.803 1144.35 174.182 1143.95 174.372C1143.29 174.682 1142.69 175.16 1142.52 175.518C1142.04 176.51 1142.81 177.523 1144.3 177.86C1144.65 177.937 1145.64 178.001 1147.54 178.071C1150.81 178.191 1151.26 178.226 1151.6 178.366C1152.06 178.563 1151.87 178.866 1151.09 179.119C1149.67 179.576 1146.95 179.555 1144.65 179.056C1143.25 178.753 1143.45 178.697 1142.94 179.513C1142.7 179.899 1142.52 180.251 1142.54 180.286C1142.68 180.511 1145.24 181.003 1146.94 181.13C1148.13 181.221 1149.66 181.214 1150.38 181.123C1151.63 180.968 1153.24 180.293 1153.9 179.653C1154.34 179.224 1154.43 178.866 1154.29 178.162C1154.17 177.565 1154.04 177.368 1153.6 177.094C1153.13 176.798 1151.97 176.644 1149.75 176.559C1148.77 176.524 1147.44 176.475 1146.8 176.454C1146.16 176.426 1145.48 176.376 1145.3 176.334C1145.01 176.271 1144.96 176.243 1144.98 176.109C1145.01 175.905 1145.46 175.765 1146.81 175.54C1148.51 175.251 1150.22 175.307 1152.05 175.708C1152.41 175.786 1152.77 175.884 1152.84 175.926C1152.92 175.961 1153.02 175.997 1153.08 175.997C1153.2 175.997 1154.06 174.576 1153.98 174.499C1153.9 174.421 1152.6 174.112 1151.97 174.021C1151.66 173.985 1151.1 173.901 1150.74 173.838C1150.08 173.732 1147.54 173.655 1146.87 173.725Z" fill="white"/>
<path d="M1171.04 173.866L1169.44 173.887V176.13C1169.44 177.361 1169.42 178.943 1169.39 179.639L1169.35 180.919H1171.9V178.69L1174.77 178.641C1176.35 178.62 1178.19 178.577 1178.86 178.549L1180.09 178.507V177.712C1180.09 177.283 1180.07 176.897 1180.04 176.862C1180 176.833 1178.16 176.819 1175.94 176.833L1171.9 176.855V176.215C1171.9 175.652 1171.92 175.575 1172.03 175.568C1172.09 175.568 1174.17 175.568 1176.66 175.575L1181.16 175.582L1181.21 175.209C1181.23 175.005 1181.25 174.625 1181.25 174.358V173.887H1177.72C1175.78 173.887 1173.84 173.873 1173.41 173.866C1172.99 173.852 1171.92 173.852 1171.04 173.866Z" fill="white"/>
<path d="M1182.7 174.042C1182.68 174.133 1182.66 175.715 1182.66 177.558V180.919H1194.97L1194.93 179.14L1185.19 179.168V178.191L1185.71 178.155C1185.98 178.127 1187.53 178.106 1189.13 178.106C1192.6 178.092 1193.29 178.078 1193.41 178.008C1193.46 177.973 1193.49 177.719 1193.49 177.213V176.468L1191.04 176.51C1189.7 176.538 1187.84 176.538 1186.89 176.51L1185.19 176.468V176.018C1185.19 175.582 1185.19 175.575 1185.39 175.568C1185.5 175.568 1186.97 175.568 1188.68 175.575C1190.39 175.582 1192.41 175.561 1193.17 175.533L1194.55 175.483V173.887H1182.75L1182.7 174.042Z" fill="white"/>
<path d="M1196.64 173.936L1196.44 173.964V175.575L1198.5 175.589C1199.63 175.596 1200.61 175.603 1200.68 175.603C1200.78 175.603 1200.8 175.729 1200.84 176.545C1200.87 177.058 1200.87 178.24 1200.86 179.168L1200.82 180.849H1203.34V175.575H1207.68L1207.72 175.413C1207.74 175.329 1207.77 174.949 1207.77 174.569V173.887L1202.3 173.894C1199.29 173.901 1196.75 173.922 1196.64 173.936Z" fill="white"/>
<path d="M1155.8 180.835L1156.66 180.884C1157.14 180.912 1157.71 180.919 1157.94 180.905L1158.37 180.884L1158.32 178.598L1160.22 178.584C1161.27 178.577 1162.39 178.563 1162.7 178.563H1163.28L1164.11 179.724L1164.95 180.884L1165.81 180.933C1166.28 180.961 1166.94 180.961 1167.28 180.94L1167.89 180.898L1167.58 180.504C1167.33 180.174 1166.21 178.514 1166.15 178.38C1166.14 178.352 1166.21 178.31 1166.32 178.289C1166.65 178.205 1167.11 177.895 1167.42 177.544C1167.95 176.96 1168.12 176.074 1167.82 175.455C1167.57 174.956 1167.04 174.428 1166.54 174.196L1166.1 173.992L1155.8 173.95V180.835ZM1164.35 175.687C1164.84 175.722 1164.96 175.758 1165.15 175.912C1165.33 176.074 1165.36 176.137 1165.33 176.292C1165.26 176.559 1164.89 176.763 1164.36 176.84C1164.12 176.876 1162.66 176.918 1161.13 176.939L1158.33 176.974V175.652L1158.53 175.631C1158.8 175.596 1163.67 175.645 1164.35 175.687Z" fill="white"/>
<path d="M1117.83 174.85C1117.83 174.886 1118.52 175.293 1119.36 175.772C1121.3 176.869 1121.3 176.869 1121.34 176.911C1121.43 177.002 1122.37 177.431 1122.6 177.48C1122.74 177.516 1125.65 177.523 1129.06 177.494L1135.27 177.452V176.165C1135.27 175.061 1135.25 174.879 1135.15 174.843C1134.99 174.78 1117.83 174.794 1117.83 174.85Z" fill="white"/>
<path d="M1141.05 185.947C1140.78 186.066 1140.68 186.242 1140.68 186.615C1140.68 187.044 1140.83 187.213 1141.44 187.459C1142.3 187.817 1142.49 188.113 1142.12 188.478C1141.73 188.872 1141.01 188.528 1140.81 187.846C1140.73 187.557 1140.6 187.459 1140.65 187.726C1140.66 187.789 1140.67 188.064 1140.68 188.338C1140.69 188.739 1140.7 188.795 1140.76 188.654C1140.8 188.563 1140.83 188.471 1140.85 188.464C1140.86 188.45 1141.02 188.528 1141.2 188.626C1141.47 188.774 1141.59 188.802 1141.83 188.774C1142.44 188.689 1142.72 188.007 1142.33 187.543C1142.23 187.41 1141.95 187.248 1141.59 187.107C1141.02 186.875 1140.89 186.756 1140.89 186.46C1140.9 186.228 1141.05 186.059 1141.3 186.01C1141.63 185.947 1141.97 186.186 1142.15 186.615C1142.23 186.812 1142.32 186.967 1142.34 186.967C1142.4 186.967 1142.35 185.982 1142.28 185.94C1142.26 185.919 1142.23 185.954 1142.23 186.01C1142.23 186.158 1142.16 186.151 1141.8 185.982C1141.43 185.82 1141.35 185.813 1141.05 185.947Z" fill="white"/>
<path d="M1180.87 185.891C1179.95 186.123 1179.74 187.803 1180.52 188.535C1180.8 188.795 1181.27 188.858 1181.59 188.682C1181.84 188.549 1182.09 188.134 1182.1 187.86C1182.1 187.642 1181.97 187.733 1181.92 188C1181.79 188.717 1180.85 188.914 1180.59 188.274C1180.33 187.649 1180.4 186.425 1180.73 186.137C1181.09 185.827 1181.54 186.024 1181.81 186.601C1181.9 186.798 1182 186.952 1182.02 186.938C1182.04 186.924 1182.05 186.678 1182.04 186.397C1182.02 185.933 1182.01 185.891 1181.92 186.01C1181.82 186.144 1181.81 186.144 1181.51 185.996C1181.21 185.841 1181.13 185.827 1180.87 185.891Z" fill="white"/>
<path d="M1144.06 185.968C1144.06 186.01 1144.14 186.052 1144.25 186.066L1144.44 186.088V188.549L1144.25 188.57C1144.14 188.584 1144.06 188.626 1144.06 188.661C1144.06 188.696 1144.32 188.725 1144.65 188.725C1145 188.725 1145.25 188.696 1145.25 188.654C1145.25 188.612 1145.16 188.584 1145.04 188.584H1144.83V187.227L1145.12 187.269C1145.5 187.318 1145.58 187.431 1145.64 187.972C1145.7 188.549 1145.73 188.64 1145.88 188.725C1146.19 188.886 1146.52 188.619 1146.52 188.218C1146.52 188.035 1146.4 188.127 1146.36 188.338C1146.35 188.415 1146.29 188.478 1146.24 188.478C1146.17 188.478 1146.1 188.338 1146.04 188.021C1145.98 187.684 1145.9 187.522 1145.77 187.403C1145.67 187.311 1145.6 187.234 1145.61 187.227C1145.62 187.22 1145.74 187.163 1145.85 187.107C1146.27 186.889 1146.34 186.313 1145.97 186.066C1145.83 185.975 1145.59 185.94 1144.92 185.919C1144.36 185.905 1144.06 185.926 1144.06 185.968ZM1145.57 186.109C1145.74 186.214 1145.83 186.488 1145.78 186.735C1145.74 186.924 1145.69 187.002 1145.5 187.079C1145.36 187.135 1145.16 187.178 1145.04 187.178H1144.83V186.052H1145.17C1145.35 186.052 1145.53 186.081 1145.57 186.109Z" fill="white"/>
<path d="M1147.99 185.982C1147.99 186.017 1148.07 186.052 1148.17 186.052H1148.34V188.584H1148.17C1148.07 188.584 1147.99 188.612 1147.99 188.654C1147.99 188.696 1148.24 188.725 1148.59 188.725C1149.17 188.725 1149.43 188.619 1148.96 188.57L1148.73 188.549L1148.69 187.381L1148.99 187.403C1149.27 187.424 1149.29 187.438 1149.37 187.705C1149.46 187.972 1149.46 187.944 1149.46 187.318C1149.46 186.805 1149.44 186.699 1149.39 186.868C1149.31 187.156 1149.17 187.262 1148.93 187.234L1148.73 187.213V186.088L1149.17 186.066C1149.73 186.038 1149.93 186.151 1150.03 186.545C1150.07 186.699 1150.12 186.826 1150.14 186.826C1150.16 186.826 1150.17 186.622 1150.17 186.369V185.912H1149.08C1148.4 185.912 1147.99 185.94 1147.99 185.982Z" fill="white"/>
<path d="M1151.72 185.975C1151.72 186.01 1151.8 186.052 1151.92 186.066L1152.11 186.088V188.549L1151.92 188.57C1151.8 188.584 1151.72 188.626 1151.72 188.661C1151.72 188.696 1152.18 188.725 1152.81 188.725H1153.89L1153.94 188.492C1153.99 188.211 1153.95 187.592 1153.89 187.74C1153.87 187.796 1153.82 187.937 1153.79 188.042C1153.77 188.155 1153.68 188.324 1153.58 188.415C1153.44 188.556 1153.34 188.584 1152.95 188.584H1152.49V187.388H1152.73C1153 187.388 1153.13 187.494 1153.13 187.712C1153.13 187.803 1153.16 187.895 1153.2 187.916C1153.24 187.944 1153.27 187.726 1153.27 187.325C1153.27 186.945 1153.24 186.685 1153.2 186.685C1153.16 186.685 1153.13 186.763 1153.13 186.854C1153.13 187.086 1152.95 187.248 1152.7 187.248H1152.49V186.052H1152.95C1153.35 186.052 1153.44 186.073 1153.59 186.228C1153.68 186.32 1153.78 186.495 1153.8 186.615C1153.87 186.91 1153.98 186.805 1153.94 186.488C1153.92 186.348 1153.91 186.158 1153.91 186.066C1153.9 185.912 1153.89 185.912 1152.81 185.912C1152.18 185.912 1151.72 185.94 1151.72 185.975Z" fill="white"/>
<path d="M1154.32 185.982C1154.32 186.017 1154.39 186.052 1154.46 186.052C1154.6 186.052 1154.6 186.102 1154.6 187.318C1154.6 188.57 1154.6 188.591 1154.45 188.654C1154.33 188.696 1154.4 188.717 1154.74 188.717C1155.09 188.717 1155.16 188.696 1155.05 188.654C1154.88 188.591 1154.88 188.57 1154.88 187.248V185.912H1154.6C1154.45 185.912 1154.32 185.94 1154.32 185.982Z" fill="white"/>
<path d="M1163.43 186.102C1163.29 186.249 1163.25 186.376 1163.25 186.594C1163.25 186.847 1163.23 186.896 1163.11 186.896C1163.03 186.896 1162.97 186.924 1162.97 186.967C1162.97 187.002 1163.03 187.037 1163.11 187.037C1163.25 187.037 1163.25 187.086 1163.25 187.81C1163.25 188.549 1163.25 188.591 1163.1 188.654C1162.98 188.696 1163.07 188.71 1163.43 188.71C1163.7 188.703 1163.84 188.689 1163.73 188.675L1163.53 188.647V187.037H1163.71C1163.81 187.037 1163.89 187.009 1163.89 186.974C1163.89 186.938 1163.81 186.917 1163.71 186.931C1163.54 186.945 1163.53 186.931 1163.53 186.573C1163.53 186.109 1163.7 185.891 1163.94 186.045C1164.03 186.095 1164.03 186.13 1163.94 186.256C1163.86 186.383 1163.86 186.418 1163.96 186.474C1164.19 186.622 1164.34 186.235 1164.12 186.024C1163.95 185.848 1163.63 185.884 1163.43 186.102Z" fill="white"/>
<path d="M1166.91 185.982C1166.91 186.017 1166.99 186.052 1167.09 186.052C1167.26 186.052 1167.26 186.059 1167.26 186.615V187.177L1167.12 187.037C1166.97 186.882 1166.7 186.854 1166.48 186.967C1166.12 187.163 1166.01 188.021 1166.3 188.443C1166.5 188.753 1166.77 188.837 1167.05 188.703C1167.16 188.64 1167.26 188.626 1167.26 188.661C1167.26 188.696 1167.41 188.725 1167.6 188.717C1167.85 188.71 1167.89 188.696 1167.75 188.661L1167.58 188.612L1167.56 187.262L1167.54 185.912H1167.23C1167.05 185.912 1166.91 185.94 1166.91 185.982ZM1167.09 187.192C1167.26 187.395 1167.28 187.459 1167.25 187.93C1167.22 188.478 1167.11 188.647 1166.78 188.654C1166.57 188.654 1166.49 188.415 1166.49 187.789C1166.49 186.995 1166.73 186.763 1167.09 187.192Z" fill="white"/>
<path d="M1169.42 185.961C1169.39 185.982 1169.37 186.228 1169.38 186.502L1169.38 187.002L1169.48 186.692C1169.62 186.263 1169.83 186.038 1170.11 186.066L1170.32 186.088V188.549L1170.09 188.57C1169.97 188.584 1169.86 188.619 1169.86 188.661C1169.86 188.696 1170.17 188.725 1170.53 188.725C1170.93 188.725 1171.2 188.696 1171.2 188.654C1171.2 188.612 1171.09 188.584 1170.95 188.584H1170.71V186.052H1170.92C1171.21 186.052 1171.47 186.32 1171.52 186.678C1171.59 187.114 1171.72 187.037 1171.66 186.594C1171.64 186.397 1171.62 186.158 1171.62 186.066C1171.62 185.912 1171.61 185.912 1170.54 185.912C1169.95 185.912 1169.44 185.933 1169.42 185.961Z" fill="white"/>
<path d="M1197.01 185.982C1197.01 186.017 1197.08 186.052 1197.18 186.052H1197.36V188.584H1197.18C1197.08 188.584 1197.01 188.612 1197.01 188.654C1197.01 188.696 1197.41 188.725 1198.06 188.725H1199.12V188.176L1199.11 187.635L1198.98 188.021C1198.81 188.514 1198.69 188.598 1198.17 188.57L1197.74 188.549V186.088L1197.98 186.066C1198.44 186.017 1198.18 185.912 1197.6 185.912C1197.25 185.912 1197.01 185.94 1197.01 185.982Z" fill="white"/>
<path d="M1208.82 185.982C1208.82 186.017 1208.88 186.052 1208.95 186.052C1209.07 186.052 1209.09 186.116 1209.12 186.58C1209.13 186.868 1209.12 187.1 1209.1 187.086C1208.79 186.91 1208.66 186.875 1208.49 186.938C1207.86 187.156 1207.81 188.366 1208.41 188.682C1208.64 188.809 1208.67 188.809 1208.89 188.703C1209.16 188.563 1209.19 188.556 1209.14 188.654C1209.11 188.696 1209.22 188.725 1209.43 188.717C1209.61 188.71 1209.71 188.689 1209.63 188.675C1209.55 188.654 1209.47 188.605 1209.44 188.556C1209.41 188.514 1209.38 187.902 1209.38 187.192V185.912H1209.1C1208.95 185.912 1208.82 185.94 1208.82 185.982ZM1208.91 187.142C1209.19 187.431 1209.2 188.359 1208.92 188.563C1208.52 188.851 1208.3 188.528 1208.34 187.719C1208.38 186.981 1208.56 186.798 1208.91 187.142Z" fill="white"/>
<path d="M1162.1 186.172C1162.03 186.355 1162.26 186.509 1162.39 186.376C1162.45 186.32 1162.48 186.221 1162.46 186.165C1162.4 186.017 1162.16 186.024 1162.1 186.172Z" fill="white"/>
<path d="M1175.8 186.158C1175.77 186.221 1175.78 186.306 1175.83 186.348C1175.94 186.46 1176.16 186.383 1176.16 186.228C1176.16 186.045 1175.86 185.989 1175.8 186.158Z" fill="white"/>
<path d="M1199.7 186.165C1199.68 186.221 1199.71 186.32 1199.76 186.376C1199.85 186.474 1199.88 186.474 1199.98 186.369C1200.04 186.313 1200.08 186.214 1200.06 186.158C1200 186.017 1199.76 186.024 1199.7 186.165Z" fill="white"/>
<path d="M1203.9 186.221C1203.9 186.369 1203.93 186.404 1204.08 186.404C1204.23 186.404 1204.26 186.376 1204.24 186.242C1204.22 186.144 1204.16 186.08 1204.06 186.066C1203.93 186.045 1203.9 186.073 1203.9 186.221Z" fill="white"/>
<path d="M1159.31 186.509C1159.23 186.784 1159.17 186.868 1159.05 186.882C1158.86 186.91 1158.84 187.037 1159.03 187.037C1159.17 187.037 1159.17 187.086 1159.17 187.768C1159.17 188.478 1159.18 188.507 1159.36 188.647C1159.66 188.886 1160.02 188.689 1160.01 188.303L1160 188.127L1159.95 188.296C1159.9 188.5 1159.72 188.619 1159.57 188.563C1159.48 188.528 1159.46 188.401 1159.46 187.775V187.037H1159.7C1159.84 187.037 1159.95 187.016 1159.95 186.981C1159.95 186.952 1159.84 186.931 1159.72 186.931C1159.49 186.931 1159.49 186.924 1159.46 186.545L1159.42 186.158L1159.31 186.509Z" fill="white"/>
<path d="M1205.16 186.376C1205.16 186.622 1205.05 186.805 1204.83 186.924L1204.64 187.03L1204.83 187.037H1205.02V187.761C1205.02 188.521 1205.07 188.675 1205.35 188.753C1205.54 188.809 1205.77 188.612 1205.83 188.338C1205.86 188.197 1205.85 188.148 1205.81 188.197C1205.77 188.232 1205.73 188.331 1205.71 188.408C1205.7 188.507 1205.63 188.549 1205.52 188.549C1205.34 188.549 1205.34 188.549 1205.32 187.789L1205.3 187.037H1205.55C1205.7 187.037 1205.79 187.009 1205.76 186.967C1205.74 186.931 1205.63 186.917 1205.52 186.945L1205.3 186.981V186.587C1205.3 186.369 1205.28 186.193 1205.23 186.193C1205.2 186.193 1205.16 186.277 1205.16 186.376Z" fill="white"/>
<path d="M1155.77 187.079C1155.41 187.452 1155.38 188.12 1155.71 188.514C1156.03 188.907 1156.57 188.851 1156.76 188.401C1156.9 188.056 1156.83 188.014 1156.67 188.352C1156.39 188.921 1155.8 188.661 1155.8 187.979C1155.8 187.817 1155.82 187.81 1156.33 187.81H1156.85V187.613C1156.85 187.417 1156.7 187.142 1156.5 186.988C1156.31 186.833 1155.97 186.882 1155.77 187.079ZM1156.38 187.086C1156.44 187.156 1156.5 187.325 1156.52 187.459L1156.54 187.705L1156.17 187.726C1155.76 187.747 1155.75 187.733 1155.87 187.325C1155.97 186.959 1156.18 186.868 1156.38 187.086Z" fill="white"/>
<path d="M1157.64 187.009C1157.17 187.339 1157.15 188.274 1157.61 188.612C1157.89 188.816 1158.24 188.795 1158.44 188.556C1158.53 188.45 1158.61 188.296 1158.6 188.211C1158.6 188.064 1158.6 188.064 1158.53 188.232C1158.36 188.661 1157.95 188.802 1157.74 188.5C1157.61 188.324 1157.59 187.508 1157.69 187.227C1157.77 187.002 1158.01 186.924 1158.23 187.044C1158.43 187.149 1158.44 187.22 1158.29 187.367C1158.19 187.466 1158.19 187.487 1158.29 187.585C1158.37 187.677 1158.41 187.677 1158.5 187.599C1158.66 187.473 1158.64 187.269 1158.44 187.072C1158.24 186.868 1157.88 186.84 1157.64 187.009Z" fill="white"/>
<path d="M1160.33 186.981C1160.31 187.009 1160.36 187.037 1160.43 187.037C1160.57 187.037 1160.58 187.079 1160.58 187.81C1160.58 188.549 1160.57 188.591 1160.43 188.654C1160.3 188.703 1160.36 188.718 1160.67 188.718C1160.93 188.725 1161.07 188.696 1161.04 188.654C1161.01 188.612 1160.96 188.605 1160.92 188.626C1160.87 188.661 1160.85 188.471 1160.86 188.049C1160.9 186.981 1160.9 186.988 1160.61 186.952C1160.48 186.938 1160.35 186.952 1160.33 186.981Z" fill="white"/>
<path d="M1161.09 187.058C1161 187.149 1160.93 187.269 1160.93 187.325C1160.93 187.381 1160.99 187.339 1161.06 187.227C1161.17 187.037 1161.4 186.917 1161.47 186.995C1161.5 187.016 1161.46 187.1 1161.4 187.17C1161.26 187.318 1161.3 187.459 1161.45 187.459C1161.64 187.459 1161.73 187.262 1161.65 187.072C1161.54 186.847 1161.29 186.84 1161.09 187.058Z" fill="white"/>
<path d="M1162.02 186.967C1161.9 187.016 1161.9 187.03 1162.01 187.03C1162.11 187.037 1162.13 187.121 1162.13 187.838C1162.13 188.549 1162.11 188.647 1162.01 188.675C1161.94 188.696 1162.07 188.71 1162.3 188.71C1162.63 188.718 1162.69 188.703 1162.56 188.654C1162.41 188.591 1162.4 188.556 1162.42 187.824C1162.43 186.882 1162.39 186.805 1162.02 186.967Z" fill="white"/>
<path d="M1164.68 187.023C1164.44 187.206 1164.29 187.642 1164.34 187.993C1164.46 188.781 1165.34 189.062 1165.62 188.401C1165.76 188.057 1165.69 188.014 1165.53 188.352C1165.43 188.563 1165.36 188.626 1165.18 188.64C1165.05 188.654 1164.91 188.619 1164.85 188.549C1164.73 188.429 1164.62 187.972 1164.69 187.902C1164.71 187.881 1164.93 187.853 1165.17 187.839C1165.41 187.831 1165.63 187.817 1165.66 187.817C1165.74 187.81 1165.72 187.473 1165.64 187.297C1165.52 187.058 1165.28 186.896 1165.05 186.896C1164.93 186.896 1164.76 186.952 1164.68 187.023ZM1165.25 187.121C1165.31 187.213 1165.37 187.388 1165.4 187.508L1165.45 187.74H1164.64L1164.68 187.487C1164.73 187.213 1164.91 186.967 1165.05 186.967C1165.11 186.967 1165.19 187.037 1165.25 187.121Z" fill="white"/>
<path d="M1172.07 186.974C1172.06 187.002 1172.1 187.037 1172.17 187.051C1172.27 187.079 1172.29 187.17 1172.27 187.867C1172.25 188.528 1172.23 188.647 1172.13 188.675C1172.06 188.696 1172.2 188.71 1172.43 188.71C1172.77 188.717 1172.82 188.703 1172.68 188.647C1172.52 188.584 1172.51 188.556 1172.56 188.134C1172.61 187.613 1172.78 187.128 1172.96 187.037C1173.13 186.945 1173.17 186.945 1173.17 187.072C1173.17 187.128 1173.14 187.177 1173.1 187.177C1173.06 187.177 1173.03 187.241 1173.03 187.325C1173.03 187.431 1173.06 187.466 1173.19 187.445C1173.31 187.431 1173.35 187.367 1173.36 187.192C1173.38 187.037 1173.35 186.952 1173.28 186.924C1173.09 186.854 1172.82 186.959 1172.73 187.142C1172.65 187.311 1172.52 187.318 1172.54 187.156C1172.55 187.107 1172.55 187.037 1172.54 187.002C1172.54 186.924 1172.12 186.896 1172.07 186.974Z" fill="white"/>
<path d="M1173.97 187.072C1173.77 187.269 1173.77 187.438 1173.96 187.557C1174.05 187.614 1174.1 187.606 1174.17 187.543C1174.24 187.466 1174.23 187.431 1174.12 187.353C1173.96 187.227 1174.02 187.058 1174.26 186.995C1174.5 186.931 1174.72 187.128 1174.72 187.424C1174.72 187.635 1174.69 187.656 1174.31 187.761C1173.86 187.881 1173.77 187.958 1173.7 188.239C1173.64 188.457 1173.82 188.696 1174.09 188.76C1174.22 188.795 1174.33 188.76 1174.48 188.626C1174.68 188.457 1174.69 188.457 1174.77 188.591C1174.82 188.675 1174.93 188.725 1175.06 188.725C1175.27 188.725 1175.35 188.619 1175.34 188.352C1175.33 188.211 1175.33 188.211 1175.28 188.373C1175.26 188.471 1175.18 188.556 1175.12 188.57C1175.01 188.591 1175 188.521 1175 187.916C1175 187.29 1174.98 187.227 1174.82 187.072C1174.59 186.833 1174.21 186.833 1173.97 187.072ZM1174.72 187.986C1174.72 188.155 1174.65 188.296 1174.52 188.45C1174.34 188.647 1174.3 188.661 1174.17 188.591C1174.06 188.535 1174.01 188.443 1174.01 188.317C1174.01 188.049 1174.14 187.902 1174.43 187.824C1174.57 187.782 1174.69 187.747 1174.7 187.747C1174.71 187.74 1174.72 187.853 1174.72 187.986Z" fill="white"/>
<path d="M1175.69 186.981C1175.62 187.023 1175.63 187.037 1175.72 187.037C1175.83 187.037 1175.84 187.121 1175.84 187.839C1175.84 188.549 1175.83 188.647 1175.72 188.675C1175.65 188.696 1175.78 188.71 1176.02 188.71C1176.29 188.71 1176.39 188.696 1176.3 188.661C1176.17 188.612 1176.16 188.521 1176.12 187.775C1176.09 186.981 1176.08 186.945 1175.93 186.931C1175.85 186.924 1175.73 186.945 1175.69 186.981Z" fill="white"/>
<path d="M1176.68 186.981C1176.68 187.009 1176.73 187.037 1176.79 187.037C1176.9 187.037 1176.91 187.093 1176.89 187.979C1176.89 188.415 1176.86 188.563 1176.77 188.633C1176.67 188.703 1176.71 188.718 1177.07 188.725C1177.48 188.725 1177.49 188.725 1177.32 188.605C1177.17 188.5 1177.16 188.464 1177.2 187.965C1177.25 187.41 1177.35 187.17 1177.61 187.03C1177.87 186.896 1177.98 187.1 1178.01 187.74C1178.04 188.401 1177.99 188.633 1177.82 188.675C1177.76 188.696 1177.89 188.71 1178.13 188.71C1178.36 188.71 1178.5 188.696 1178.43 188.675C1178.34 188.654 1178.32 188.521 1178.29 187.916C1178.27 187.325 1178.24 187.163 1178.13 187.044C1177.95 186.84 1177.63 186.854 1177.42 187.072C1177.32 187.163 1177.24 187.227 1177.24 187.213C1177.23 187.192 1177.23 187.135 1177.22 187.093C1177.21 186.995 1176.68 186.882 1176.68 186.981Z" fill="white"/>
<path d="M1182.84 187.135C1182.46 187.536 1182.47 188.19 1182.85 188.542C1183.26 188.921 1183.77 188.802 1184 188.267C1184.2 187.831 1184.14 187.445 1183.82 187.128C1183.49 186.798 1183.15 186.805 1182.84 187.135ZM1183.55 187.072C1183.82 187.262 1183.86 188.296 1183.6 188.549C1183.44 188.703 1183.17 188.675 1183.05 188.492C1182.74 188 1182.92 186.967 1183.33 186.967C1183.37 186.967 1183.47 187.016 1183.55 187.072Z" fill="white"/>
<path d="M1184.52 186.974C1184.5 187.009 1184.53 187.037 1184.59 187.037C1184.69 187.037 1184.7 187.156 1184.7 187.81C1184.7 188.464 1184.68 188.584 1184.58 188.647C1184.48 188.703 1184.56 188.717 1184.88 188.717C1185.2 188.717 1185.26 188.703 1185.14 188.654C1185 188.598 1184.98 188.542 1184.98 188.148C1184.98 187.585 1185.09 187.213 1185.28 187.072C1185.47 186.938 1185.51 186.938 1185.64 187.079C1185.73 187.163 1185.76 187.346 1185.76 187.888C1185.76 188.549 1185.75 188.591 1185.6 188.654C1185.48 188.696 1185.55 188.717 1185.9 188.717C1186.28 188.717 1186.32 188.703 1186.2 188.64C1186.05 188.57 1186.04 188.514 1186.04 187.993C1186.04 187.459 1186.05 187.402 1186.24 187.177C1186.42 186.974 1186.47 186.945 1186.58 187.009C1186.68 187.079 1186.7 187.199 1186.73 187.867C1186.74 188.563 1186.73 188.647 1186.62 188.675C1186.55 188.696 1186.68 188.71 1186.92 188.71C1187.15 188.71 1187.29 188.696 1187.23 188.675C1187.05 188.605 1187.02 188.499 1187.02 187.824C1187.02 187.269 1187 187.156 1186.88 187.037C1186.68 186.833 1186.41 186.861 1186.17 187.114C1186.04 187.248 1185.97 187.29 1185.97 187.234C1185.97 187.072 1185.73 186.896 1185.52 186.896C1185.4 186.896 1185.27 186.967 1185.17 187.079L1185.02 187.262L1184.98 187.1C1184.94 186.938 1184.6 186.84 1184.52 186.974Z" fill="white"/>
<path d="M1187.61 186.981C1187.59 187.009 1187.64 187.037 1187.72 187.037C1187.86 187.037 1187.86 187.072 1187.86 188.253C1187.86 189.449 1187.86 189.477 1187.71 189.554C1187.58 189.618 1187.63 189.632 1188.01 189.632C1188.35 189.632 1188.42 189.611 1188.31 189.568C1188.16 189.512 1188.15 189.456 1188.15 189.048V188.598L1188.36 188.703C1189.16 189.097 1189.66 187.564 1188.92 186.988C1188.76 186.854 1188.44 186.882 1188.29 187.037C1188.17 187.149 1188.15 187.156 1188.15 187.072C1188.15 186.959 1188.14 186.952 1187.84 186.938C1187.73 186.931 1187.63 186.952 1187.61 186.981ZM1188.78 187.107C1188.89 187.22 1188.92 187.339 1188.92 187.768C1188.92 188.436 1188.84 188.654 1188.6 188.654C1188.28 188.654 1188.15 188.429 1188.15 187.888C1188.15 187.466 1188.17 187.367 1188.33 187.185C1188.54 186.931 1188.59 186.917 1188.78 187.107Z" fill="white"/>
<path d="M1189.91 187.065C1189.71 187.276 1189.75 187.599 1189.97 187.599C1190.16 187.599 1190.23 187.452 1190.09 187.353C1189.93 187.241 1189.95 187.128 1190.12 187.037C1190.27 186.952 1190.54 187.009 1190.62 187.135C1190.65 187.177 1190.68 187.318 1190.68 187.438C1190.68 187.677 1190.69 187.67 1190.14 187.782C1189.87 187.831 1189.67 188.056 1189.67 188.303C1189.67 188.732 1190.16 188.914 1190.48 188.598C1190.62 188.464 1190.62 188.464 1190.79 188.633C1190.95 188.795 1190.98 188.802 1191.12 188.703C1191.21 188.647 1191.28 188.521 1191.29 188.401C1191.3 188.204 1191.3 188.204 1191.25 188.373C1191.22 188.471 1191.14 188.556 1191.08 188.57C1190.97 188.591 1190.96 188.521 1190.96 187.916C1190.96 187.29 1190.94 187.227 1190.78 187.072C1190.55 186.833 1190.13 186.833 1189.91 187.065ZM1190.68 187.993C1190.68 188.331 1190.33 188.703 1190.12 188.584C1189.95 188.499 1189.93 188.183 1190.07 188.007C1190.11 187.944 1190.26 187.86 1190.4 187.824C1190.53 187.782 1190.65 187.747 1190.66 187.747C1190.67 187.74 1190.68 187.853 1190.68 187.993Z" fill="white"/>
<path d="M1191.62 186.974C1191.61 187.002 1191.65 187.037 1191.72 187.051C1191.82 187.079 1191.84 187.17 1191.82 187.867C1191.8 188.528 1191.77 188.647 1191.68 188.675C1191.61 188.696 1191.75 188.71 1191.98 188.71C1192.21 188.71 1192.35 188.696 1192.3 188.675C1192.13 188.612 1192.08 188.5 1192.08 188.162C1192.09 187.452 1192.38 186.896 1192.7 186.995C1192.88 187.051 1192.91 187.156 1192.92 187.881C1192.93 188.493 1192.9 188.605 1192.72 188.675C1192.66 188.696 1192.8 188.71 1193.03 188.71C1193.27 188.71 1193.41 188.696 1193.34 188.675C1193.24 188.654 1193.22 188.521 1193.2 187.916C1193.17 187.325 1193.15 187.163 1193.04 187.044C1192.86 186.84 1192.56 186.861 1192.3 187.086C1192.16 187.199 1192.08 187.234 1192.08 187.17C1192.09 187.114 1192.1 187.037 1192.09 187.002C1192.08 186.924 1191.67 186.903 1191.62 186.974Z" fill="white"/>
<path d="M1193.74 186.974C1193.6 187.023 1193.6 187.03 1193.75 187.03C1193.91 187.037 1193.98 187.17 1194.36 188.359C1194.55 188.936 1194.56 188.936 1194.43 189.203C1194.29 189.484 1194 189.625 1194.08 189.371C1194.11 189.287 1194.08 189.203 1194.01 189.139C1193.91 189.062 1193.88 189.062 1193.81 189.168C1193.61 189.435 1193.86 189.702 1194.23 189.611C1194.45 189.554 1194.51 189.442 1194.86 188.303C1195.21 187.206 1195.28 187.037 1195.44 187.037C1195.5 187.037 1195.53 187.016 1195.51 186.988C1195.48 186.967 1195.33 186.945 1195.18 186.945C1195.02 186.945 1194.88 186.967 1194.85 186.988C1194.83 187.016 1194.85 187.037 1194.92 187.037C1195 187.037 1195.04 187.093 1195.04 187.185C1195.04 187.417 1194.74 188.387 1194.69 188.324C1194.62 188.253 1194.26 187.22 1194.26 187.114C1194.26 187.072 1194.33 187.037 1194.42 187.037C1194.5 187.037 1194.55 187.016 1194.52 186.981C1194.45 186.91 1193.91 186.903 1193.74 186.974Z" fill="white"/>
<path d="M1199.68 186.974C1199.57 187.002 1199.55 187.023 1199.63 187.03C1199.73 187.037 1199.75 187.121 1199.75 187.81C1199.75 188.464 1199.73 188.584 1199.63 188.647C1199.53 188.703 1199.61 188.717 1199.92 188.717C1200.25 188.717 1200.31 188.703 1200.19 188.654C1200.04 188.591 1200.03 188.556 1200.03 187.782C1200.03 186.924 1200.01 186.875 1199.68 186.974Z" fill="white"/>
<path d="M1200.62 186.974C1200.61 187.002 1200.65 187.037 1200.72 187.051C1200.82 187.079 1200.84 187.17 1200.82 187.867C1200.8 188.528 1200.78 188.647 1200.68 188.675C1200.61 188.696 1200.75 188.71 1200.98 188.71C1201.21 188.71 1201.35 188.696 1201.3 188.675C1201.13 188.612 1201.09 188.5 1201.09 188.162C1201.09 187.698 1201.19 187.325 1201.37 187.135C1201.56 186.938 1201.6 186.931 1201.75 187.079C1201.84 187.163 1201.86 187.346 1201.86 187.916C1201.86 188.549 1201.84 188.647 1201.74 188.675C1201.67 188.696 1201.8 188.71 1202.03 188.71C1202.35 188.718 1202.41 188.703 1202.3 188.654C1202.15 188.598 1202.14 188.542 1202.14 188.092C1202.14 187.529 1202.27 187.156 1202.5 187.03C1202.64 186.96 1202.67 186.967 1202.79 187.107C1202.89 187.234 1202.91 187.388 1202.91 187.923C1202.91 188.549 1202.91 188.591 1202.76 188.654C1202.64 188.703 1202.7 188.718 1203.02 188.71C1203.25 188.71 1203.39 188.696 1203.32 188.675C1203.23 188.654 1203.2 188.528 1203.18 187.916C1203.17 187.325 1203.14 187.163 1203.03 187.044C1202.84 186.833 1202.53 186.854 1202.3 187.086C1202.18 187.22 1202.11 187.255 1202.09 187.192C1201.97 186.861 1201.58 186.805 1201.28 187.086L1201.09 187.276V187.1C1201.09 186.96 1201.05 186.931 1200.87 186.931C1200.75 186.931 1200.64 186.952 1200.62 186.974Z" fill="white"/>
<path d="M1203.79 186.974C1203.67 187.023 1203.67 187.03 1203.81 187.03C1203.96 187.037 1203.97 187.058 1203.97 187.81C1203.97 188.549 1203.96 188.591 1203.81 188.654C1203.69 188.703 1203.75 188.718 1204.07 188.718C1204.42 188.725 1204.47 188.71 1204.37 188.633C1204.28 188.563 1204.25 188.401 1204.24 187.747C1204.21 186.988 1204.21 186.945 1204.07 186.931C1203.99 186.924 1203.86 186.945 1203.79 186.974Z" fill="white"/>
<path d="M1206.46 187.135C1206.22 187.374 1206.18 187.529 1206.21 187.986C1206.25 188.429 1206.6 188.795 1206.99 188.795C1207.2 188.795 1207.55 188.422 1207.55 188.218C1207.54 188.057 1207.54 188.057 1207.46 188.239C1207.32 188.542 1207.2 188.654 1206.98 188.654C1206.75 188.654 1206.58 188.443 1206.56 188.092L1206.53 187.846L1207.06 187.839C1207.35 187.839 1207.59 187.803 1207.59 187.768C1207.57 186.988 1206.95 186.643 1206.46 187.135ZM1207.09 187.1C1207.15 187.17 1207.23 187.346 1207.25 187.487L1207.29 187.747L1206.91 187.726C1206.54 187.705 1206.53 187.705 1206.56 187.494C1206.58 187.241 1206.75 186.967 1206.88 186.967C1206.93 186.967 1207.03 187.023 1207.09 187.1Z" fill="white"/>
<path d="M1143.08 188.436C1143.02 188.542 1143.03 188.598 1143.11 188.682C1143.3 188.872 1143.52 188.767 1143.48 188.506C1143.45 188.289 1143.18 188.239 1143.08 188.436Z" fill="white"/>
<path d="M1146.97 188.457C1146.92 188.598 1147.07 188.795 1147.23 188.795C1147.33 188.795 1147.44 188.584 1147.4 188.443C1147.33 188.246 1147.04 188.253 1146.97 188.457Z" fill="white"/>
<path d="M1355 180L1379.22 204H1495V156H1379.22L1355 180ZM1398.74 168.435C1400.49 169.003 1402.13 169.954 1403.05 170.927C1405.67 173.742 1405.95 178.481 1403.7 181.863C1401.95 184.516 1399.08 185.711 1394.02 185.914L1391.18 186.035V192.051H1385.25V167.909L1391.44 167.99C1396.61 168.071 1397.8 168.132 1398.74 168.435ZM1416.42 174.329C1418.75 177.833 1420.69 180.709 1420.71 180.709C1420.73 180.709 1422.67 177.833 1425.02 174.329L1429.29 167.949L1431.54 168.01L1433.79 168.051V191.949L1427.76 192.071L1427.72 186.096L1427.66 180.122L1425.02 184.152L1422.4 188.203H1419.07L1413.76 180.061L1413.7 186.056L1413.66 192.051H1407.73V167.949H1412.19L1416.42 174.329ZM1451.57 168.435C1456.74 169.894 1459.93 173.276 1460.66 178.157C1461.58 184.253 1458.03 189.661 1451.88 191.463C1450.49 191.868 1449.79 191.909 1444.17 191.99L1437.98 192.091V167.909L1444.17 167.99C1449.18 168.071 1450.57 168.152 1451.57 168.435ZM1476.01 168.233C1478.28 168.638 1480.02 169.529 1481.37 170.987C1483.02 172.749 1483.45 173.924 1483.45 176.881C1483.45 179.17 1483.43 179.23 1482.68 180.749C1481.47 183.18 1479.49 184.699 1476.5 185.468C1475.83 185.63 1474.01 185.833 1472.48 185.914L1469.66 186.035V192.071L1463.63 191.949L1463.57 179.939L1463.53 167.949H1468.98C1472.68 167.97 1474.97 168.051 1476.01 168.233Z" fill="white"/>
<path d="M1391.22 176.901L1391.28 180.608L1393.1 180.668C1396.31 180.77 1397.96 180.142 1398.74 178.562C1399.19 177.651 1399.27 176.071 1398.92 175.382C1398.08 173.762 1396.67 173.215 1393.38 173.215H1391.18L1391.22 176.901Z" fill="white"/>
<path d="M1444.11 186.582H1446.42C1449.87 186.582 1451.59 185.954 1453.18 184.132C1454.21 182.937 1454.84 180.891 1454.66 179.352C1454.47 177.711 1453.82 176.395 1452.67 175.342C1451.02 173.803 1450.2 173.539 1446.93 173.458L1444.11 173.377V186.582Z" fill="white"/>
<path d="M1469.66 180.77L1472.17 180.668C1475.52 180.527 1476.67 179.98 1477.34 178.137C1477.95 176.395 1477.38 174.775 1475.83 173.863C1474.95 173.357 1474.66 173.316 1472.27 173.235L1469.66 173.175V180.77Z" fill="white"/>
<path d="M620 179.625V208.249L637.448 208.161C652.739 208.095 655.137 208.051 656.963 207.699C662.64 206.687 666.314 204.927 669.042 201.935C671.309 199.471 672.365 196.5 672.365 192.562C672.365 188.36 671.265 185.323 668.69 182.463C667.612 181.275 664.994 179.537 663.3 178.921L661.98 178.459L662.706 178.063C664.224 177.271 666.094 175.51 667.216 173.86C668.778 171.506 669.329 169.768 669.439 166.644C669.637 162.133 668.668 159.581 665.676 156.633C663.542 154.521 662.068 153.618 659.208 152.65C654.807 151.176 654.675 151.154 636.458 151.066L620 151V179.625ZM650.209 161.341C652.013 161.737 653.817 162.683 654.741 163.695C656.281 165.346 656.699 168.074 655.731 170.34C655.027 172.078 652.849 173.552 650.209 174.146C649.637 174.278 645.566 174.432 641.188 174.498L633.201 174.608V167.744V160.879L641.188 160.989C645.654 161.055 649.615 161.209 650.209 161.341ZM650.561 184.245C653.223 184.487 654.653 184.905 656.215 185.895C658.173 187.15 658.988 188.712 658.988 191.308C658.988 194.564 657.403 196.588 654.125 197.579C652.233 198.129 649.043 198.327 641.078 198.327H633.201V191.176V184.025H640.748C644.884 184.047 649.307 184.135 650.561 184.245Z" fill="#0F0F0F"/>
<path d="M666.556 151.506C669.702 153.839 671.881 157.117 672.585 160.527L672.827 161.803H679.603H686.38L686.512 164.818C686.71 169.746 687.832 172.474 690.846 175.466C692.122 176.743 692.98 177.359 694.389 178.063C697.359 179.537 698.129 179.625 707.964 179.625H716.589V180.659C716.589 182.485 715.775 185.763 714.872 187.634C713.09 191.33 710.78 193.662 707.282 195.334C703.277 197.248 701.341 197.446 686.666 197.446H675.995L675.621 198.987C674.895 202.045 672.805 205.191 670.186 207.149L668.734 208.249L686.116 208.161C704.62 208.073 704.355 208.073 708.8 206.929C720.285 203.981 728.162 195.334 729.68 184.025C732.056 166.556 721.011 153.112 702.749 151.264C701.363 151.11 693.751 151.022 683.212 151.022H665.918L666.556 151.506Z" fill="#0F0F0F"/>
<rect x="125" y="580" width="100" height="100" rx="50" fill="#1E1E1E"/>
<g filter="url(#filter4_d_219_55)">
<rect x="575" y="530" width="200" height="200" rx="100" fill="#FF0000"/>
</g>
<g filter="url(#filter5_d_219_55)">
<rect x="825" y="530" width="200" height="200" rx="100" fill="#5E26C0"/>
</g>
<g opacity="0.8" filter="url(#filter6_d_219_55)">
<rect x="1075" y="530" width="200" height="200" rx="100" fill="#820E0E"/>
</g>
<g filter="url(#filter7_d_219_55)">
<rect x="1325" y="530" width="200" height="200" rx="100" fill="#0071B7"/>
</g>
<rect x="1600" y="555" width="150" height="150" rx="75" fill="#1E1E1E"/>
<rect x="1875" y="580" width="100" height="100" rx="50" fill="#1E1E1E"/>
<path fill-rule="evenodd" clip-rule="evenodd" d="M902.645 621.22C902.645 619.647 903.921 618.371 905.494 618.371C907.068 618.371 908.343 619.647 908.343 621.22V623.799C908.343 625.643 909.838 627.138 911.682 627.138C913.212 627.138 914.502 626.07 915.198 624.707C917.121 620.946 921.034 618.371 925.548 618.371C931.963 618.371 937.164 623.572 937.164 629.987C937.164 636.402 931.963 641.603 925.548 641.603C921.034 641.603 917.121 639.028 915.198 635.266C914.502 633.904 913.212 632.836 911.682 632.836C909.838 632.836 908.343 634.331 908.343 636.175V638.754C908.343 640.327 907.068 641.603 905.494 641.603C903.921 641.603 902.645 640.327 902.645 638.754L902.645 632.836V627.138L902.645 621.22ZM925.548 637.042C921.651 637.042 918.493 633.883 918.493 629.987C918.493 626.09 921.651 622.932 925.548 622.932C929.444 622.932 932.603 626.09 932.603 629.987C932.603 633.883 929.444 637.042 925.548 637.042Z" fill="white"/>
<path d="M902.645 618.371L905.494 618.371V641.603H902.645V618.371Z" fill="white"/>
<path d="M944.612 620.835C944.074 619.357 942.439 618.594 940.96 619.132C939.482 619.671 938.719 621.306 939.257 622.784L941.216 628.166C941.643 629.339 941.643 630.625 941.216 631.799L939.234 637.244C938.696 638.723 939.458 640.358 940.937 640.896C942.416 641.434 944.051 640.672 944.589 639.193L946.902 632.836L947.392 631.491C947.451 631.328 947.579 631.2 947.741 631.141C948.045 631.031 948.201 630.696 948.091 630.393L948.028 630.221C947.972 630.067 947.972 629.898 948.028 629.743L948.081 629.599C948.184 629.316 948.038 629.003 947.755 628.9C947.603 628.845 947.484 628.726 947.429 628.574L946.906 627.138L944.612 620.835Z" fill="white"/>
<path fill-rule="evenodd" clip-rule="evenodd" d="M967.957 621.001C967.957 619.427 969.233 618.152 970.806 618.152L973.655 618.152L979.025 618.152H981.874C983.448 618.152 984.723 619.427 984.723 621.001V630.502C984.723 630.762 984.934 630.973 985.195 630.973C985.721 630.973 986.148 631.4 986.148 631.926V640.324C986.148 641.151 985.477 641.822 984.65 641.822H981.948C981.12 641.822 980.449 641.151 980.449 640.324V638.169C980.449 637.342 979.779 636.671 978.951 636.671H973.619C972.792 636.671 972.121 637.342 972.121 638.169V640.105C972.121 640.932 971.45 641.603 970.623 641.603H967.921C967.093 641.603 966.423 640.932 966.423 640.105V631.926C966.423 631.4 966.85 630.973 967.376 630.973C967.697 630.973 967.957 630.713 967.957 630.392V621.001ZM973.655 629.475C973.655 630.302 974.326 630.973 975.153 630.973H977.527C978.354 630.973 979.025 630.302 979.025 629.475V626.535C979.025 625.052 977.823 623.85 976.34 623.85C974.857 623.85 973.655 625.052 973.655 626.535V629.475Z" fill="white"/>
<path d="M875.256 633.501C871.797 632.435 871.797 627.539 875.256 626.473L901.549 618.371V641.603L875.256 633.501Z" fill="white"/>
<path d="M959.738 631.474V628.5C959.738 627.747 959.128 627.138 958.376 627.138H956.627L956.361 627.868C956.23 628.229 955.947 628.512 955.587 628.643C954.914 628.888 954.567 629.632 954.812 630.305L955.733 632.836H958.376C959.128 632.836 959.738 632.226 959.738 631.474Z" fill="white"/>
<path d="M952.787 618.371H949.813C949.061 618.371 948.451 618.981 948.451 619.733V625.776C948.451 626.528 947.841 627.138 947.089 627.138H946.906L947.429 628.574C947.484 628.726 947.603 628.845 947.755 628.9C948.038 629.003 948.184 629.316 948.081 629.599L948.028 629.743C947.972 629.898 947.972 630.067 948.028 630.221L948.091 630.393C948.201 630.696 948.045 631.031 947.741 631.141C947.579 631.2 947.451 631.328 947.392 631.491L946.902 632.836H947.089C947.841 632.836 948.451 633.446 948.451 634.198V640.241C948.451 640.993 949.061 641.603 949.813 641.603H952.787C953.54 641.603 954.149 640.993 954.149 640.241V634.198C954.149 633.446 954.759 632.836 955.511 632.836H955.733L954.812 630.305C954.567 629.632 954.914 628.888 955.587 628.643C955.947 628.512 956.23 628.229 956.361 627.868L956.627 627.138H955.511C954.759 627.138 954.149 626.528 954.149 625.776V619.733C954.149 618.981 953.54 618.371 952.787 618.371Z" fill="white"/>
<path d="M959.738 628.5V631.474C959.738 632.226 959.128 632.836 958.376 632.836H955.733L958.047 639.193C958.585 640.672 960.22 641.434 961.699 640.896C963.177 640.358 963.94 638.723 963.402 637.244L961.868 633.032C961.441 631.858 961.441 630.572 961.868 629.399L964.278 622.778C964.816 621.299 964.054 619.664 962.575 619.126C961.097 618.588 959.462 619.35 958.923 620.829L956.627 627.138H958.376C959.128 627.138 959.738 627.747 959.738 628.5Z" fill="white"/>
<path d="M1204.97 673.978L1177.63 612.44C1176.42 609.708 1172.58 609.708 1171.37 612.44L1144.16 673.678L1143.74 674H1135.22L1174.5 585.614L1213.78 674H1205L1204.97 673.978ZM1172 652.23L1147.49 671.115L1173.2 613.252C1173.71 612.103 1175.29 612.103 1175.8 613.252L1201.63 671.381L1177 652.241C1175.52 651.097 1173.48 651.092 1172 652.23Z" stroke="white" stroke-width="2"/>
<path d="M1419.58 587.258C1408.2 587.932 1396.56 590.887 1387.35 595.451C1385.92 596.155 1384.54 596.859 1384.28 597.012C1384.04 597.166 1383.14 597.686 1382.29 598.191C1377.58 600.963 1374.27 603.643 1369.91 608.236C1366.34 611.973 1363.37 617.102 1361.88 622.079C1361.02 624.958 1360.87 626.152 1360.86 630.118C1360.86 633.471 1360.89 634.053 1361.21 635.554C1361.67 637.743 1362.8 641.173 1363.58 642.827C1364.24 644.159 1365.96 647.283 1366.12 647.421C1366.17 647.467 1366.43 647.804 1366.67 648.187C1368.88 651.494 1373.18 655.797 1377.39 658.89C1380.33 661.064 1384.85 663.683 1388.36 665.275C1389.57 665.827 1390.7 666.332 1390.87 666.408C1391.04 666.485 1391.56 666.699 1392.02 666.883C1402.66 671.017 1414.51 673.039 1426.39 672.778C1434.86 672.579 1441.29 671.676 1449.13 669.563C1455.49 667.863 1463.63 664.357 1468.49 661.248C1474.6 657.328 1478.35 653.944 1482.56 648.569C1485.21 645.185 1487.73 639.612 1488.55 635.309C1489.47 630.547 1489.22 625.494 1487.86 621.16C1487.34 619.476 1486.36 616.965 1485.84 616.015C1484.43 613.412 1483.95 612.662 1482.53 610.748C1480.68 608.282 1476.71 604.194 1474.38 602.356C1471 599.692 1465.79 596.492 1462.07 594.792C1454.8 591.454 1448.78 589.662 1440.25 588.254C1433.99 587.228 1426.36 586.86 1419.58 587.258ZM1433.21 591.898C1439.03 592.602 1444.89 593.981 1449.44 595.711C1459.97 599.753 1467.63 605.557 1472.81 613.427C1474.96 616.72 1476.19 619.598 1477.06 623.457C1478.38 629.276 1477.69 635.845 1475.13 641.679C1474.18 643.853 1472.3 646.931 1470.77 648.799C1469.64 650.208 1466.93 653.163 1466.11 653.852C1465.59 654.312 1464.9 654.909 1464.61 655.169C1464.31 655.429 1463.39 656.134 1462.56 656.746C1455.61 661.876 1446.85 665.551 1437.51 667.251C1428.49 668.889 1418.63 668.736 1409.78 666.852C1400.97 664.954 1392.68 661.202 1386.24 656.195C1383.78 654.281 1380.18 650.591 1378.22 647.957C1376.6 645.783 1374.73 642.138 1373.8 639.336C1371.61 632.798 1371.79 626.213 1374.3 619.675C1375.8 615.831 1377.65 612.8 1380.56 609.492C1382.57 607.21 1385.6 604.408 1387.5 603.076C1387.76 602.908 1388.31 602.525 1388.72 602.234C1396.53 596.798 1406.85 593.077 1417.28 591.929C1418.51 591.791 1419.72 591.653 1419.96 591.622C1421.2 591.454 1431.26 591.668 1433.21 591.898Z" fill="white"/>
<path d="M1421.19 601.193C1420.27 601.269 1418.51 601.514 1417.28 601.729C1410.27 602.954 1404.44 605.296 1398.37 609.308C1396.46 610.564 1395.85 611.13 1395.85 611.636C1395.85 611.988 1397.88 614.76 1398.66 615.449C1399.09 615.847 1399.87 615.801 1400.39 615.357C1401.04 614.821 1401.53 614.729 1401.97 615.081C1402.4 615.433 1402.35 614.346 1402.6 632.308C1402.74 643.042 1402.74 645.522 1402.58 645.828C1402.32 646.288 1401.65 646.318 1401.1 645.89C1400.29 645.247 1399.95 645.43 1398.39 647.329C1396.56 649.549 1396.5 649.718 1397.16 650.376C1397.67 650.882 1400.62 652.643 1402.72 653.699C1415.78 660.222 1432.04 660.59 1444.16 654.618C1451.25 651.127 1454.94 646.364 1454.95 640.714C1454.95 637.238 1453.8 634.314 1451.35 631.664C1450.01 630.194 1447.72 628.801 1445.69 628.219C1445.18 628.066 1444.68 627.928 1444.58 627.882C1444.17 627.76 1444.42 627.423 1445.3 626.856C1448.83 624.575 1451 619.874 1450.51 615.556C1449.96 610.794 1447.02 607.21 1441.4 604.47C1438.31 602.969 1435.32 602.066 1431.32 601.468C1428.95 601.116 1423.76 600.963 1421.19 601.193ZM1427.62 607.976C1433.64 610.028 1435.5 617.837 1431.06 622.324C1428.75 624.651 1427.08 625.126 1421.31 625.034L1418.05 624.988L1417.57 624.498L1417.08 624.008L1416.95 620.67C1416.87 618.833 1416.84 615.495 1416.85 613.244C1416.9 609.186 1416.9 609.155 1417.27 608.772C1418.09 607.9 1420.41 607.455 1423.79 607.517C1426.15 607.563 1426.5 607.593 1427.62 607.976ZM1430.45 631.925C1437.37 633.977 1440.3 641.908 1436.29 647.804C1435.32 649.228 1433.57 650.621 1431.95 651.264C1430.07 651.999 1428.55 652.229 1425.24 652.229C1420.42 652.244 1418.29 651.678 1417.73 650.238C1417.54 649.748 1417.31 642.674 1417.3 636.641C1417.28 633.089 1417.3 632.951 1417.62 632.476C1417.82 632.2 1418.11 631.925 1418.28 631.864C1418.69 631.695 1424.31 631.527 1427.16 631.588C1428.87 631.619 1429.7 631.695 1430.45 631.925Z" fill="white"/>
<path fill-rule="evenodd" clip-rule="evenodd" d="M723.059 605.821C718.588 603.419 713.517 602.218 707.845 602.218H642.255C636.516 602.218 631.411 603.419 626.94 605.821C622.536 608.157 619.033 611.427 616.43 615.631C613.894 619.768 612.626 624.539 612.626 629.944C612.626 635.283 613.894 640.054 616.43 644.258C619.033 648.395 622.536 651.665 626.94 654.067C631.411 656.47 636.516 657.671 642.255 657.671H707.845C713.517 657.671 718.588 656.47 723.059 654.067C727.53 651.665 731.033 648.395 733.57 644.258C736.105 640.054 737.374 635.283 737.374 629.944C737.374 624.472 736.105 619.668 733.57 615.531C731.033 611.393 727.53 608.157 723.059 605.821ZM642.255 644.859C639.652 644.859 637.317 644.258 635.248 643.057C633.179 641.856 631.511 640.154 630.243 637.952C629.042 635.683 628.442 633.014 628.442 629.944C628.442 626.808 629.042 624.139 630.243 621.937C631.511 619.735 633.179 618.033 635.248 616.832C637.317 615.631 639.652 615.03 642.255 615.03H707.845C710.447 615.03 712.783 615.631 714.852 616.832C716.92 618.033 718.555 619.735 719.756 621.937C720.957 624.139 721.558 626.808 721.558 629.944C721.558 633.014 720.957 635.683 719.756 637.952C718.555 640.154 716.92 641.856 714.852 643.057C712.783 644.258 710.447 644.859 707.845 644.859H642.255Z" fill="white"/>
<g filter="url(#filter8_d_219_55)">
<rect x="225" y="330" width="150" height="150" rx="75" fill="#EA3030"/>
</g>
<path d="M255 410.6H278.906L302.812 399.401H255V391.001H302.812L271.875 377H292.969L321.094 391.001H345V399.401H321.094L297.188 410.6H345V419H297.188L328.125 433H307.031L278.906 419H255V410.6Z" fill="white"/>
<rect y="355" width="100" height="100" rx="50" fill="#1E1E1E"/>
<g filter="url(#filter9_d_219_55)">
<rect x="450" y="305" width="200" height="200" rx="100" fill="#020FFF"/>
</g>
<g filter="url(#filter10_d_219_55)">
<rect x="700" y="305" width="200" height="200" rx="100" fill="#09CBCB"/>
</g>
<g filter="url(#filter11_d_219_55)">
<rect x="950" y="305" width="200" height="200" rx="100" fill="#AD00FF"/>
</g>
<g filter="url(#filter12_d_219_55)">
<rect x="1200" y="305" width="200" height="200" rx="100" fill="#69D87D"/>
</g>
<g filter="url(#filter13_d_219_55)">
<rect x="1450" y="305" width="200" height="200" rx="100" fill="#4998E2"/>
</g>
<g filter="url(#filter14_d_219_55)">
<rect x="1725" y="330" width="150" height="150" rx="75" fill="#38B6FF"/>
</g>
<path d="M1753.49 422L1768.32 388.4H1777.68L1792.56 422H1782.68L1771.06 393.056H1774.8L1763.19 422H1753.49ZM1761.6 415.472L1764.05 408.464H1780.47L1782.92 415.472H1761.6ZM1801.69 422L1790.79 388.4H1800.58L1809.75 417.488H1804.81L1814.46 388.4H1823.19L1832.31 417.488H1827.56L1837.02 388.4H1846.09L1835.19 422H1825.02L1817.24 397.28H1819.98L1811.86 422H1801.69Z" fill="white"/>
<rect x="2000" y="355" width="100" height="100" rx="50" fill="#1E1E1E"/>
<path d="M1279.66 389.69C1281.13 388.371 1283.47 389.178 1283.82 391.119L1289.14 421.344C1289.48 423.227 1287.66 424.774 1285.85 424.151L1257.71 414.465C1255.9 413.843 1255.42 411.508 1256.84 410.229L1279.66 389.69Z" fill="white"/>
<path d="M1314.72 383.086C1315.36 381.032 1318.13 380.692 1319.25 382.529L1343.48 422.103C1344.43 423.66 1343.46 425.68 1341.64 425.902L1303.49 430.584C1301.68 430.806 1300.24 429.082 1300.79 427.341L1314.72 383.086Z" fill="white"/>
<path d="M1275.26 350.991C1274.13 349.24 1275.51 346.954 1277.58 347.13L1317.08 350.487C1318.93 350.644 1319.98 352.687 1319.02 354.279L1301.03 384.196C1300.07 385.787 1297.78 385.825 1296.77 384.265L1275.26 350.991Z" fill="white"/>
<path d="M1267.91 458.004C1266.75 458.004 1265.82 457.067 1265.82 455.91V443.582C1265.82 442.003 1267.1 440.722 1268.68 440.722H1275.95C1276.89 440.722 1277.65 441.482 1277.65 442.418C1277.65 443.355 1276.89 444.114 1275.95 444.114H1271.78C1270.8 444.114 1270.01 444.908 1270.01 445.887C1270.01 446.865 1270.8 447.659 1271.78 447.659H1275.19C1276.13 447.659 1276.9 448.42 1276.9 449.359C1276.9 450.298 1276.13 451.059 1275.19 451.059H1272.87C1271.29 451.059 1270.01 452.34 1270.01 453.919V455.91C1270.01 457.067 1269.07 458.004 1267.91 458.004Z" fill="white"/>
<path d="M1281.83 458.004C1280.68 458.004 1279.76 457.078 1279.76 455.935V447.112C1279.76 445.969 1280.68 445.043 1281.83 445.043C1282.97 445.043 1283.9 445.969 1283.9 447.112V455.935C1283.9 457.078 1282.97 458.004 1281.83 458.004ZM1281.83 443.532C1281.25 443.532 1280.75 443.341 1280.33 442.958C1279.92 442.57 1279.71 442.103 1279.71 441.558C1279.71 441.018 1279.92 440.556 1280.33 440.174C1280.75 439.786 1281.25 439.591 1281.83 439.591C1282.42 439.591 1282.92 439.786 1283.33 440.174C1283.75 440.556 1283.96 441.018 1283.96 441.558C1283.96 442.103 1283.75 442.57 1283.33 442.958C1282.92 443.341 1282.42 443.532 1281.83 443.532Z" fill="white"/>
<path d="M1296.32 445.043C1297.7 445.043 1298.67 446.402 1298.22 447.707L1295.34 456.075C1294.95 457.229 1293.86 458.004 1292.64 458.004H1291.98C1290.76 458.004 1289.67 457.229 1289.28 456.073L1286.4 447.706C1285.96 446.401 1286.93 445.043 1288.31 445.043C1289.21 445.043 1290.01 445.654 1290.25 446.532L1292.22 453.905C1292.24 453.944 1292.27 453.971 1292.31 453.971C1292.35 453.971 1292.39 453.944 1292.4 453.905L1294.38 446.53C1294.62 445.653 1295.41 445.043 1296.32 445.043Z" fill="white"/>
<path d="M1306.38 458.249C1305.02 458.249 1303.85 457.982 1302.86 457.447C1301.88 456.907 1301.13 456.139 1300.6 455.144C1300.07 454.142 1299.81 452.952 1299.81 451.574C1299.81 450.235 1300.07 449.065 1300.6 448.064C1301.13 447.057 1301.88 446.275 1302.85 445.718C1303.81 445.155 1304.95 444.874 1306.26 444.874C1307.18 444.874 1308.03 445.017 1308.8 445.304C1309.56 445.591 1310.23 446.016 1310.78 446.579C1311.34 447.141 1311.78 447.836 1312.09 448.663C1312.4 449.484 1312.55 450.426 1312.55 451.49C1312.55 452.058 1312.09 452.519 1311.52 452.519H1302.45C1301.79 452.519 1301.26 451.983 1301.26 451.321C1301.26 450.659 1301.79 450.123 1302.45 450.123H1307.47C1308.15 450.123 1308.73 449.531 1308.39 448.95C1308.19 448.607 1307.91 448.339 1307.55 448.148C1307.2 447.951 1306.8 447.853 1306.34 447.853C1305.88 447.853 1305.46 447.957 1305.1 448.165C1304.73 448.367 1304.44 448.646 1304.23 449C1304.01 449.349 1303.9 449.746 1303.89 450.19V452.629C1303.89 453.158 1303.99 453.622 1304.2 454.021C1304.41 454.415 1304.71 454.722 1305.09 454.941C1305.47 455.16 1305.93 455.27 1306.46 455.27C1306.83 455.27 1307.16 455.22 1307.46 455.118C1307.76 455.017 1308.01 454.868 1308.23 454.671C1308.62 454.315 1309.06 453.956 1309.59 453.971L1310.15 453.987C1311.39 454.023 1312.33 455.216 1311.55 456.18C1311.52 456.212 1311.5 456.243 1311.47 456.274C1310.94 456.899 1310.24 457.385 1309.38 457.734C1308.52 458.077 1307.52 458.249 1306.38 458.249Z" fill="white"/>
<path d="M1314.67 443.582C1314.67 442.003 1315.95 440.722 1317.53 440.722H1317.94C1319.1 440.722 1320.14 441.422 1320.58 442.494L1324.22 451.328C1324.24 451.385 1324.3 451.422 1324.36 451.422C1324.42 451.422 1324.47 451.385 1324.5 451.328L1328.13 442.494C1328.57 441.422 1329.62 440.722 1330.78 440.722H1331.19C1332.77 440.722 1334.05 442.003 1334.05 443.582V455.965C1334.05 457.091 1333.13 458.004 1332.01 458.004C1330.88 458.004 1329.97 457.091 1329.97 455.965V447.474C1329.97 447.427 1329.93 447.389 1329.88 447.389C1329.85 447.389 1329.82 447.41 1329.8 447.443L1326.14 456.684C1325.85 457.415 1325.14 457.895 1324.36 457.895C1323.57 457.895 1322.86 457.413 1322.58 456.681L1318.91 447.384C1318.9 447.351 1318.87 447.33 1318.83 447.33C1318.78 447.33 1318.75 447.368 1318.75 447.415V455.965C1318.75 457.091 1317.83 458.004 1316.71 458.004C1315.58 458.004 1314.67 457.091 1314.67 455.965V443.582Z" fill="white"/>
<path fill-rule="evenodd" clip-rule="evenodd" d="M1002.91 366.868C1001.46 366.868 1000.29 368.032 1000.29 369.468V440.532C1000.29 441.968 1001.46 443.132 1002.91 443.132H1066.65C1067.74 443.132 1068.72 442.458 1069.1 441.442L1075.07 425.589H1082.8V414.774H1083.51L1090.52 425.589H1099.71L1091.75 414.398C1094.28 413.771 1096.2 412.501 1097.53 410.589C1098.89 408.646 1099.57 406.451 1099.57 404.006C1099.57 401.06 1098.6 398.521 1096.68 396.389C1094.75 394.258 1091.99 393.192 1088.39 393.192H1087.25L1095.83 370.378C1096.47 368.678 1095.21 366.868 1093.38 366.868H1002.91ZM1084.67 400.057L1087.25 393.192H1074.89V425.589H1075.07L1082.8 405.027V408.003H1088.01C1089.21 408.003 1090.09 407.611 1090.66 406.828C1091.26 406.044 1091.56 405.104 1091.56 404.006C1091.56 402.909 1091.26 401.985 1090.66 401.232C1090.09 400.449 1089.21 400.057 1088.01 400.057H1084.67ZM1084.67 400.057L1082.8 405.027V400.057H1084.67ZM1019.95 428.457L1019.24 435.51C1021.01 436.106 1022.76 436.403 1024.5 436.403C1028.26 436.403 1031.02 435.369 1032.79 433.3C1034.59 431.231 1035.49 428.551 1035.49 425.26V393.192H1027.48V425.26C1027.48 426.388 1027.23 427.297 1026.73 427.987C1026.25 428.676 1025.51 429.021 1024.5 429.021C1022.54 429.021 1021.03 428.833 1019.95 428.457ZM1067.61 393.192H1059.7V410.636L1049.94 393.192H1042.79V425.589H1050.7V407.909L1060.7 425.589H1067.61V393.192Z" fill="white"/>
<path fill-rule="evenodd" clip-rule="evenodd" d="M1002.91 366.868C1001.46 366.868 1000.29 368.032 1000.29 369.468V440.532C1000.29 441.968 1001.46 443.132 1002.91 443.132H1066.65C1067.74 443.132 1068.72 442.458 1069.1 441.442L1075.07 425.589H1082.8V414.774H1083.51L1090.52 425.589H1099.71L1091.75 414.398C1094.28 413.771 1096.2 412.501 1097.53 410.589C1098.89 408.646 1099.57 406.451 1099.57 404.006C1099.57 401.06 1098.6 398.521 1096.68 396.389C1094.75 394.258 1091.99 393.192 1088.39 393.192H1087.25L1095.83 370.378C1096.47 368.678 1095.21 366.868 1093.38 366.868H1002.91ZM1084.67 400.057L1087.25 393.192H1074.89V425.589H1075.07L1082.8 405.027V408.003H1088.01C1089.21 408.003 1090.09 407.611 1090.66 406.828C1091.26 406.044 1091.56 405.104 1091.56 404.006C1091.56 402.909 1091.26 401.985 1090.66 401.232C1090.09 400.449 1089.21 400.057 1088.01 400.057H1084.67ZM1084.67 400.057L1082.8 405.027V400.057H1084.67ZM1019.95 428.457L1019.24 435.51C1021.01 436.106 1022.76 436.403 1024.5 436.403C1028.26 436.403 1031.02 435.369 1032.79 433.3C1034.59 431.231 1035.49 428.551 1035.49 425.26V393.192H1027.48V425.26C1027.48 426.388 1027.23 427.297 1026.73 427.987C1026.25 428.676 1025.51 429.021 1024.5 429.021C1022.54 429.021 1021.03 428.833 1019.95 428.457ZM1067.61 393.192H1059.7V410.636L1049.94 393.192H1042.79V425.589H1050.7V407.909L1060.7 425.589H1067.61V393.192Z" fill="white"/>
<path d="M511.203 383.524V423.282C511.203 425.012 509.801 426.415 508.071 426.415H500.837V387.882C500.837 385.475 502.788 383.524 505.195 383.524H511.203Z" fill="white"/>
<path d="M599.078 383.524V426.415H590.282L573.214 401.66H572.942V417.912V427.001H562.575V417.912V383.524H571.497L588.377 408.236H588.733V383.524H599.078Z" fill="white"/>
<path d="M556.643 399.064H546.172C546.032 397.988 545.746 397.018 545.313 396.152C544.881 395.287 544.308 394.547 543.596 393.933C542.884 393.318 542.039 392.851 541.062 392.529C540.099 392.194 539.031 392.027 537.858 392.027C535.778 392.027 533.983 392.536 532.476 393.556C530.982 394.575 529.83 396.048 529.02 397.975C528.224 399.901 527.826 402.233 527.826 404.969C527.826 407.818 528.231 410.205 529.041 412.132C529.865 414.044 531.017 415.489 532.496 416.467C533.99 417.43 536.018 417.912 538.056 417.912L537.846 427.001C533.965 427.001 530.228 426.149 527.156 424.446C524.099 422.729 521.683 420.229 519.91 416.948C518.137 413.667 517.25 409.674 517.25 404.969C517.25 400.25 518.151 396.25 519.952 392.969C521.753 389.688 524.189 387.196 527.261 385.493C530.332 383.789 533.774 382.938 537.586 382.938C540.182 382.938 542.584 383.301 544.79 384.027C546.996 384.739 548.936 385.786 550.612 387.168C552.287 388.536 553.648 390.219 554.696 392.215C555.743 394.212 556.392 396.495 556.643 399.064Z" fill="white"/>
<path d="M572.942 427.001H562.575V417.912H538.056L537.846 427.001H572.942Z" fill="white"/>
<path d="M788.793 439.455C792.902 443.565 797.961 446.597 803.522 448.284C809.083 449.971 814.975 450.26 820.674 449.126C826.374 447.993 831.706 445.471 836.198 441.784C840.69 438.098 844.204 433.36 846.428 427.991C848.652 422.622 849.517 416.787 848.948 411.004C848.378 405.221 846.391 399.667 843.162 394.835C839.934 390.003 835.563 386.042 830.438 383.303C825.313 380.563 819.592 379.13 813.78 379.13V388.732C818.012 388.732 822.179 389.776 825.912 391.771C829.644 393.766 832.827 396.651 835.179 400.17C837.53 403.689 838.977 407.733 839.392 411.945C839.807 416.157 839.176 420.406 837.557 424.316C835.937 428.226 833.378 431.677 830.107 434.362C826.835 437.047 822.952 438.883 818.801 439.709C814.65 440.535 810.36 440.324 806.31 439.095C802.26 437.867 798.575 435.658 795.582 432.666L788.793 439.455Z" fill="white"/>
<path d="M750.973 379.13H813.914V388.731H750.973V379.13Z" fill="white"/>
<path d="M777.643 446.872V383.931H787.244V446.872H777.643Z" fill="white"/>
<path d="M820.581 366.995C820.581 370.751 817.536 373.796 813.78 373.796C810.024 373.796 806.979 370.751 806.979 366.995C806.979 363.239 810.024 360.195 813.78 360.195C817.536 360.195 820.581 363.239 820.581 366.995Z" fill="white"/>
<rect x="350" y="554.5" width="150" height="150" rx="75" fill="#1E1E1E"/>
<rect x="90" y="80" width="220" height="650" fill="url(#paint0_linear_219_55)"/>
<rect width="220" height="650" transform="matrix(-1 0 0 1 2010 80)" fill="url(#paint1_linear_219_55)"/>
<defs>
<filter id="filter0_d_219_55" x="495" y="0" width="360" height="360" filterUnits="userSpaceOnUse" color-interpolation-filters="sRGB">
<feFlood flood-opacity="0" result="BackgroundImageFix"/>
<feColorMatrix in="SourceAlpha" type="matrix" values="0 0 0 0 0 0 0 0 0 0 0 0 0 0 0 0 0 0 127 0" result="hardAlpha"/>
<feOffset/>
<feGaussianBlur stdDeviation="40"/>
<feComposite in2="hardAlpha" operator="out"/>
<feColorMatrix type="matrix" values="0 0 0 0 1 0 0 0 0 1 0 0 0 0 1 0 0 0 0.25 0"/>
<feBlend mode="normal" in2="BackgroundImageFix" result="effect1_dropShadow_219_55"/>
<feBlend mode="normal" in="SourceGraphic" in2="effect1_dropShadow_219_55" result="shape"/>
</filter>
<filter id="filter1_d_219_55" x="745" y="0" width="360" height="360" filterUnits="userSpaceOnUse" color-interpolation-filters="sRGB">
<feFlood flood-opacity="0" result="BackgroundImageFix"/>
<feColorMatrix in="SourceAlpha" type="matrix" values="0 0 0 0 0 0 0 0 0 0 0 0 0 0 0 0 0 0 127 0" result="hardAlpha"/>
<feOffset/>
<feGaussianBlur stdDeviation="40"/>
<feComposite in2="hardAlpha" operator="out"/>
<feColorMatrix type="matrix" values="0 0 0 0 0.388235 0 0 0 0 0.929412 0 0 0 0 0.596078 0 0 0 0.25 0"/>
<feBlend mode="normal" in2="BackgroundImageFix" result="effect1_dropShadow_219_55"/>
<feBlend mode="normal" in="SourceGraphic" in2="effect1_dropShadow_219_55" result="shape"/>
</filter>
<filter id="filter2_d_219_55" x="995" y="0" width="360" height="360" filterUnits="userSpaceOnUse" color-interpolation-filters="sRGB">
<feFlood flood-opacity="0" result="BackgroundImageFix"/>
<feColorMatrix in="SourceAlpha" type="matrix" values="0 0 0 0 0 0 0 0 0 0 0 0 0 0 0 0 0 0 127 0" result="hardAlpha"/>
<feOffset/>
<feGaussianBlur stdDeviation="40"/>
<feComposite in2="hardAlpha" operator="out"/>
<feColorMatrix type="matrix" values="0 0 0 0 0.917647 0 0 0 0 0.333333 0 0 0 0 0.333333 0 0 0 0.25 0"/>
<feBlend mode="normal" in2="BackgroundImageFix" result="effect1_dropShadow_219_55"/>
<feBlend mode="normal" in="SourceGraphic" in2="effect1_dropShadow_219_55" result="shape"/>
</filter>
<filter id="filter3_d_219_55" x="1245" y="0" width="360" height="360" filterUnits="userSpaceOnUse" color-interpolation-filters="sRGB">
<feFlood flood-opacity="0" result="BackgroundImageFix"/>
<feColorMatrix in="SourceAlpha" type="matrix" values="0 0 0 0 0 0 0 0 0 0 0 0 0 0 0 0 0 0 127 0" result="hardAlpha"/>
<feOffset/>
<feGaussianBlur stdDeviation="40"/>
<feComposite in2="hardAlpha" operator="out"/>
<feColorMatrix type="matrix" values="0 0 0 0 0 0 0 0 0 0.196078 0 0 0 0 0.313726 0 0 0 0.25 0"/>
<feBlend mode="normal" in2="BackgroundImageFix" result="effect1_dropShadow_219_55"/>
<feBlend mode="normal" in="SourceGraphic" in2="effect1_dropShadow_219_55" result="shape"/>
</filter>
<filter id="filter4_d_219_55" x="495" y="450" width="360" height="360" filterUnits="userSpaceOnUse" color-interpolation-filters="sRGB">
<feFlood flood-opacity="0" result="BackgroundImageFix"/>
<feColorMatrix in="SourceAlpha" type="matrix" values="0 0 0 0 0 0 0 0 0 0 0 0 0 0 0 0 0 0 127 0" result="hardAlpha"/>
<feOffset/>
<feGaussianBlur stdDeviation="40"/>
<feComposite in2="hardAlpha" operator="out"/>
<feColorMatrix type="matrix" values="0 0 0 0 1 0 0 0 0 0 0 0 0 0 0 0 0 0 0.25 0"/>
<feBlend mode="normal" in2="BackgroundImageFix" result="effect1_dropShadow_219_55"/>
<feBlend mode="normal" in="SourceGraphic" in2="effect1_dropShadow_219_55" result="shape"/>
</filter>
<filter id="filter5_d_219_55" x="745" y="450" width="360" height="360" filterUnits="userSpaceOnUse" color-interpolation-filters="sRGB">
<feFlood flood-opacity="0" result="BackgroundImageFix"/>
<feColorMatrix in="SourceAlpha" type="matrix" values="0 0 0 0 0 0 0 0 0 0 0 0 0 0 0 0 0 0 127 0" result="hardAlpha"/>
<feOffset/>
<feGaussianBlur stdDeviation="40"/>
<feComposite in2="hardAlpha" operator="out"/>
<feColorMatrix type="matrix" values="0 0 0 0 0.370065 0 0 0 0 0.147691 0 0 0 0 0.754167 0 0 0 0.25 0"/>
<feBlend mode="normal" in2="BackgroundImageFix" result="effect1_dropShadow_219_55"/>
<feBlend mode="normal" in="SourceGraphic" in2="effect1_dropShadow_219_55" result="shape"/>
</filter>
<filter id="filter6_d_219_55" x="995" y="450" width="360" height="360" filterUnits="userSpaceOnUse" color-interpolation-filters="sRGB">
<feFlood flood-opacity="0" result="BackgroundImageFix"/>
<feColorMatrix in="SourceAlpha" type="matrix" values="0 0 0 0 0 0 0 0 0 0 0 0 0 0 0 0 0 0 127 0" result="hardAlpha"/>
<feOffset/>
<feGaussianBlur stdDeviation="40"/>
<feComposite in2="hardAlpha" operator="out"/>
<feColorMatrix type="matrix" values="0 0 0 0 1 0 0 0 0 0 0 0 0 0 0 0 0 0 0.25 0"/>
<feBlend mode="normal" in2="BackgroundImageFix" result="effect1_dropShadow_219_55"/>
<feBlend mode="normal" in="SourceGraphic" in2="effect1_dropShadow_219_55" result="shape"/>
</filter>
<filter id="filter7_d_219_55" x="1245" y="450" width="360" height="360" filterUnits="userSpaceOnUse" color-interpolation-filters="sRGB">
<feFlood flood-opacity="0" result="BackgroundImageFix"/>
<feColorMatrix in="SourceAlpha" type="matrix" values="0 0 0 0 0 0 0 0 0 0 0 0 0 0 0 0 0 0 127 0" result="hardAlpha"/>
<feOffset/>
<feGaussianBlur stdDeviation="40"/>
<feComposite in2="hardAlpha" operator="out"/>
<feColorMatrix type="matrix" values="0 0 0 0 0 0 0 0 0 0.443137 0 0 0 0 0.717647 0 0 0 0.25 0"/>
<feBlend mode="normal" in2="BackgroundImageFix" result="effect1_dropShadow_219_55"/>
<feBlend mode="normal" in="SourceGraphic" in2="effect1_dropShadow_219_55" result="shape"/>
</filter>
<filter id="filter8_d_219_55" x="145" y="250" width="310" height="310" filterUnits="userSpaceOnUse" color-interpolation-filters="sRGB">
<feFlood flood-opacity="0" result="BackgroundImageFix"/>
<feColorMatrix in="SourceAlpha" type="matrix" values="0 0 0 0 0 0 0 0 0 0 0 0 0 0 0 0 0 0 127 0" result="hardAlpha"/>
<feOffset/>
<feGaussianBlur stdDeviation="40"/>
<feComposite in2="hardAlpha" operator="out"/>
<feColorMatrix type="matrix" values="0 0 0 0 0.917647 0 0 0 0 0.188235 0 0 0 0 0.188235 0 0 0 0.25 0"/>
<feBlend mode="normal" in2="BackgroundImageFix" result="effect1_dropShadow_219_55"/>
<feBlend mode="normal" in="SourceGraphic" in2="effect1_dropShadow_219_55" result="shape"/>
</filter>
<filter id="filter9_d_219_55" x="370" y="225" width="360" height="360" filterUnits="userSpaceOnUse" color-interpolation-filters="sRGB">
<feFlood flood-opacity="0" result="BackgroundImageFix"/>
<feColorMatrix in="SourceAlpha" type="matrix" values="0 0 0 0 0 0 0 0 0 0 0 0 0 0 0 0 0 0 127 0" result="hardAlpha"/>
<feOffset/>
<feGaussianBlur stdDeviation="40"/>
<feComposite in2="hardAlpha" operator="out"/>
<feColorMatrix type="matrix" values="0 0 0 0 0.00784314 0 0 0 0 0.0588235 0 0 0 0 1 0 0 0 0.25 0"/>
<feBlend mode="normal" in2="BackgroundImageFix" result="effect1_dropShadow_219_55"/>
<feBlend mode="normal" in="SourceGraphic" in2="effect1_dropShadow_219_55" result="shape"/>
</filter>
<filter id="filter10_d_219_55" x="620" y="225" width="360" height="360" filterUnits="userSpaceOnUse" color-interpolation-filters="sRGB">
<feFlood flood-opacity="0" result="BackgroundImageFix"/>
<feColorMatrix in="SourceAlpha" type="matrix" values="0 0 0 0 0 0 0 0 0 0 0 0 0 0 0 0 0 0 127 0" result="hardAlpha"/>
<feOffset/>
<feGaussianBlur stdDeviation="40"/>
<feComposite in2="hardAlpha" operator="out"/>
<feColorMatrix type="matrix" values="0 0 0 0 0.0352941 0 0 0 0 0.796078 0 0 0 0 0.796078 0 0 0 0.25 0"/>
<feBlend mode="normal" in2="BackgroundImageFix" result="effect1_dropShadow_219_55"/>
<feBlend mode="normal" in="SourceGraphic" in2="effect1_dropShadow_219_55" result="shape"/>
</filter>
<filter id="filter11_d_219_55" x="870" y="225" width="360" height="360" filterUnits="userSpaceOnUse" color-interpolation-filters="sRGB">
<feFlood flood-opacity="0" result="BackgroundImageFix"/>
<feColorMatrix in="SourceAlpha" type="matrix" values="0 0 0 0 0 0 0 0 0 0 0 0 0 0 0 0 0 0 127 0" result="hardAlpha"/>
<feOffset/>
<feGaussianBlur stdDeviation="40"/>
<feComposite in2="hardAlpha" operator="out"/>
<feColorMatrix type="matrix" values="0 0 0 0 0.678431 0 0 0 0 0 0 0 0 0 1 0 0 0 0.25 0"/>
<feBlend mode="normal" in2="BackgroundImageFix" result="effect1_dropShadow_219_55"/>
<feBlend mode="normal" in="SourceGraphic" in2="effect1_dropShadow_219_55" result="shape"/>
</filter>
<filter id="filter12_d_219_55" x="1120" y="225" width="360" height="360" filterUnits="userSpaceOnUse" color-interpolation-filters="sRGB">
<feFlood flood-opacity="0" result="BackgroundImageFix"/>
<feColorMatrix in="SourceAlpha" type="matrix" values="0 0 0 0 0 0 0 0 0 0 0 0 0 0 0 0 0 0 127 0" result="hardAlpha"/>
<feOffset/>
<feGaussianBlur stdDeviation="40"/>
<feComposite in2="hardAlpha" operator="out"/>
<feColorMatrix type="matrix" values="0 0 0 0 0.411765 0 0 0 0 0.847059 0 0 0 0 0.490196 0 0 0 0.25 0"/>
<feBlend mode="normal" in2="BackgroundImageFix" result="effect1_dropShadow_219_55"/>
<feBlend mode="normal" in="SourceGraphic" in2="effect1_dropShadow_219_55" result="shape"/>
</filter>
<filter id="filter13_d_219_55" x="1370" y="225" width="360" height="360" filterUnits="userSpaceOnUse" color-interpolation-filters="sRGB">
<feFlood flood-opacity="0" result="BackgroundImageFix"/>
<feColorMatrix in="SourceAlpha" type="matrix" values="0 0 0 0 0 0 0 0 0 0 0 0 0 0 0 0 0 0 127 0" result="hardAlpha"/>
<feOffset/>
<feGaussianBlur stdDeviation="40"/>
<feComposite in2="hardAlpha" operator="out"/>
<feColorMatrix type="matrix" values="0 0 0 0 0.286275 0 0 0 0 0.596078 0 0 0 0 0.886275 0 0 0 0.25 0"/>
<feBlend mode="normal" in2="BackgroundImageFix" result="effect1_dropShadow_219_55"/>
<feBlend mode="normal" in="SourceGraphic" in2="effect1_dropShadow_219_55" result="shape"/>
</filter>
<filter id="filter14_d_219_55" x="1645" y="250" width="310" height="310" filterUnits="userSpaceOnUse" color-interpolation-filters="sRGB">
<feFlood flood-opacity="0" result="BackgroundImageFix"/>
<feColorMatrix in="SourceAlpha" type="matrix" values="0 0 0 0 0 0 0 0 0 0 0 0 0 0 0 0 0 0 127 0" result="hardAlpha"/>
<feOffset/>
<feGaussianBlur stdDeviation="40"/>
<feComposite in2="hardAlpha" operator="out"/>
<feColorMatrix type="matrix" values="0 0 0 0 0.219608 0 0 0 0 0.713726 0 0 0 0 1 0 0 0 0.25 0"/>
<feBlend mode="normal" in2="BackgroundImageFix" result="effect1_dropShadow_219_55"/>
<feBlend mode="normal" in="SourceGraphic" in2="effect1_dropShadow_219_55" result="shape"/>
</filter>
<linearGradient id="paint0_linear_219_55" x1="310" y1="405" x2="90" y2="405" gradientUnits="userSpaceOnUse">
<stop stop-color="#141414" stop-opacity="0"/>
<stop offset="1" stop-color="#141414"/>
</linearGradient>
<linearGradient id="paint1_linear_219_55" x1="220" y1="325" x2="0" y2="325" gradientUnits="userSpaceOnUse">
<stop stop-color="#141414" stop-opacity="0"/>
<stop offset="1" stop-color="#141414"/>
</linearGradient>
</defs>
</svg>
