<svg width="1920" height="870" viewBox="0 0 1920 870" fill="none" xmlns="http://www.w3.org/2000/svg">
<g id="SVG-D" clip-path="url(#clip0_221_54)">
<g id="svg_g_d">
<g id="Group 18">
<rect id="Rectangle 7" x="35" y="160" width="100" height="100" rx="50" fill="#1E1E1E"/>
<rect id="Rectangle 8" x="260" y="135" width="150" height="150" rx="75" fill="#1E1E1E"/>
<g id="Rectangle 9" filter="url(#filter0_d_221_54)">
<rect x="485" y="110" width="200" height="200" rx="100" fill="white"/>
</g>
<g id="Rectangle 10" filter="url(#filter1_d_221_54)">
<rect x="735" y="110" width="200" height="200" rx="100" fill="#63ED98"/>
</g>
<g id="Rectangle 11" filter="url(#filter2_d_221_54)">
<rect x="985" y="110" width="200" height="200" rx="100" fill="#EA5555"/>
</g>
<g id="Rectangle 12" filter="url(#filter3_d_221_54)">
<rect x="1235" y="110" width="200" height="200" rx="100" fill="#003250"/>
</g>
<rect id="Rectangle 13" x="1510" y="135" width="150" height="150" rx="75" fill="#1E1E1E"/>
<rect id="Rectangle 14" x="1785" y="160" width="100" height="100" rx="50" fill="#1E1E1E"/>
<g id="Vector">
<path fill-rule="evenodd" clip-rule="evenodd" d="M798.178 193.393C792.474 193.393 787.84 197.948 787.84 203.585C787.84 209.221 792.474 213.789 798.178 213.789L813.831 213.801C816.58 213.801 819.937 211.894 821.323 209.537L836.563 183.444C838.618 179.922 843.69 177.043 847.801 177.043H871.798C886.746 177.043 898.859 188.996 898.872 203.743C898.884 218.49 886.782 230.431 871.834 230.431L862.639 230.419C859.903 230.419 856.522 232.35 855.135 234.694L850.38 242.821L830.786 242.809L844.019 220.215C846.086 216.668 851.134 213.813 855.257 213.813H871.834C877.538 213.813 882.16 209.246 882.16 203.609C882.16 197.973 877.526 193.418 871.822 193.405H853.031C850.294 193.405 846.901 195.313 845.539 197.681L830.165 224.029C828.11 227.552 823.05 230.431 818.927 230.431H798.19C783.254 230.431 771.128 218.465 771.128 203.719C771.116 188.984 783.218 177.043 798.154 177.043L826.456 177.055L816.884 193.418L798.178 193.393Z" fill="white"/>
</g>
<g id="Vector_2">
<path d="M1062.78 198.761C1042.57 198.782 1025.06 198.81 1023.85 198.817L1021.67 198.831L1021.99 199.112C1022.17 199.267 1022.5 199.541 1022.73 199.724C1022.96 199.9 1023.16 200.076 1023.17 200.104C1023.19 200.132 1023.23 200.16 1023.27 200.16C1023.33 200.16 1023.94 200.561 1024.03 200.659C1024.06 200.702 1024.27 200.807 1024.89 201.116C1025.07 201.208 1025.37 201.32 1025.55 201.363C1025.8 201.419 1039.96 201.433 1077.16 201.419C1126.49 201.398 1128.44 201.405 1128.95 201.524C1129.67 201.7 1130.23 201.953 1132.8 203.233C1133.67 203.669 1134.44 204.077 1134.5 204.133C1134.56 204.189 1134.65 204.239 1134.68 204.239C1134.73 204.239 1134.97 204.379 1135.23 204.555C1135.49 204.731 1135.71 204.871 1135.73 204.871C1135.8 204.871 1136.65 205.476 1136.7 205.554C1136.73 205.603 1136.79 205.645 1136.84 205.645C1136.93 205.645 1137.78 206.271 1138.4 206.798C1139.46 207.684 1141.32 209.632 1141.32 209.85C1141.32 209.892 1141.35 209.935 1141.38 209.949C1141.65 210.061 1142.7 212.304 1142.55 212.452C1142.53 212.473 1142.21 212.508 1141.83 212.529C1141.11 212.572 1141.09 212.593 1141.22 212.902C1141.25 212.972 1141.24 213.029 1141.2 213.029C1141.15 213.029 1140.91 212.818 1139.88 211.833C1139.16 211.144 1138.46 210.553 1137.76 210.04C1137.46 209.815 1137.17 209.59 1137.13 209.555C1137.09 209.513 1136.97 209.414 1136.86 209.337C1136.75 209.259 1136.63 209.154 1136.58 209.105C1136.52 209.063 1136.46 209.02 1136.44 209.02C1136.41 209.02 1135.96 208.725 1135.42 208.366C1134.19 207.558 1133.31 207.044 1131.84 206.292C1128.21 204.421 1126.57 203.95 1123.85 203.971C1121.56 203.992 1120.35 203.985 1120.05 203.957L1119.77 203.922L1119.78 204.239C1119.78 204.414 1119.81 205.04 1119.84 205.631L1119.89 206.714L1121.63 206.658C1122.58 206.629 1123.41 206.608 1123.46 206.622C1123.52 206.629 1124.02 206.658 1124.59 206.693C1125.52 206.749 1125.67 206.77 1126.39 207.03C1126.81 207.185 1127.22 207.347 1127.3 207.389C1127.37 207.431 1127.85 207.67 1128.35 207.916C1129.47 208.472 1130.97 209.274 1131.71 209.71C1132.02 209.892 1132.4 210.117 1132.55 210.209C1132.72 210.3 1132.86 210.406 1132.87 210.434C1132.88 210.469 1132.93 210.497 1132.98 210.497C1133.1 210.497 1134.55 211.629 1135.13 212.178L1135.66 212.67L1132.04 212.677C1130.05 212.677 1128.35 212.698 1128.26 212.719C1127.97 212.797 1128.07 213.043 1128.55 213.472C1128.81 213.69 1129.04 213.872 1129.08 213.872C1129.12 213.872 1129.19 213.929 1129.22 213.999C1129.26 214.076 1129.46 214.259 1129.67 214.421C1129.88 214.576 1130.09 214.751 1130.15 214.801C1130.2 214.857 1130.45 215.054 1130.7 215.237C1130.96 215.427 1131.18 215.595 1131.2 215.623C1131.22 215.652 1131.39 215.736 1131.58 215.82C1132.06 216.017 1133.24 216.066 1136.06 216.01C1137.93 215.968 1138.3 215.94 1138.3 215.863C1138.3 215.574 1138.59 215.975 1139.07 216.931C1139.14 217.086 1139.28 217.332 1139.36 217.473C1139.45 217.621 1139.51 217.754 1139.49 217.768C1139.47 217.782 1136.79 217.867 1133.52 217.944C1125.27 218.148 1124.73 218.162 1124.73 218.26C1124.73 218.303 1124.9 218.464 1125.09 218.619C1125.29 218.774 1125.51 218.957 1125.59 219.02C1125.67 219.09 1125.75 219.146 1125.77 219.146C1125.8 219.146 1125.94 219.266 1126.11 219.414C1126.26 219.554 1126.51 219.765 1126.66 219.885C1126.81 219.997 1127.2 220.314 1127.53 220.581C1127.86 220.848 1128.25 221.115 1128.38 221.179C1128.66 221.305 1128.9 221.305 1139.62 221.27C1146.01 221.256 1145.59 221.284 1145.37 220.855C1145.31 220.75 1145.15 220.356 1145.01 219.99C1144.87 219.625 1144.64 219.097 1144.52 218.816C1144.38 218.542 1144.28 218.289 1144.28 218.26C1144.28 218.218 1144.09 217.761 1143.78 217.058C1143.7 216.889 1143.64 216.734 1143.64 216.706C1143.64 216.671 1143.57 216.502 1143.47 216.313L1143.29 215.982H1148.42V215.715C1148.42 215.419 1148.1 214.097 1148 213.978C1147.97 213.936 1147.93 213.837 1147.91 213.76C1147.9 213.69 1147.86 213.563 1147.83 213.486C1147.8 213.408 1147.69 213.141 1147.6 212.888C1146.73 210.638 1144.89 208.071 1142.83 206.236C1142.23 205.708 1141.53 205.125 1141.11 204.801C1140.94 204.668 1140.78 204.541 1140.76 204.52C1140.69 204.45 1138.8 203.184 1138.76 203.184C1138.73 203.184 1138.53 203.057 1138.31 202.91C1138.09 202.755 1137.73 202.537 1137.51 202.424C1137.29 202.305 1136.84 202.052 1136.48 201.855C1136.14 201.658 1135.82 201.496 1135.77 201.496C1135.73 201.496 1135.7 201.475 1135.7 201.44C1135.7 201.412 1135.63 201.355 1135.54 201.313C1135.45 201.271 1134.54 200.814 1133.52 200.287C1132.49 199.766 1131.5 199.281 1131.3 199.218C1130.34 198.887 1130.09 198.824 1129.43 198.754C1128.67 198.676 1126.44 198.676 1062.78 198.761ZM1136.89 213.647C1136.89 213.669 1136.82 213.612 1136.72 213.521C1136.62 213.429 1136.54 213.324 1136.54 213.282C1136.54 213.24 1136.62 213.296 1136.72 213.408C1136.82 213.521 1136.89 213.626 1136.89 213.647ZM1137.57 214.301C1137.7 214.456 1137.7 214.456 1137.55 214.358C1137.45 214.301 1137.38 214.238 1137.38 214.21C1137.38 214.126 1137.43 214.147 1137.57 214.301Z" fill="white"/>
<path d="M1056.87 203.725C1056.07 203.803 1054.35 204.182 1053.95 204.372C1053.29 204.682 1052.69 205.16 1052.52 205.518C1052.04 206.51 1052.81 207.523 1054.3 207.86C1054.65 207.937 1055.64 208.001 1057.54 208.071C1060.81 208.191 1061.26 208.226 1061.6 208.366C1062.06 208.563 1061.87 208.866 1061.09 209.119C1059.67 209.576 1056.95 209.555 1054.65 209.056C1053.25 208.753 1053.45 208.697 1052.94 209.513C1052.7 209.899 1052.52 210.251 1052.54 210.286C1052.68 210.511 1055.24 211.003 1056.94 211.13C1058.13 211.221 1059.66 211.214 1060.38 211.123C1061.63 210.968 1063.24 210.293 1063.9 209.653C1064.34 209.224 1064.43 208.866 1064.29 208.162C1064.17 207.565 1064.04 207.368 1063.6 207.094C1063.13 206.798 1061.97 206.644 1059.75 206.559C1058.77 206.524 1057.44 206.475 1056.8 206.454C1056.16 206.426 1055.48 206.376 1055.3 206.334C1055.01 206.271 1054.96 206.243 1054.98 206.109C1055.01 205.905 1055.46 205.765 1056.81 205.54C1058.51 205.251 1060.22 205.307 1062.05 205.708C1062.41 205.786 1062.77 205.884 1062.84 205.926C1062.92 205.961 1063.02 205.997 1063.08 205.997C1063.2 205.997 1064.06 204.576 1063.98 204.499C1063.9 204.421 1062.6 204.112 1061.97 204.021C1061.66 203.985 1061.1 203.901 1060.74 203.838C1060.08 203.732 1057.54 203.655 1056.87 203.725Z" fill="white"/>
<path d="M1081.04 203.866L1079.44 203.887V206.13C1079.44 207.361 1079.42 208.943 1079.39 209.639L1079.35 210.919H1081.9V208.69L1084.77 208.641C1086.35 208.62 1088.19 208.577 1088.86 208.549L1090.09 208.507V207.712C1090.09 207.283 1090.07 206.897 1090.04 206.862C1090 206.833 1088.16 206.819 1085.94 206.833L1081.9 206.855V206.215C1081.9 205.652 1081.92 205.575 1082.03 205.568C1082.09 205.568 1084.17 205.568 1086.66 205.575L1091.16 205.582L1091.21 205.209C1091.23 205.005 1091.25 204.625 1091.25 204.358V203.887H1087.72C1085.78 203.887 1083.84 203.873 1083.41 203.866C1082.99 203.852 1081.92 203.852 1081.04 203.866Z" fill="white"/>
<path d="M1092.7 204.042C1092.68 204.133 1092.66 205.715 1092.66 207.558V210.919H1104.97L1104.93 209.14L1095.19 209.168V208.191L1095.71 208.155C1095.98 208.127 1097.53 208.106 1099.13 208.106C1102.6 208.092 1103.29 208.078 1103.41 208.008C1103.46 207.973 1103.49 207.719 1103.49 207.213V206.468L1101.04 206.51C1099.7 206.538 1097.84 206.538 1096.89 206.51L1095.19 206.468V206.018C1095.19 205.582 1095.19 205.575 1095.39 205.568C1095.5 205.568 1096.97 205.568 1098.68 205.575C1100.39 205.582 1102.41 205.561 1103.17 205.533L1104.55 205.483V203.887H1092.75L1092.7 204.042Z" fill="white"/>
<path d="M1106.64 203.936L1106.44 203.964V205.575L1108.5 205.589C1109.63 205.596 1110.61 205.603 1110.68 205.603C1110.78 205.603 1110.8 205.729 1110.84 206.545C1110.87 207.058 1110.87 208.24 1110.86 209.168L1110.82 210.849H1113.34V205.575H1117.68L1117.72 205.413C1117.74 205.329 1117.77 204.949 1117.77 204.569V203.887L1112.3 203.894C1109.29 203.901 1106.75 203.922 1106.64 203.936Z" fill="white"/>
<path d="M1065.8 210.835L1066.66 210.884C1067.14 210.912 1067.71 210.919 1067.94 210.905L1068.37 210.884L1068.32 208.598L1070.22 208.584C1071.27 208.577 1072.39 208.563 1072.7 208.563H1073.28L1074.11 209.724L1074.95 210.884L1075.81 210.933C1076.28 210.961 1076.94 210.961 1077.28 210.94L1077.89 210.898L1077.58 210.504C1077.33 210.174 1076.21 208.514 1076.15 208.38C1076.14 208.352 1076.21 208.31 1076.32 208.289C1076.65 208.205 1077.11 207.895 1077.42 207.544C1077.95 206.96 1078.12 206.074 1077.82 205.455C1077.57 204.956 1077.04 204.428 1076.54 204.196L1076.1 203.992L1065.8 203.95V210.835ZM1074.35 205.687C1074.84 205.722 1074.96 205.758 1075.15 205.912C1075.33 206.074 1075.36 206.137 1075.33 206.292C1075.26 206.559 1074.89 206.763 1074.36 206.84C1074.12 206.876 1072.66 206.918 1071.13 206.939L1068.33 206.974V205.652L1068.53 205.631C1068.8 205.596 1073.67 205.645 1074.35 205.687Z" fill="white"/>
<path d="M1027.83 204.85C1027.83 204.886 1028.52 205.293 1029.36 205.772C1031.3 206.869 1031.3 206.869 1031.34 206.911C1031.43 207.002 1032.37 207.431 1032.6 207.48C1032.74 207.516 1035.65 207.523 1039.06 207.494L1045.27 207.452V206.165C1045.27 205.061 1045.25 204.879 1045.15 204.843C1044.99 204.78 1027.83 204.794 1027.83 204.85Z" fill="white"/>
<path d="M1051.05 215.947C1050.78 216.066 1050.68 216.242 1050.68 216.615C1050.68 217.044 1050.83 217.213 1051.44 217.459C1052.3 217.817 1052.49 218.113 1052.12 218.478C1051.73 218.872 1051.01 218.528 1050.81 217.846C1050.73 217.557 1050.6 217.459 1050.65 217.726C1050.66 217.789 1050.67 218.064 1050.68 218.338C1050.69 218.739 1050.7 218.795 1050.76 218.654C1050.8 218.563 1050.83 218.471 1050.85 218.464C1050.86 218.45 1051.02 218.528 1051.2 218.626C1051.47 218.774 1051.59 218.802 1051.83 218.774C1052.44 218.689 1052.72 218.007 1052.33 217.543C1052.23 217.41 1051.95 217.248 1051.59 217.107C1051.02 216.875 1050.89 216.756 1050.89 216.46C1050.9 216.228 1051.05 216.059 1051.3 216.01C1051.63 215.947 1051.97 216.186 1052.15 216.615C1052.23 216.812 1052.32 216.967 1052.34 216.967C1052.4 216.967 1052.35 215.982 1052.28 215.94C1052.26 215.919 1052.23 215.954 1052.23 216.01C1052.23 216.158 1052.16 216.151 1051.8 215.982C1051.43 215.82 1051.35 215.813 1051.05 215.947Z" fill="white"/>
<path d="M1090.87 215.891C1089.95 216.123 1089.74 217.803 1090.52 218.535C1090.8 218.795 1091.27 218.858 1091.59 218.682C1091.84 218.549 1092.09 218.134 1092.1 217.86C1092.1 217.642 1091.97 217.733 1091.92 218C1091.79 218.717 1090.85 218.914 1090.59 218.274C1090.33 217.649 1090.4 216.425 1090.73 216.137C1091.09 215.827 1091.54 216.024 1091.81 216.601C1091.9 216.798 1092 216.952 1092.02 216.938C1092.04 216.924 1092.05 216.678 1092.04 216.397C1092.02 215.933 1092.01 215.891 1091.92 216.01C1091.82 216.144 1091.81 216.144 1091.51 215.996C1091.21 215.841 1091.13 215.827 1090.87 215.891Z" fill="white"/>
<path d="M1054.06 215.968C1054.06 216.01 1054.14 216.052 1054.25 216.066L1054.44 216.088V218.549L1054.25 218.57C1054.14 218.584 1054.06 218.626 1054.06 218.661C1054.06 218.696 1054.32 218.725 1054.65 218.725C1055 218.725 1055.25 218.696 1055.25 218.654C1055.25 218.612 1055.16 218.584 1055.04 218.584H1054.83V217.227L1055.12 217.269C1055.5 217.318 1055.58 217.431 1055.64 217.972C1055.7 218.549 1055.73 218.64 1055.88 218.725C1056.19 218.886 1056.52 218.619 1056.52 218.218C1056.52 218.035 1056.4 218.127 1056.36 218.338C1056.35 218.415 1056.29 218.478 1056.24 218.478C1056.17 218.478 1056.1 218.338 1056.04 218.021C1055.98 217.684 1055.9 217.522 1055.77 217.403C1055.67 217.311 1055.6 217.234 1055.61 217.227C1055.62 217.22 1055.74 217.163 1055.85 217.107C1056.27 216.889 1056.34 216.313 1055.97 216.066C1055.83 215.975 1055.59 215.94 1054.92 215.919C1054.36 215.905 1054.06 215.926 1054.06 215.968ZM1055.57 216.109C1055.74 216.214 1055.83 216.488 1055.78 216.735C1055.74 216.924 1055.69 217.002 1055.5 217.079C1055.36 217.135 1055.16 217.178 1055.04 217.178H1054.83V216.052H1055.17C1055.35 216.052 1055.53 216.081 1055.57 216.109Z" fill="white"/>
<path d="M1057.99 215.982C1057.99 216.017 1058.07 216.052 1058.17 216.052H1058.34V218.584H1058.17C1058.07 218.584 1057.99 218.612 1057.99 218.654C1057.99 218.696 1058.24 218.725 1058.59 218.725C1059.17 218.725 1059.43 218.619 1058.96 218.57L1058.73 218.549L1058.69 217.381L1058.99 217.403C1059.27 217.424 1059.29 217.438 1059.37 217.705C1059.46 217.972 1059.46 217.944 1059.46 217.318C1059.46 216.805 1059.44 216.699 1059.39 216.868C1059.31 217.156 1059.17 217.262 1058.93 217.234L1058.73 217.213V216.088L1059.17 216.066C1059.73 216.038 1059.93 216.151 1060.03 216.545C1060.07 216.699 1060.12 216.826 1060.14 216.826C1060.16 216.826 1060.17 216.622 1060.17 216.369V215.912H1059.08C1058.4 215.912 1057.99 215.94 1057.99 215.982Z" fill="white"/>
<path d="M1061.72 215.975C1061.72 216.01 1061.8 216.052 1061.92 216.066L1062.11 216.088V218.549L1061.92 218.57C1061.8 218.584 1061.72 218.626 1061.72 218.661C1061.72 218.696 1062.18 218.725 1062.81 218.725H1063.89L1063.94 218.492C1063.99 218.211 1063.95 217.592 1063.89 217.74C1063.87 217.796 1063.82 217.937 1063.79 218.042C1063.77 218.155 1063.68 218.324 1063.58 218.415C1063.44 218.556 1063.34 218.584 1062.95 218.584H1062.49V217.388H1062.73C1063 217.388 1063.13 217.494 1063.13 217.712C1063.13 217.803 1063.16 217.895 1063.2 217.916C1063.24 217.944 1063.27 217.726 1063.27 217.325C1063.27 216.945 1063.24 216.685 1063.2 216.685C1063.16 216.685 1063.13 216.763 1063.13 216.854C1063.13 217.086 1062.95 217.248 1062.7 217.248H1062.49V216.052H1062.95C1063.35 216.052 1063.44 216.073 1063.59 216.228C1063.68 216.32 1063.78 216.495 1063.8 216.615C1063.87 216.91 1063.98 216.805 1063.94 216.488C1063.92 216.348 1063.91 216.158 1063.91 216.066C1063.9 215.912 1063.89 215.912 1062.81 215.912C1062.18 215.912 1061.72 215.94 1061.72 215.975Z" fill="white"/>
<path d="M1064.32 215.982C1064.32 216.017 1064.39 216.052 1064.46 216.052C1064.6 216.052 1064.6 216.102 1064.6 217.318C1064.6 218.57 1064.6 218.591 1064.45 218.654C1064.33 218.696 1064.4 218.717 1064.74 218.717C1065.09 218.717 1065.16 218.696 1065.05 218.654C1064.88 218.591 1064.88 218.57 1064.88 217.248V215.912H1064.6C1064.45 215.912 1064.32 215.94 1064.32 215.982Z" fill="white"/>
<path d="M1073.43 216.102C1073.29 216.249 1073.25 216.376 1073.25 216.594C1073.25 216.847 1073.23 216.896 1073.11 216.896C1073.03 216.896 1072.97 216.924 1072.97 216.967C1072.97 217.002 1073.03 217.037 1073.11 217.037C1073.25 217.037 1073.25 217.086 1073.25 217.81C1073.25 218.549 1073.25 218.591 1073.1 218.654C1072.98 218.696 1073.07 218.71 1073.43 218.71C1073.7 218.703 1073.84 218.689 1073.73 218.675L1073.53 218.647V217.037H1073.71C1073.81 217.037 1073.89 217.009 1073.89 216.974C1073.89 216.938 1073.81 216.917 1073.71 216.931C1073.54 216.945 1073.53 216.931 1073.53 216.573C1073.53 216.109 1073.7 215.891 1073.94 216.045C1074.03 216.095 1074.03 216.13 1073.94 216.256C1073.86 216.383 1073.86 216.418 1073.96 216.474C1074.19 216.622 1074.34 216.235 1074.12 216.024C1073.95 215.848 1073.63 215.884 1073.43 216.102Z" fill="white"/>
<path d="M1076.91 215.982C1076.91 216.017 1076.99 216.052 1077.09 216.052C1077.26 216.052 1077.26 216.059 1077.26 216.615V217.177L1077.12 217.037C1076.97 216.882 1076.7 216.854 1076.48 216.967C1076.12 217.163 1076.01 218.021 1076.3 218.443C1076.5 218.753 1076.77 218.837 1077.05 218.703C1077.16 218.64 1077.26 218.626 1077.26 218.661C1077.26 218.696 1077.41 218.725 1077.6 218.717C1077.85 218.71 1077.89 218.696 1077.75 218.661L1077.58 218.612L1077.56 217.262L1077.54 215.912H1077.23C1077.05 215.912 1076.91 215.94 1076.91 215.982ZM1077.09 217.192C1077.26 217.395 1077.28 217.459 1077.25 217.93C1077.22 218.478 1077.11 218.647 1076.78 218.654C1076.57 218.654 1076.49 218.415 1076.49 217.789C1076.49 216.995 1076.73 216.763 1077.09 217.192Z" fill="white"/>
<path d="M1079.42 215.961C1079.39 215.982 1079.37 216.228 1079.38 216.502L1079.38 217.002L1079.48 216.692C1079.62 216.263 1079.83 216.038 1080.11 216.066L1080.32 216.088V218.549L1080.09 218.57C1079.97 218.584 1079.86 218.619 1079.86 218.661C1079.86 218.696 1080.17 218.725 1080.53 218.725C1080.93 218.725 1081.2 218.696 1081.2 218.654C1081.2 218.612 1081.09 218.584 1080.95 218.584H1080.71V216.052H1080.92C1081.21 216.052 1081.47 216.32 1081.52 216.678C1081.59 217.114 1081.72 217.037 1081.66 216.594C1081.64 216.397 1081.62 216.158 1081.62 216.066C1081.62 215.912 1081.61 215.912 1080.54 215.912C1079.95 215.912 1079.44 215.933 1079.42 215.961Z" fill="white"/>
<path d="M1107.01 215.982C1107.01 216.017 1107.08 216.052 1107.18 216.052H1107.36V218.584H1107.18C1107.08 218.584 1107.01 218.612 1107.01 218.654C1107.01 218.696 1107.41 218.725 1108.06 218.725H1109.12V218.176L1109.11 217.635L1108.98 218.021C1108.81 218.514 1108.69 218.598 1108.17 218.57L1107.74 218.549V216.088L1107.98 216.066C1108.44 216.017 1108.18 215.912 1107.6 215.912C1107.25 215.912 1107.01 215.94 1107.01 215.982Z" fill="white"/>
<path d="M1118.82 215.982C1118.82 216.017 1118.88 216.052 1118.95 216.052C1119.07 216.052 1119.09 216.116 1119.12 216.58C1119.13 216.868 1119.12 217.1 1119.1 217.086C1118.79 216.91 1118.66 216.875 1118.49 216.938C1117.86 217.156 1117.81 218.366 1118.41 218.682C1118.64 218.809 1118.67 218.809 1118.89 218.703C1119.16 218.563 1119.19 218.556 1119.14 218.654C1119.11 218.696 1119.22 218.725 1119.43 218.717C1119.61 218.71 1119.71 218.689 1119.63 218.675C1119.55 218.654 1119.47 218.605 1119.44 218.556C1119.41 218.514 1119.38 217.902 1119.38 217.192V215.912H1119.1C1118.95 215.912 1118.82 215.94 1118.82 215.982ZM1118.91 217.142C1119.19 217.431 1119.2 218.359 1118.92 218.563C1118.52 218.851 1118.3 218.528 1118.34 217.719C1118.38 216.981 1118.56 216.798 1118.91 217.142Z" fill="white"/>
<path d="M1072.1 216.172C1072.03 216.355 1072.26 216.509 1072.39 216.376C1072.45 216.32 1072.48 216.221 1072.46 216.165C1072.4 216.017 1072.16 216.024 1072.1 216.172Z" fill="white"/>
<path d="M1085.8 216.158C1085.77 216.221 1085.78 216.306 1085.83 216.348C1085.94 216.46 1086.16 216.383 1086.16 216.228C1086.16 216.045 1085.86 215.989 1085.8 216.158Z" fill="white"/>
<path d="M1109.7 216.165C1109.68 216.221 1109.71 216.32 1109.76 216.376C1109.85 216.474 1109.88 216.474 1109.98 216.369C1110.04 216.313 1110.08 216.214 1110.06 216.158C1110 216.017 1109.76 216.024 1109.7 216.165Z" fill="white"/>
<path d="M1113.9 216.221C1113.9 216.369 1113.93 216.404 1114.08 216.404C1114.23 216.404 1114.26 216.376 1114.24 216.242C1114.22 216.144 1114.16 216.08 1114.06 216.066C1113.93 216.045 1113.9 216.073 1113.9 216.221Z" fill="white"/>
<path d="M1069.31 216.509C1069.23 216.784 1069.17 216.868 1069.05 216.882C1068.86 216.91 1068.84 217.037 1069.03 217.037C1069.17 217.037 1069.17 217.086 1069.17 217.768C1069.17 218.478 1069.18 218.507 1069.36 218.647C1069.66 218.886 1070.02 218.689 1070.01 218.303L1070 218.127L1069.95 218.296C1069.9 218.5 1069.72 218.619 1069.57 218.563C1069.48 218.528 1069.46 218.401 1069.46 217.775V217.037H1069.7C1069.84 217.037 1069.95 217.016 1069.95 216.981C1069.95 216.952 1069.84 216.931 1069.72 216.931C1069.49 216.931 1069.49 216.924 1069.46 216.545L1069.42 216.158L1069.31 216.509Z" fill="white"/>
<path d="M1115.16 216.376C1115.16 216.622 1115.05 216.805 1114.83 216.924L1114.64 217.03L1114.83 217.037H1115.02V217.761C1115.02 218.521 1115.07 218.675 1115.35 218.753C1115.54 218.809 1115.77 218.612 1115.83 218.338C1115.86 218.197 1115.85 218.148 1115.81 218.197C1115.77 218.232 1115.73 218.331 1115.71 218.408C1115.7 218.507 1115.63 218.549 1115.52 218.549C1115.34 218.549 1115.34 218.549 1115.32 217.789L1115.3 217.037H1115.55C1115.7 217.037 1115.79 217.009 1115.76 216.967C1115.74 216.931 1115.63 216.917 1115.52 216.945L1115.3 216.981V216.587C1115.3 216.369 1115.28 216.193 1115.23 216.193C1115.2 216.193 1115.16 216.277 1115.16 216.376Z" fill="white"/>
<path d="M1065.77 217.079C1065.41 217.452 1065.38 218.12 1065.71 218.514C1066.03 218.907 1066.57 218.851 1066.76 218.401C1066.9 218.056 1066.83 218.014 1066.67 218.352C1066.39 218.921 1065.8 218.661 1065.8 217.979C1065.8 217.817 1065.82 217.81 1066.33 217.81H1066.85V217.613C1066.85 217.417 1066.7 217.142 1066.5 216.988C1066.31 216.833 1065.97 216.882 1065.77 217.079ZM1066.38 217.086C1066.44 217.156 1066.5 217.325 1066.52 217.459L1066.54 217.705L1066.17 217.726C1065.76 217.747 1065.75 217.733 1065.87 217.325C1065.97 216.959 1066.18 216.868 1066.38 217.086Z" fill="white"/>
<path d="M1067.64 217.009C1067.17 217.339 1067.15 218.274 1067.61 218.612C1067.89 218.816 1068.24 218.795 1068.44 218.556C1068.53 218.45 1068.61 218.296 1068.6 218.211C1068.6 218.064 1068.6 218.064 1068.53 218.232C1068.36 218.661 1067.95 218.802 1067.74 218.5C1067.61 218.324 1067.59 217.508 1067.69 217.227C1067.77 217.002 1068.01 216.924 1068.23 217.044C1068.43 217.149 1068.44 217.22 1068.29 217.367C1068.19 217.466 1068.19 217.487 1068.29 217.585C1068.37 217.677 1068.41 217.677 1068.5 217.599C1068.66 217.473 1068.64 217.269 1068.44 217.072C1068.24 216.868 1067.88 216.84 1067.64 217.009Z" fill="white"/>
<path d="M1070.33 216.981C1070.31 217.009 1070.36 217.037 1070.43 217.037C1070.57 217.037 1070.58 217.079 1070.58 217.81C1070.58 218.549 1070.57 218.591 1070.43 218.654C1070.3 218.703 1070.36 218.718 1070.67 218.718C1070.93 218.725 1071.07 218.696 1071.04 218.654C1071.01 218.612 1070.96 218.605 1070.92 218.626C1070.87 218.661 1070.85 218.471 1070.86 218.049C1070.9 216.981 1070.9 216.988 1070.61 216.952C1070.48 216.938 1070.35 216.952 1070.33 216.981Z" fill="white"/>
<path d="M1071.09 217.058C1071 217.149 1070.93 217.269 1070.93 217.325C1070.93 217.381 1070.99 217.339 1071.06 217.227C1071.17 217.037 1071.4 216.917 1071.47 216.995C1071.5 217.016 1071.46 217.1 1071.4 217.17C1071.26 217.318 1071.3 217.459 1071.45 217.459C1071.64 217.459 1071.73 217.262 1071.65 217.072C1071.54 216.847 1071.29 216.84 1071.09 217.058Z" fill="white"/>
<path d="M1072.02 216.967C1071.9 217.016 1071.9 217.03 1072.01 217.03C1072.11 217.037 1072.13 217.121 1072.13 217.838C1072.13 218.549 1072.11 218.647 1072.01 218.675C1071.94 218.696 1072.07 218.71 1072.3 218.71C1072.63 218.718 1072.69 218.703 1072.56 218.654C1072.41 218.591 1072.4 218.556 1072.42 217.824C1072.43 216.882 1072.39 216.805 1072.02 216.967Z" fill="white"/>
<path d="M1074.68 217.023C1074.44 217.206 1074.29 217.642 1074.34 217.993C1074.46 218.781 1075.34 219.062 1075.62 218.401C1075.76 218.057 1075.69 218.014 1075.53 218.352C1075.43 218.563 1075.36 218.626 1075.18 218.64C1075.05 218.654 1074.91 218.619 1074.85 218.549C1074.73 218.429 1074.62 217.972 1074.69 217.902C1074.71 217.881 1074.93 217.853 1075.17 217.839C1075.41 217.831 1075.63 217.817 1075.66 217.817C1075.74 217.81 1075.72 217.473 1075.64 217.297C1075.52 217.058 1075.28 216.896 1075.05 216.896C1074.93 216.896 1074.76 216.952 1074.68 217.023ZM1075.25 217.121C1075.31 217.213 1075.37 217.388 1075.4 217.508L1075.45 217.74H1074.64L1074.68 217.487C1074.73 217.213 1074.91 216.967 1075.05 216.967C1075.11 216.967 1075.19 217.037 1075.25 217.121Z" fill="white"/>
<path d="M1082.07 216.974C1082.06 217.002 1082.1 217.037 1082.17 217.051C1082.27 217.079 1082.29 217.17 1082.27 217.867C1082.25 218.528 1082.23 218.647 1082.13 218.675C1082.06 218.696 1082.2 218.71 1082.43 218.71C1082.77 218.717 1082.82 218.703 1082.68 218.647C1082.52 218.584 1082.51 218.556 1082.56 218.134C1082.61 217.613 1082.78 217.128 1082.96 217.037C1083.13 216.945 1083.17 216.945 1083.17 217.072C1083.17 217.128 1083.14 217.177 1083.1 217.177C1083.06 217.177 1083.03 217.241 1083.03 217.325C1083.03 217.431 1083.06 217.466 1083.19 217.445C1083.31 217.431 1083.35 217.367 1083.36 217.192C1083.38 217.037 1083.35 216.952 1083.28 216.924C1083.09 216.854 1082.82 216.959 1082.73 217.142C1082.65 217.311 1082.52 217.318 1082.54 217.156C1082.55 217.107 1082.55 217.037 1082.54 217.002C1082.54 216.924 1082.12 216.896 1082.07 216.974Z" fill="white"/>
<path d="M1083.97 217.072C1083.77 217.269 1083.77 217.438 1083.96 217.557C1084.05 217.614 1084.1 217.606 1084.17 217.543C1084.24 217.466 1084.23 217.431 1084.12 217.353C1083.96 217.227 1084.02 217.058 1084.26 216.995C1084.5 216.931 1084.72 217.128 1084.72 217.424C1084.72 217.635 1084.69 217.656 1084.31 217.761C1083.86 217.881 1083.77 217.958 1083.7 218.239C1083.64 218.457 1083.82 218.696 1084.09 218.76C1084.22 218.795 1084.33 218.76 1084.48 218.626C1084.68 218.457 1084.69 218.457 1084.77 218.591C1084.82 218.675 1084.93 218.725 1085.06 218.725C1085.27 218.725 1085.35 218.619 1085.34 218.352C1085.33 218.211 1085.33 218.211 1085.28 218.373C1085.26 218.471 1085.18 218.556 1085.12 218.57C1085.01 218.591 1085 218.521 1085 217.916C1085 217.29 1084.98 217.227 1084.82 217.072C1084.59 216.833 1084.21 216.833 1083.97 217.072ZM1084.72 217.986C1084.72 218.155 1084.65 218.296 1084.52 218.45C1084.34 218.647 1084.3 218.661 1084.17 218.591C1084.06 218.535 1084.01 218.443 1084.01 218.317C1084.01 218.049 1084.14 217.902 1084.43 217.824C1084.57 217.782 1084.69 217.747 1084.7 217.747C1084.71 217.74 1084.72 217.853 1084.72 217.986Z" fill="white"/>
<path d="M1085.69 216.981C1085.62 217.023 1085.63 217.037 1085.72 217.037C1085.83 217.037 1085.84 217.121 1085.84 217.839C1085.84 218.549 1085.83 218.647 1085.72 218.675C1085.65 218.696 1085.78 218.71 1086.02 218.71C1086.29 218.71 1086.39 218.696 1086.3 218.661C1086.17 218.612 1086.16 218.521 1086.12 217.775C1086.09 216.981 1086.08 216.945 1085.93 216.931C1085.85 216.924 1085.73 216.945 1085.69 216.981Z" fill="white"/>
<path d="M1086.68 216.981C1086.68 217.009 1086.73 217.037 1086.79 217.037C1086.9 217.037 1086.91 217.093 1086.89 217.979C1086.89 218.415 1086.86 218.563 1086.77 218.633C1086.67 218.703 1086.71 218.718 1087.07 218.725C1087.48 218.725 1087.49 218.725 1087.32 218.605C1087.17 218.5 1087.16 218.464 1087.2 217.965C1087.25 217.41 1087.35 217.17 1087.61 217.03C1087.87 216.896 1087.98 217.1 1088.01 217.74C1088.04 218.401 1087.99 218.633 1087.82 218.675C1087.76 218.696 1087.89 218.71 1088.13 218.71C1088.36 218.71 1088.5 218.696 1088.43 218.675C1088.34 218.654 1088.32 218.521 1088.29 217.916C1088.27 217.325 1088.24 217.163 1088.13 217.044C1087.95 216.84 1087.63 216.854 1087.42 217.072C1087.32 217.163 1087.24 217.227 1087.24 217.213C1087.23 217.192 1087.23 217.135 1087.22 217.093C1087.21 216.995 1086.68 216.882 1086.68 216.981Z" fill="white"/>
<path d="M1092.84 217.135C1092.46 217.536 1092.47 218.19 1092.85 218.542C1093.26 218.921 1093.77 218.802 1094 218.267C1094.2 217.831 1094.14 217.445 1093.82 217.128C1093.49 216.798 1093.15 216.805 1092.84 217.135ZM1093.55 217.072C1093.82 217.262 1093.86 218.296 1093.6 218.549C1093.44 218.703 1093.17 218.675 1093.05 218.492C1092.74 218 1092.92 216.967 1093.33 216.967C1093.37 216.967 1093.47 217.016 1093.55 217.072Z" fill="white"/>
<path d="M1094.52 216.974C1094.5 217.009 1094.53 217.037 1094.59 217.037C1094.69 217.037 1094.7 217.156 1094.7 217.81C1094.7 218.464 1094.68 218.584 1094.58 218.647C1094.48 218.703 1094.56 218.717 1094.88 218.717C1095.2 218.717 1095.26 218.703 1095.14 218.654C1095 218.598 1094.98 218.542 1094.98 218.148C1094.98 217.585 1095.09 217.213 1095.28 217.072C1095.47 216.938 1095.51 216.938 1095.64 217.079C1095.73 217.163 1095.76 217.346 1095.76 217.888C1095.76 218.549 1095.75 218.591 1095.6 218.654C1095.48 218.696 1095.55 218.717 1095.9 218.717C1096.28 218.717 1096.32 218.703 1096.2 218.64C1096.05 218.57 1096.04 218.514 1096.04 217.993C1096.04 217.459 1096.05 217.402 1096.24 217.177C1096.42 216.974 1096.47 216.945 1096.58 217.009C1096.68 217.079 1096.7 217.199 1096.73 217.867C1096.74 218.563 1096.73 218.647 1096.62 218.675C1096.55 218.696 1096.68 218.71 1096.92 218.71C1097.15 218.71 1097.29 218.696 1097.23 218.675C1097.05 218.605 1097.02 218.499 1097.02 217.824C1097.02 217.269 1097 217.156 1096.88 217.037C1096.68 216.833 1096.41 216.861 1096.17 217.114C1096.04 217.248 1095.97 217.29 1095.97 217.234C1095.97 217.072 1095.73 216.896 1095.52 216.896C1095.4 216.896 1095.27 216.967 1095.17 217.079L1095.02 217.262L1094.98 217.1C1094.94 216.938 1094.6 216.84 1094.52 216.974Z" fill="white"/>
<path d="M1097.61 216.981C1097.59 217.009 1097.64 217.037 1097.72 217.037C1097.86 217.037 1097.86 217.072 1097.86 218.253C1097.86 219.449 1097.86 219.477 1097.71 219.554C1097.58 219.618 1097.63 219.632 1098.01 219.632C1098.35 219.632 1098.42 219.611 1098.31 219.568C1098.16 219.512 1098.15 219.456 1098.15 219.048V218.598L1098.36 218.703C1099.16 219.097 1099.66 217.564 1098.92 216.988C1098.76 216.854 1098.44 216.882 1098.29 217.037C1098.17 217.149 1098.15 217.156 1098.15 217.072C1098.15 216.959 1098.14 216.952 1097.84 216.938C1097.73 216.931 1097.63 216.952 1097.61 216.981ZM1098.78 217.107C1098.89 217.22 1098.92 217.339 1098.92 217.768C1098.92 218.436 1098.84 218.654 1098.6 218.654C1098.28 218.654 1098.15 218.429 1098.15 217.888C1098.15 217.466 1098.17 217.367 1098.33 217.185C1098.54 216.931 1098.59 216.917 1098.78 217.107Z" fill="white"/>
<path d="M1099.91 217.065C1099.71 217.276 1099.75 217.599 1099.97 217.599C1100.16 217.599 1100.23 217.452 1100.09 217.353C1099.93 217.241 1099.95 217.128 1100.12 217.037C1100.27 216.952 1100.54 217.009 1100.62 217.135C1100.65 217.177 1100.68 217.318 1100.68 217.438C1100.68 217.677 1100.69 217.67 1100.14 217.782C1099.87 217.831 1099.67 218.056 1099.67 218.303C1099.67 218.732 1100.16 218.914 1100.48 218.598C1100.62 218.464 1100.62 218.464 1100.79 218.633C1100.95 218.795 1100.98 218.802 1101.12 218.703C1101.21 218.647 1101.28 218.521 1101.29 218.401C1101.3 218.204 1101.3 218.204 1101.25 218.373C1101.22 218.471 1101.14 218.556 1101.08 218.57C1100.97 218.591 1100.96 218.521 1100.96 217.916C1100.96 217.29 1100.94 217.227 1100.78 217.072C1100.55 216.833 1100.13 216.833 1099.91 217.065ZM1100.68 217.993C1100.68 218.331 1100.33 218.703 1100.12 218.584C1099.95 218.499 1099.93 218.183 1100.07 218.007C1100.11 217.944 1100.26 217.86 1100.4 217.824C1100.53 217.782 1100.65 217.747 1100.66 217.747C1100.67 217.74 1100.68 217.853 1100.68 217.993Z" fill="white"/>
<path d="M1101.62 216.974C1101.61 217.002 1101.65 217.037 1101.72 217.051C1101.82 217.079 1101.84 217.17 1101.82 217.867C1101.8 218.528 1101.77 218.647 1101.68 218.675C1101.61 218.696 1101.75 218.71 1101.98 218.71C1102.21 218.71 1102.35 218.696 1102.3 218.675C1102.13 218.612 1102.08 218.5 1102.08 218.162C1102.09 217.452 1102.38 216.896 1102.7 216.995C1102.88 217.051 1102.91 217.156 1102.92 217.881C1102.93 218.493 1102.9 218.605 1102.72 218.675C1102.66 218.696 1102.8 218.71 1103.03 218.71C1103.27 218.71 1103.41 218.696 1103.34 218.675C1103.24 218.654 1103.22 218.521 1103.2 217.916C1103.17 217.325 1103.15 217.163 1103.04 217.044C1102.86 216.84 1102.56 216.861 1102.3 217.086C1102.16 217.199 1102.08 217.234 1102.08 217.17C1102.09 217.114 1102.1 217.037 1102.09 217.002C1102.08 216.924 1101.67 216.903 1101.62 216.974Z" fill="white"/>
<path d="M1103.74 216.974C1103.6 217.023 1103.6 217.03 1103.75 217.03C1103.91 217.037 1103.98 217.17 1104.36 218.359C1104.55 218.936 1104.56 218.936 1104.43 219.203C1104.29 219.484 1104 219.625 1104.08 219.371C1104.11 219.287 1104.08 219.203 1104.01 219.139C1103.91 219.062 1103.88 219.062 1103.81 219.168C1103.61 219.435 1103.86 219.702 1104.23 219.611C1104.45 219.554 1104.51 219.442 1104.86 218.303C1105.21 217.206 1105.28 217.037 1105.44 217.037C1105.5 217.037 1105.53 217.016 1105.51 216.988C1105.48 216.967 1105.33 216.945 1105.18 216.945C1105.02 216.945 1104.88 216.967 1104.85 216.988C1104.83 217.016 1104.85 217.037 1104.92 217.037C1105 217.037 1105.04 217.093 1105.04 217.185C1105.04 217.417 1104.74 218.387 1104.69 218.324C1104.62 218.253 1104.26 217.22 1104.26 217.114C1104.26 217.072 1104.33 217.037 1104.42 217.037C1104.5 217.037 1104.55 217.016 1104.52 216.981C1104.45 216.91 1103.91 216.903 1103.74 216.974Z" fill="white"/>
<path d="M1109.68 216.974C1109.57 217.002 1109.55 217.023 1109.63 217.03C1109.73 217.037 1109.75 217.121 1109.75 217.81C1109.75 218.464 1109.73 218.584 1109.63 218.647C1109.53 218.703 1109.61 218.717 1109.92 218.717C1110.25 218.717 1110.31 218.703 1110.19 218.654C1110.04 218.591 1110.03 218.556 1110.03 217.782C1110.03 216.924 1110.01 216.875 1109.68 216.974Z" fill="white"/>
<path d="M1110.62 216.974C1110.61 217.002 1110.65 217.037 1110.72 217.051C1110.82 217.079 1110.84 217.17 1110.82 217.867C1110.8 218.528 1110.78 218.647 1110.68 218.675C1110.61 218.696 1110.75 218.71 1110.98 218.71C1111.21 218.71 1111.35 218.696 1111.3 218.675C1111.13 218.612 1111.09 218.5 1111.09 218.162C1111.09 217.698 1111.19 217.325 1111.37 217.135C1111.56 216.938 1111.6 216.931 1111.75 217.079C1111.84 217.163 1111.86 217.346 1111.86 217.916C1111.86 218.549 1111.84 218.647 1111.74 218.675C1111.67 218.696 1111.8 218.71 1112.03 218.71C1112.35 218.718 1112.41 218.703 1112.3 218.654C1112.15 218.598 1112.14 218.542 1112.14 218.092C1112.14 217.529 1112.27 217.156 1112.5 217.03C1112.64 216.96 1112.67 216.967 1112.79 217.107C1112.89 217.234 1112.91 217.388 1112.91 217.923C1112.91 218.549 1112.91 218.591 1112.76 218.654C1112.64 218.703 1112.7 218.718 1113.02 218.71C1113.25 218.71 1113.39 218.696 1113.32 218.675C1113.23 218.654 1113.2 218.528 1113.18 217.916C1113.17 217.325 1113.14 217.163 1113.03 217.044C1112.84 216.833 1112.53 216.854 1112.3 217.086C1112.18 217.22 1112.11 217.255 1112.09 217.192C1111.97 216.861 1111.58 216.805 1111.28 217.086L1111.09 217.276V217.1C1111.09 216.96 1111.05 216.931 1110.87 216.931C1110.75 216.931 1110.64 216.952 1110.62 216.974Z" fill="white"/>
<path d="M1113.79 216.974C1113.67 217.023 1113.67 217.03 1113.81 217.03C1113.96 217.037 1113.97 217.058 1113.97 217.81C1113.97 218.549 1113.96 218.591 1113.81 218.654C1113.69 218.703 1113.75 218.718 1114.07 218.718C1114.42 218.725 1114.47 218.71 1114.37 218.633C1114.28 218.563 1114.25 218.401 1114.24 217.747C1114.21 216.988 1114.21 216.945 1114.07 216.931C1113.99 216.924 1113.86 216.945 1113.79 216.974Z" fill="white"/>
<path d="M1116.46 217.135C1116.22 217.374 1116.18 217.529 1116.21 217.986C1116.25 218.429 1116.6 218.795 1116.99 218.795C1117.2 218.795 1117.55 218.422 1117.55 218.218C1117.54 218.057 1117.54 218.057 1117.46 218.239C1117.32 218.542 1117.2 218.654 1116.98 218.654C1116.75 218.654 1116.58 218.443 1116.56 218.092L1116.53 217.846L1117.06 217.839C1117.35 217.839 1117.59 217.803 1117.59 217.768C1117.57 216.988 1116.95 216.643 1116.46 217.135ZM1117.09 217.1C1117.15 217.17 1117.23 217.346 1117.25 217.487L1117.29 217.747L1116.91 217.726C1116.54 217.705 1116.53 217.705 1116.56 217.494C1116.58 217.241 1116.75 216.967 1116.88 216.967C1116.93 216.967 1117.03 217.023 1117.09 217.1Z" fill="white"/>
<path d="M1053.08 218.436C1053.02 218.542 1053.03 218.598 1053.11 218.682C1053.3 218.872 1053.52 218.767 1053.48 218.506C1053.45 218.289 1053.18 218.239 1053.08 218.436Z" fill="white"/>
<path d="M1056.97 218.457C1056.92 218.598 1057.07 218.795 1057.23 218.795C1057.33 218.795 1057.44 218.584 1057.4 218.443C1057.33 218.246 1057.04 218.253 1056.97 218.457Z" fill="white"/>
</g>
<g id="Vector_3">
<path d="M1265 210L1289.22 234H1405V186H1289.22L1265 210ZM1308.74 198.435C1310.49 199.003 1312.13 199.954 1313.05 200.927C1315.67 203.742 1315.95 208.481 1313.7 211.863C1311.95 214.516 1309.08 215.711 1304.02 215.914L1301.18 216.035V222.051H1295.25V197.909L1301.44 197.99C1306.61 198.071 1307.8 198.132 1308.74 198.435ZM1326.42 204.329C1328.75 207.833 1330.69 210.709 1330.71 210.709C1330.73 210.709 1332.67 207.833 1335.02 204.329L1339.29 197.949L1341.54 198.01L1343.79 198.051V221.949L1337.76 222.071L1337.72 216.096L1337.66 210.122L1335.02 214.152L1332.4 218.203H1329.07L1323.76 210.061L1323.7 216.056L1323.66 222.051H1317.73V197.949H1322.19L1326.42 204.329ZM1361.57 198.435C1366.74 199.894 1369.93 203.276 1370.66 208.157C1371.58 214.253 1368.03 219.661 1361.88 221.463C1360.49 221.868 1359.79 221.909 1354.17 221.99L1347.98 222.091V197.909L1354.17 197.99C1359.18 198.071 1360.57 198.152 1361.57 198.435ZM1386.01 198.233C1388.28 198.638 1390.02 199.529 1391.37 200.987C1393.02 202.749 1393.45 203.924 1393.45 206.881C1393.45 209.17 1393.43 209.23 1392.68 210.749C1391.47 213.18 1389.49 214.699 1386.5 215.468C1385.83 215.63 1384.01 215.833 1382.48 215.914L1379.66 216.035V222.071L1373.63 221.949L1373.57 209.939L1373.53 197.949H1378.98C1382.68 197.97 1384.97 198.051 1386.01 198.233Z" fill="white"/>
<path d="M1301.22 206.901L1301.28 210.608L1303.1 210.668C1306.31 210.77 1307.96 210.142 1308.74 208.562C1309.19 207.651 1309.27 206.071 1308.92 205.382C1308.08 203.762 1306.67 203.215 1303.38 203.215H1301.18L1301.22 206.901Z" fill="white"/>
<path d="M1354.11 216.582H1356.42C1359.87 216.582 1361.59 215.954 1363.18 214.132C1364.21 212.937 1364.84 210.891 1364.66 209.352C1364.47 207.711 1363.82 206.395 1362.67 205.342C1361.02 203.803 1360.2 203.539 1356.93 203.458L1354.11 203.377V216.582Z" fill="white"/>
<path d="M1379.66 210.77L1382.17 210.668C1385.52 210.527 1386.67 209.98 1387.34 208.137C1387.95 206.395 1387.38 204.775 1385.83 203.863C1384.95 203.357 1384.66 203.316 1382.27 203.235L1379.66 203.175V210.77Z" fill="white"/>
</g>
<g id="Group">
<path id="Vector_4" d="M530 209.625V238.249L547.448 238.161C562.739 238.095 565.137 238.051 566.963 237.699C572.64 236.687 576.314 234.927 579.042 231.935C581.309 229.471 582.365 226.5 582.365 222.562C582.365 218.36 581.265 215.323 578.69 212.463C577.612 211.275 574.994 209.537 573.3 208.921L571.98 208.459L572.706 208.063C574.224 207.271 576.094 205.51 577.216 203.86C578.778 201.506 579.329 199.768 579.439 196.644C579.637 192.133 578.668 189.581 575.676 186.633C573.542 184.521 572.068 183.618 569.208 182.65C564.807 181.176 564.675 181.154 546.458 181.066L530 181V209.625ZM560.209 191.341C562.013 191.737 563.817 192.683 564.741 193.695C566.281 195.346 566.699 198.074 565.731 200.34C565.027 202.078 562.849 203.552 560.209 204.146C559.637 204.278 555.566 204.432 551.188 204.498L543.201 204.608V197.744V190.879L551.188 190.989C555.654 191.055 559.615 191.209 560.209 191.341ZM560.561 214.245C563.223 214.487 564.653 214.905 566.215 215.895C568.173 217.15 568.988 218.712 568.988 221.308C568.988 224.564 567.403 226.588 564.125 227.579C562.233 228.129 559.043 228.327 551.078 228.327H543.201V221.176V214.025H550.748C554.884 214.047 559.307 214.135 560.561 214.245Z" fill="#0F0F0F"/>
<path id="Vector_5" d="M576.556 181.506C579.702 183.839 581.881 187.117 582.585 190.527L582.827 191.803H589.603H596.38L596.512 194.818C596.71 199.746 597.832 202.474 600.846 205.466C602.122 206.743 602.98 207.359 604.389 208.063C607.359 209.537 608.129 209.625 617.964 209.625H626.589V210.659C626.589 212.485 625.775 215.763 624.872 217.634C623.09 221.33 620.78 223.662 617.282 225.334C613.277 227.248 611.341 227.446 596.666 227.446H585.995L585.621 228.987C584.895 232.045 582.805 235.191 580.186 237.149L578.734 238.249L596.116 238.161C614.62 238.073 614.355 238.073 618.8 236.929C630.285 233.981 638.162 225.334 639.68 214.025C642.056 196.556 631.011 183.112 612.749 181.264C611.363 181.11 603.751 181.022 593.212 181.022H575.918L576.556 181.506Z" fill="#0F0F0F"/>
</g>
</g>
<g id="Group 20">
<rect id="Rectangle 7_2" x="35" y="610" width="100" height="100" rx="50" fill="#1E1E1E"/>
<g id="Rectangle 9_2" filter="url(#filter4_d_221_54)">
<rect x="485" y="560" width="200" height="200" rx="100" fill="#FF0000"/>
</g>
<g id="Rectangle 10_2" filter="url(#filter5_d_221_54)">
<rect x="735" y="560" width="200" height="200" rx="100" fill="#5E26C0"/>
</g>
<g id="Rectangle 11_2" opacity="0.8" filter="url(#filter6_d_221_54)">
<rect x="985" y="560" width="200" height="200" rx="100" fill="#820E0E"/>
</g>
<g id="Rectangle 12_2" filter="url(#filter7_d_221_54)">
<rect x="1235" y="560" width="200" height="200" rx="100" fill="#0071B7"/>
</g>
<rect id="Rectangle 13_2" x="1510" y="585" width="150" height="150" rx="75" fill="#1E1E1E"/>
<rect id="Rectangle 14_2" x="1785" y="610" width="100" height="100" rx="50" fill="#1E1E1E"/>
<g id="Vector_6">
<path fill-rule="evenodd" clip-rule="evenodd" d="M812.645 651.22C812.645 649.647 813.921 648.371 815.494 648.371C817.068 648.371 818.343 649.647 818.343 651.22V653.799C818.343 655.643 819.838 657.138 821.682 657.138C823.212 657.138 824.502 656.07 825.198 654.707C827.121 650.946 831.034 648.371 835.548 648.371C841.963 648.371 847.164 653.572 847.164 659.987C847.164 666.402 841.963 671.603 835.548 671.603C831.034 671.603 827.121 669.028 825.198 665.266C824.502 663.904 823.212 662.836 821.682 662.836C819.838 662.836 818.343 664.331 818.343 666.175V668.754C818.343 670.327 817.068 671.603 815.494 671.603C813.921 671.603 812.645 670.327 812.645 668.754L812.645 662.836V657.138L812.645 651.22ZM835.548 667.042C831.651 667.042 828.493 663.883 828.493 659.987C828.493 656.09 831.651 652.932 835.548 652.932C839.444 652.932 842.603 656.09 842.603 659.987C842.603 663.883 839.444 667.042 835.548 667.042Z" fill="white"/>
<path d="M812.645 648.371L815.494 648.371V671.603H812.645V648.371Z" fill="white"/>
<path d="M854.612 650.835C854.074 649.357 852.439 648.594 850.96 649.132C849.482 649.671 848.719 651.306 849.257 652.784L851.216 658.166C851.643 659.339 851.643 660.625 851.216 661.799L849.234 667.244C848.696 668.723 849.458 670.358 850.937 670.896C852.416 671.434 854.051 670.672 854.589 669.193L856.902 662.836L857.392 661.491C857.451 661.328 857.579 661.2 857.741 661.141C858.045 661.031 858.201 660.696 858.091 660.393L858.028 660.221C857.972 660.067 857.972 659.898 858.028 659.743L858.081 659.599C858.184 659.316 858.038 659.003 857.755 658.9C857.603 658.845 857.484 658.726 857.429 658.574L856.906 657.138L854.612 650.835Z" fill="white"/>
<path fill-rule="evenodd" clip-rule="evenodd" d="M877.957 651.001C877.957 649.427 879.233 648.152 880.806 648.152L883.655 648.152L889.025 648.152H891.874C893.448 648.152 894.723 649.427 894.723 651.001V660.502C894.723 660.762 894.934 660.973 895.195 660.973C895.721 660.973 896.148 661.4 896.148 661.926V670.324C896.148 671.151 895.477 671.822 894.65 671.822H891.948C891.12 671.822 890.449 671.151 890.449 670.324V668.169C890.449 667.342 889.779 666.671 888.951 666.671H883.619C882.792 666.671 882.121 667.342 882.121 668.169V670.105C882.121 670.932 881.45 671.603 880.623 671.603H877.921C877.093 671.603 876.423 670.932 876.423 670.105V661.926C876.423 661.4 876.85 660.973 877.376 660.973C877.697 660.973 877.957 660.713 877.957 660.392V651.001ZM883.655 659.475C883.655 660.302 884.326 660.973 885.153 660.973H887.527C888.354 660.973 889.025 660.302 889.025 659.475V656.535C889.025 655.052 887.823 653.85 886.34 653.85C884.857 653.85 883.655 655.052 883.655 656.535V659.475Z" fill="white"/>
<path d="M785.256 663.501C781.797 662.435 781.797 657.539 785.256 656.473L811.549 648.371V671.603L785.256 663.501Z" fill="white"/>
<path d="M869.738 661.474V658.5C869.738 657.747 869.128 657.138 868.376 657.138H866.627L866.361 657.868C866.23 658.229 865.947 658.512 865.587 658.643C864.914 658.888 864.567 659.632 864.812 660.305L865.733 662.836H868.376C869.128 662.836 869.738 662.226 869.738 661.474Z" fill="white"/>
<path d="M862.787 648.371H859.813C859.061 648.371 858.451 648.981 858.451 649.733V655.776C858.451 656.528 857.841 657.138 857.089 657.138H856.906L857.429 658.574C857.484 658.726 857.603 658.845 857.755 658.9C858.038 659.003 858.184 659.316 858.081 659.599L858.028 659.743C857.972 659.898 857.972 660.067 858.028 660.221L858.091 660.393C858.201 660.696 858.045 661.031 857.741 661.141C857.579 661.2 857.451 661.328 857.392 661.491L856.902 662.836H857.089C857.841 662.836 858.451 663.446 858.451 664.198V670.241C858.451 670.993 859.061 671.603 859.813 671.603H862.787C863.54 671.603 864.149 670.993 864.149 670.241V664.198C864.149 663.446 864.759 662.836 865.511 662.836H865.733L864.812 660.305C864.567 659.632 864.914 658.888 865.587 658.643C865.947 658.512 866.23 658.229 866.361 657.868L866.627 657.138H865.511C864.759 657.138 864.149 656.528 864.149 655.776V649.733C864.149 648.981 863.54 648.371 862.787 648.371Z" fill="white"/>
<path d="M869.738 658.5V661.474C869.738 662.226 869.128 662.836 868.376 662.836H865.733L868.047 669.193C868.585 670.672 870.22 671.434 871.699 670.896C873.177 670.358 873.94 668.723 873.402 667.244L871.868 663.032C871.441 661.858 871.441 660.572 871.868 659.399L874.278 652.778C874.816 651.299 874.054 649.664 872.575 649.126C871.097 648.588 869.462 649.35 868.923 650.829L866.627 657.138H868.376C869.128 657.138 869.738 657.747 869.738 658.5Z" fill="white"/>
</g>
<path id="Vector_7" d="M1114.97 703.978L1087.63 642.44C1086.42 639.708 1082.58 639.708 1081.37 642.44L1054.16 703.678L1053.74 704H1045.22L1084.5 615.614L1123.78 704H1115L1114.97 703.978ZM1082 682.23L1057.49 701.115L1083.2 643.252C1083.71 642.103 1085.29 642.103 1085.8 643.252L1111.63 701.381L1087 682.241C1085.52 681.097 1083.48 681.092 1082 682.23Z" stroke="white" stroke-width="2"/>
<g id="Vector_8">
<path d="M1329.58 617.258C1318.2 617.932 1306.56 620.887 1297.35 625.451C1295.92 626.155 1294.54 626.859 1294.28 627.012C1294.04 627.166 1293.14 627.686 1292.29 628.191C1287.58 630.963 1284.27 633.643 1279.91 638.236C1276.34 641.973 1273.37 647.102 1271.88 652.079C1271.02 654.958 1270.87 656.152 1270.86 660.118C1270.86 663.471 1270.89 664.053 1271.21 665.554C1271.67 667.743 1272.8 671.173 1273.58 672.827C1274.24 674.159 1275.96 677.283 1276.12 677.421C1276.17 677.467 1276.43 677.804 1276.67 678.187C1278.88 681.494 1283.18 685.797 1287.39 688.89C1290.33 691.064 1294.85 693.683 1298.36 695.275C1299.57 695.827 1300.7 696.332 1300.87 696.408C1301.04 696.485 1301.56 696.699 1302.02 696.883C1312.66 701.017 1324.51 703.039 1336.39 702.778C1344.86 702.579 1351.29 701.676 1359.13 699.563C1365.49 697.863 1373.63 694.357 1378.49 691.248C1384.6 687.328 1388.35 683.944 1392.56 678.569C1395.21 675.185 1397.73 669.612 1398.55 665.309C1399.47 660.547 1399.22 655.494 1397.86 651.16C1397.34 649.476 1396.36 646.965 1395.84 646.015C1394.43 643.412 1393.95 642.662 1392.53 640.748C1390.68 638.282 1386.71 634.194 1384.38 632.356C1381 629.692 1375.79 626.492 1372.07 624.792C1364.8 621.454 1358.78 619.662 1350.25 618.254C1343.99 617.228 1336.36 616.86 1329.58 617.258ZM1343.21 621.898C1349.03 622.602 1354.89 623.981 1359.44 625.711C1369.97 629.753 1377.63 635.557 1382.81 643.427C1384.96 646.72 1386.19 649.598 1387.06 653.457C1388.38 659.276 1387.69 665.845 1385.13 671.679C1384.18 673.853 1382.3 676.931 1380.77 678.799C1379.64 680.208 1376.93 683.163 1376.11 683.852C1375.59 684.312 1374.9 684.909 1374.61 685.169C1374.31 685.429 1373.39 686.134 1372.56 686.746C1365.61 691.876 1356.85 695.551 1347.51 697.251C1338.49 698.889 1328.63 698.736 1319.78 696.852C1310.97 694.954 1302.68 691.202 1296.24 686.195C1293.78 684.281 1290.18 680.591 1288.22 677.957C1286.6 675.783 1284.73 672.138 1283.8 669.336C1281.61 662.798 1281.79 656.213 1284.3 649.675C1285.8 645.831 1287.65 642.8 1290.56 639.492C1292.57 637.21 1295.6 634.408 1297.5 633.076C1297.76 632.908 1298.31 632.525 1298.72 632.234C1306.53 626.798 1316.85 623.077 1327.28 621.929C1328.51 621.791 1329.72 621.653 1329.96 621.622C1331.2 621.454 1341.26 621.668 1343.21 621.898Z" fill="white"/>
<path d="M1331.19 631.193C1330.27 631.269 1328.51 631.514 1327.28 631.729C1320.27 632.954 1314.44 635.296 1308.37 639.308C1306.46 640.564 1305.85 641.13 1305.85 641.636C1305.85 641.988 1307.88 644.76 1308.66 645.449C1309.09 645.847 1309.87 645.801 1310.39 645.357C1311.04 644.821 1311.53 644.729 1311.97 645.081C1312.4 645.433 1312.35 644.346 1312.6 662.308C1312.74 673.042 1312.74 675.522 1312.58 675.828C1312.32 676.288 1311.65 676.318 1311.1 675.89C1310.29 675.247 1309.95 675.43 1308.39 677.329C1306.56 679.549 1306.5 679.718 1307.16 680.376C1307.67 680.882 1310.62 682.643 1312.72 683.699C1325.78 690.222 1342.04 690.59 1354.16 684.618C1361.25 681.127 1364.94 676.364 1364.95 670.714C1364.95 667.238 1363.8 664.314 1361.35 661.664C1360.01 660.194 1357.72 658.801 1355.69 658.219C1355.18 658.066 1354.68 657.928 1354.58 657.882C1354.17 657.76 1354.42 657.423 1355.3 656.856C1358.83 654.575 1361 649.874 1360.51 645.556C1359.96 640.794 1357.02 637.21 1351.4 634.47C1348.31 632.969 1345.32 632.066 1341.32 631.468C1338.95 631.116 1333.76 630.963 1331.19 631.193ZM1337.62 637.976C1343.64 640.028 1345.5 647.837 1341.06 652.324C1338.75 654.651 1337.08 655.126 1331.31 655.034L1328.05 654.988L1327.57 654.498L1327.08 654.008L1326.95 650.67C1326.87 648.833 1326.84 645.495 1326.85 643.244C1326.9 639.186 1326.9 639.155 1327.27 638.772C1328.09 637.9 1330.41 637.455 1333.79 637.517C1336.15 637.563 1336.5 637.593 1337.62 637.976ZM1340.45 661.925C1347.37 663.977 1350.3 671.908 1346.29 677.804C1345.32 679.228 1343.57 680.621 1341.95 681.264C1340.07 681.999 1338.55 682.229 1335.24 682.229C1330.42 682.244 1328.29 681.678 1327.73 680.238C1327.54 679.748 1327.31 672.674 1327.3 666.641C1327.28 663.089 1327.3 662.951 1327.62 662.476C1327.82 662.2 1328.11 661.925 1328.28 661.864C1328.69 661.695 1334.31 661.527 1337.16 661.588C1338.87 661.619 1339.7 661.695 1340.45 661.925Z" fill="white"/>
</g>
<g id="Vector_9">
<path fill-rule="evenodd" clip-rule="evenodd" d="M633.059 635.821C628.588 633.419 623.517 632.218 617.845 632.218H552.255C546.516 632.218 541.411 633.419 536.94 635.821C532.536 638.157 529.033 641.427 526.43 645.631C523.894 649.768 522.626 654.539 522.626 659.944C522.626 665.283 523.894 670.054 526.43 674.258C529.033 678.395 532.536 681.665 536.94 684.067C541.411 686.47 546.516 687.671 552.255 687.671H617.845C623.517 687.671 628.588 686.47 633.059 684.067C637.53 681.665 641.033 678.395 643.57 674.258C646.105 670.054 647.374 665.283 647.374 659.944C647.374 654.472 646.105 649.668 643.57 645.531C641.033 641.393 637.53 638.157 633.059 635.821ZM552.255 674.859C549.652 674.859 547.317 674.258 545.248 673.057C543.179 671.856 541.511 670.154 540.243 667.952C539.042 665.683 538.442 663.014 538.442 659.944C538.442 656.808 539.042 654.139 540.243 651.937C541.511 649.735 543.179 648.033 545.248 646.832C547.317 645.631 549.652 645.03 552.255 645.03H617.845C620.447 645.03 622.783 645.631 624.852 646.832C626.92 648.033 628.555 649.735 629.756 651.937C630.957 654.139 631.558 656.808 631.558 659.944C631.558 663.014 630.957 665.683 629.756 667.952C628.555 670.154 626.92 671.856 624.852 673.057C622.783 674.258 620.447 674.859 617.845 674.859H552.255Z" fill="white"/>
</g>
</g>
<g id="Group 19">
<g id="Rectangle 8_2" filter="url(#filter8_d_221_54)">
<rect x="135" y="360" width="150" height="150" rx="75" fill="#EA3030"/>
</g>
<path id="path1268" d="M165 440.6H188.906L212.812 429.401H165V421.001H212.812L181.875 407H202.969L231.094 421.001H255V429.401H231.094L207.188 440.6H255V449H207.188L238.125 463H217.031L188.906 449H165V440.6Z" fill="white"/>
<rect id="Rectangle 15" x="-90" y="385" width="100" height="100" rx="50" fill="#1E1E1E"/>
<g id="Rectangle 8_3" filter="url(#filter9_d_221_54)">
<rect x="360" y="335" width="200" height="200" rx="100" fill="#020FFF"/>
</g>
<g id="Rectangle 9_3" filter="url(#filter10_d_221_54)">
<rect x="610" y="335" width="200" height="200" rx="100" fill="#09CBCB"/>
</g>
<g id="Rectangle 10_3" filter="url(#filter11_d_221_54)">
<rect x="860" y="335" width="200" height="200" rx="100" fill="#AD00FF"/>
</g>
<g id="Rectangle 11_3" filter="url(#filter12_d_221_54)">
<rect x="1110" y="335" width="200" height="200" rx="100" fill="#69D87D"/>
</g>
<g id="Rectangle 12_3" filter="url(#filter13_d_221_54)">
<rect x="1360" y="335" width="200" height="200" rx="100" fill="#4998E2"/>
</g>
<g id="Group 67">
<g id="Rectangle 8_4" filter="url(#filter14_d_221_54)">
<rect x="1635" y="360" width="150" height="150" rx="75" fill="#38B6FF"/>
</g>
<path id="AW" d="M1663.49 452L1678.32 418.4H1687.68L1702.56 452H1692.68L1681.06 423.056H1684.8L1673.19 452H1663.49ZM1671.6 445.472L1674.05 438.464H1690.47L1692.92 445.472H1671.6ZM1711.69 452L1700.79 418.4H1710.58L1719.75 447.488H1714.81L1724.46 418.4H1733.19L1742.31 447.488H1737.56L1747.02 418.4H1756.09L1745.19 452H1735.02L1727.24 427.28H1729.98L1721.86 452H1711.69Z" fill="white"/>
</g>
<rect id="Rectangle 14_3" x="1910" y="385" width="100" height="100" rx="50" fill="#1E1E1E"/>
<g id="Vector_10">
<path d="M1189.66 419.69C1191.13 418.371 1193.47 419.178 1193.82 421.119L1199.14 451.344C1199.48 453.227 1197.66 454.774 1195.85 454.151L1167.71 444.465C1165.9 443.843 1165.42 441.508 1166.84 440.229L1189.66 419.69Z" fill="white"/>
<path d="M1224.72 413.086C1225.36 411.032 1228.13 410.692 1229.25 412.529L1253.48 452.103C1254.43 453.66 1253.46 455.68 1251.64 455.902L1213.49 460.584C1211.68 460.806 1210.24 459.082 1210.79 457.341L1224.72 413.086Z" fill="white"/>
<path d="M1185.26 380.991C1184.13 379.24 1185.51 376.954 1187.58 377.13L1227.08 380.487C1228.93 380.644 1229.98 382.687 1229.02 384.279L1211.03 414.196C1210.07 415.787 1207.78 415.825 1206.77 414.265L1185.26 380.991Z" fill="white"/>
<path d="M1177.91 488.004C1176.75 488.004 1175.82 487.067 1175.82 485.91V473.582C1175.82 472.003 1177.1 470.722 1178.68 470.722H1185.95C1186.89 470.722 1187.65 471.482 1187.65 472.418C1187.65 473.355 1186.89 474.114 1185.95 474.114H1181.78C1180.8 474.114 1180.01 474.908 1180.01 475.887C1180.01 476.865 1180.8 477.659 1181.78 477.659H1185.19C1186.13 477.659 1186.9 478.42 1186.9 479.359C1186.9 480.298 1186.13 481.059 1185.19 481.059H1182.87C1181.29 481.059 1180.01 482.34 1180.01 483.919V485.91C1180.01 487.067 1179.07 488.004 1177.91 488.004Z" fill="white"/>
<path d="M1191.83 488.004C1190.68 488.004 1189.76 487.078 1189.76 485.935V477.112C1189.76 475.969 1190.68 475.043 1191.83 475.043C1192.97 475.043 1193.9 475.969 1193.9 477.112V485.935C1193.9 487.078 1192.97 488.004 1191.83 488.004ZM1191.83 473.532C1191.25 473.532 1190.75 473.341 1190.33 472.958C1189.92 472.57 1189.71 472.103 1189.71 471.558C1189.71 471.018 1189.92 470.556 1190.33 470.174C1190.75 469.786 1191.25 469.591 1191.83 469.591C1192.42 469.591 1192.92 469.786 1193.33 470.174C1193.75 470.556 1193.96 471.018 1193.96 471.558C1193.96 472.103 1193.75 472.57 1193.33 472.958C1192.92 473.341 1192.42 473.532 1191.83 473.532Z" fill="white"/>
<path d="M1206.32 475.043C1207.7 475.043 1208.67 476.402 1208.22 477.707L1205.34 486.075C1204.95 487.229 1203.86 488.004 1202.64 488.004H1201.98C1200.76 488.004 1199.67 487.229 1199.28 486.073L1196.4 477.706C1195.96 476.401 1196.93 475.043 1198.31 475.043C1199.21 475.043 1200.01 475.654 1200.25 476.532L1202.22 483.905C1202.24 483.944 1202.27 483.971 1202.31 483.971C1202.35 483.971 1202.39 483.944 1202.4 483.905L1204.38 476.53C1204.62 475.653 1205.41 475.043 1206.32 475.043Z" fill="white"/>
<path d="M1216.38 488.249C1215.02 488.249 1213.85 487.982 1212.86 487.447C1211.88 486.907 1211.13 486.139 1210.6 485.144C1210.07 484.142 1209.81 482.952 1209.81 481.574C1209.81 480.235 1210.07 479.065 1210.6 478.064C1211.13 477.057 1211.88 476.275 1212.85 475.718C1213.81 475.155 1214.95 474.874 1216.26 474.874C1217.18 474.874 1218.03 475.017 1218.8 475.304C1219.56 475.591 1220.23 476.016 1220.78 476.579C1221.34 477.141 1221.78 477.836 1222.09 478.663C1222.4 479.484 1222.55 480.426 1222.55 481.49C1222.55 482.058 1222.09 482.519 1221.52 482.519H1212.45C1211.79 482.519 1211.26 481.983 1211.26 481.321C1211.26 480.659 1211.79 480.123 1212.45 480.123H1217.47C1218.15 480.123 1218.73 479.531 1218.39 478.95C1218.19 478.607 1217.91 478.339 1217.55 478.148C1217.2 477.951 1216.8 477.853 1216.34 477.853C1215.88 477.853 1215.46 477.957 1215.1 478.165C1214.73 478.367 1214.44 478.646 1214.23 479C1214.01 479.349 1213.9 479.746 1213.89 480.19V482.629C1213.89 483.158 1213.99 483.622 1214.2 484.021C1214.41 484.415 1214.71 484.722 1215.09 484.941C1215.47 485.16 1215.93 485.27 1216.46 485.27C1216.83 485.27 1217.16 485.22 1217.46 485.118C1217.76 485.017 1218.01 484.868 1218.23 484.671C1218.62 484.315 1219.06 483.956 1219.59 483.971L1220.15 483.987C1221.39 484.023 1222.33 485.216 1221.55 486.18C1221.52 486.212 1221.5 486.243 1221.47 486.274C1220.94 486.899 1220.24 487.385 1219.38 487.734C1218.52 488.077 1217.52 488.249 1216.38 488.249Z" fill="white"/>
<path d="M1224.67 473.582C1224.67 472.003 1225.95 470.722 1227.53 470.722H1227.94C1229.1 470.722 1230.14 471.422 1230.58 472.494L1234.22 481.328C1234.24 481.385 1234.3 481.422 1234.36 481.422C1234.42 481.422 1234.47 481.385 1234.5 481.328L1238.13 472.494C1238.57 471.422 1239.62 470.722 1240.78 470.722H1241.19C1242.77 470.722 1244.05 472.003 1244.05 473.582V485.965C1244.05 487.091 1243.13 488.004 1242.01 488.004C1240.88 488.004 1239.97 487.091 1239.97 485.965V477.474C1239.97 477.427 1239.93 477.389 1239.88 477.389C1239.85 477.389 1239.82 477.41 1239.8 477.443L1236.14 486.684C1235.85 487.415 1235.14 487.895 1234.36 487.895C1233.57 487.895 1232.86 487.413 1232.58 486.681L1228.91 477.384C1228.9 477.351 1228.87 477.33 1228.83 477.33C1228.78 477.33 1228.75 477.368 1228.75 477.415V485.965C1228.75 487.091 1227.83 488.004 1226.71 488.004C1225.58 488.004 1224.67 487.091 1224.67 485.965V473.582Z" fill="white"/>
</g>
<g id="Vector_11">
<path fill-rule="evenodd" clip-rule="evenodd" d="M912.911 396.868C911.464 396.868 910.292 398.032 910.292 399.468V470.532C910.292 471.968 911.464 473.132 912.911 473.132H976.65C977.743 473.132 978.721 472.458 979.103 471.442L985.066 455.589H992.8V444.774H993.511L1000.52 455.589H1009.71L1001.75 444.398C1004.28 443.771 1006.2 442.501 1007.53 440.589C1008.89 438.646 1009.57 436.451 1009.57 434.006C1009.57 431.06 1008.6 428.521 1006.68 426.389C1004.75 424.258 1001.99 423.192 998.389 423.192H997.252L1005.83 400.378C1006.47 398.678 1005.21 396.868 1003.38 396.868H912.911ZM994.67 430.057L997.252 423.192H984.891V455.589H985.066L992.8 435.027V438.003H998.01C999.21 438.003 1000.09 437.611 1000.66 436.828C1001.26 436.044 1001.56 435.104 1001.56 434.006C1001.56 432.909 1001.26 431.985 1000.66 431.232C1000.09 430.449 999.21 430.057 998.01 430.057H994.67ZM994.67 430.057L992.8 435.027V430.057H994.67ZM929.954 458.457L929.244 465.51C931.012 466.106 932.764 466.403 934.501 466.403C938.258 466.403 941.021 465.369 942.789 463.3C944.589 461.231 945.488 458.551 945.488 455.26V423.192H937.485V455.26C937.485 456.388 937.232 457.297 936.727 457.987C936.253 458.676 935.511 459.021 934.501 459.021C932.543 459.021 931.028 458.833 929.954 458.457ZM977.61 423.192H969.701V440.636L959.945 423.192H952.793V455.589H960.703V437.909L970.696 455.589H977.61V423.192Z" fill="white"/>
<path fill-rule="evenodd" clip-rule="evenodd" d="M912.911 396.868C911.464 396.868 910.292 398.032 910.292 399.468V470.532C910.292 471.968 911.464 473.132 912.911 473.132H976.65C977.743 473.132 978.721 472.458 979.103 471.442L985.066 455.589H992.8V444.774H993.511L1000.52 455.589H1009.71L1001.75 444.398C1004.28 443.771 1006.2 442.501 1007.53 440.589C1008.89 438.646 1009.57 436.451 1009.57 434.006C1009.57 431.06 1008.6 428.521 1006.68 426.389C1004.75 424.258 1001.99 423.192 998.389 423.192H997.252L1005.83 400.378C1006.47 398.678 1005.21 396.868 1003.38 396.868H912.911ZM994.67 430.057L997.252 423.192H984.891V455.589H985.066L992.8 435.027V438.003H998.01C999.21 438.003 1000.09 437.611 1000.66 436.828C1001.26 436.044 1001.56 435.104 1001.56 434.006C1001.56 432.909 1001.26 431.985 1000.66 431.232C1000.09 430.449 999.21 430.057 998.01 430.057H994.67ZM994.67 430.057L992.8 435.027V430.057H994.67ZM929.954 458.457L929.244 465.51C931.012 466.106 932.764 466.403 934.501 466.403C938.258 466.403 941.021 465.369 942.789 463.3C944.589 461.231 945.488 458.551 945.488 455.26V423.192H937.485V455.26C937.485 456.388 937.232 457.297 936.727 457.987C936.253 458.676 935.511 459.021 934.501 459.021C932.543 459.021 931.028 458.833 929.954 458.457ZM977.61 423.192H969.701V440.636L959.945 423.192H952.793V455.589H960.703V437.909L970.696 455.589H977.61V423.192Z" fill="white"/>
</g>
<g id="Vector_12">
<path d="M421.203 413.524V453.282C421.203 455.012 419.801 456.415 418.071 456.415H410.837V417.882C410.837 415.475 412.788 413.524 415.195 413.524H421.203Z" fill="white"/>
<path d="M509.078 413.524V456.415H500.282L483.214 431.66H482.942V447.912V457.001H472.575V447.912V413.524H481.497L498.377 438.236H498.733V413.524H509.078Z" fill="white"/>
<path d="M466.643 429.064H456.172C456.032 427.988 455.746 427.018 455.313 426.152C454.881 425.287 454.308 424.547 453.596 423.933C452.884 423.318 452.039 422.851 451.062 422.529C450.099 422.194 449.031 422.027 447.858 422.027C445.778 422.027 443.983 422.536 442.476 423.556C440.982 424.575 439.83 426.048 439.02 427.975C438.224 429.901 437.826 432.233 437.826 434.969C437.826 437.818 438.231 440.205 439.041 442.132C439.865 444.044 441.017 445.489 442.496 446.467C443.99 447.43 446.018 447.912 448.056 447.912L447.846 457.001C443.965 457.001 440.228 456.149 437.156 454.446C434.099 452.729 431.683 450.229 429.91 446.948C428.137 443.667 427.25 439.674 427.25 434.969C427.25 430.25 428.151 426.25 429.952 422.969C431.753 419.688 434.189 417.196 437.261 415.493C440.332 413.789 443.774 412.938 447.586 412.938C450.182 412.938 452.584 413.301 454.79 414.027C456.996 414.739 458.936 415.786 460.612 417.168C462.287 418.536 463.648 420.219 464.696 422.215C465.743 424.212 466.392 426.495 466.643 429.064Z" fill="white"/>
<path d="M482.942 457.001H472.575V447.912H448.056L447.846 457.001H482.942Z" fill="white"/>
</g>
<g id="Vector_13">
<path d="M698.793 469.455C702.902 473.565 707.961 476.597 713.522 478.284C719.083 479.971 724.975 480.26 730.674 479.126C736.374 477.993 741.706 475.471 746.198 471.784C750.69 468.098 754.204 463.36 756.428 457.991C758.652 452.622 759.517 446.787 758.948 441.004C758.378 435.221 756.391 429.667 753.162 424.835C749.934 420.003 745.563 416.042 740.438 413.303C735.313 410.563 729.592 409.13 723.78 409.13V418.732C728.012 418.732 732.179 419.776 735.912 421.771C739.644 423.766 742.827 426.651 745.179 430.17C747.53 433.689 748.977 437.733 749.392 441.945C749.807 446.157 749.176 450.406 747.557 454.316C745.937 458.226 743.378 461.677 740.107 464.362C736.835 467.047 732.952 468.883 728.801 469.709C724.65 470.535 720.36 470.324 716.31 469.095C712.26 467.867 708.575 465.658 705.582 462.666L698.793 469.455Z" fill="white"/>
<path d="M660.973 409.13H723.914V418.731H660.973V409.13Z" fill="white"/>
<path d="M687.643 476.872V413.931H697.244V476.872H687.643Z" fill="white"/>
<path d="M730.581 396.995C730.581 400.751 727.536 403.796 723.78 403.796C720.024 403.796 716.979 400.751 716.979 396.995C716.979 393.239 720.024 390.195 723.78 390.195C727.536 390.195 730.581 393.239 730.581 396.995Z" fill="white"/>
</g>
<rect id="Rectangle 13_3" x="260" y="584.5" width="150" height="150" rx="75" fill="#1E1E1E"/>
<g id="Vector_14">
<path d="M1404.98 405.175H1460V413.563H1404.98V405.175Z" fill="white"/>
<path d="M1452.76 464.825C1452.13 464.825 1451.57 464.469 1451.31 463.914L1427.88 413.563H1436.78L1460.64 464.825H1452.76Z" fill="white"/>
<path d="M1460 405.175H1515.02V413.563H1460V405.175Z" fill="white"/>
<path d="M1483.85 413.563L1460.64 464.825H1468.51C1469.13 464.825 1469.71 464.462 1469.96 463.9L1492.76 413.563H1483.85Z" fill="white"/>
</g>
</g>
</g>
</g>
<defs>
<filter id="filter0_d_221_54" x="405" y="30" width="360" height="360" filterUnits="userSpaceOnUse" color-interpolation-filters="sRGB">
<feFlood flood-opacity="0" result="BackgroundImageFix"/>
<feColorMatrix in="SourceAlpha" type="matrix" values="0 0 0 0 0 0 0 0 0 0 0 0 0 0 0 0 0 0 127 0" result="hardAlpha"/>
<feOffset/>
<feGaussianBlur stdDeviation="40"/>
<feComposite in2="hardAlpha" operator="out"/>
<feColorMatrix type="matrix" values="0 0 0 0 1 0 0 0 0 1 0 0 0 0 1 0 0 0 0.25 0"/>
<feBlend mode="normal" in2="BackgroundImageFix" result="effect1_dropShadow_221_54"/>
<feBlend mode="normal" in="SourceGraphic" in2="effect1_dropShadow_221_54" result="shape"/>
</filter>
<filter id="filter1_d_221_54" x="655" y="30" width="360" height="360" filterUnits="userSpaceOnUse" color-interpolation-filters="sRGB">
<feFlood flood-opacity="0" result="BackgroundImageFix"/>
<feColorMatrix in="SourceAlpha" type="matrix" values="0 0 0 0 0 0 0 0 0 0 0 0 0 0 0 0 0 0 127 0" result="hardAlpha"/>
<feOffset/>
<feGaussianBlur stdDeviation="40"/>
<feComposite in2="hardAlpha" operator="out"/>
<feColorMatrix type="matrix" values="0 0 0 0 0.388235 0 0 0 0 0.929412 0 0 0 0 0.596078 0 0 0 0.25 0"/>
<feBlend mode="normal" in2="BackgroundImageFix" result="effect1_dropShadow_221_54"/>
<feBlend mode="normal" in="SourceGraphic" in2="effect1_dropShadow_221_54" result="shape"/>
</filter>
<filter id="filter2_d_221_54" x="905" y="30" width="360" height="360" filterUnits="userSpaceOnUse" color-interpolation-filters="sRGB">
<feFlood flood-opacity="0" result="BackgroundImageFix"/>
<feColorMatrix in="SourceAlpha" type="matrix" values="0 0 0 0 0 0 0 0 0 0 0 0 0 0 0 0 0 0 127 0" result="hardAlpha"/>
<feOffset/>
<feGaussianBlur stdDeviation="40"/>
<feComposite in2="hardAlpha" operator="out"/>
<feColorMatrix type="matrix" values="0 0 0 0 0.917647 0 0 0 0 0.333333 0 0 0 0 0.333333 0 0 0 0.25 0"/>
<feBlend mode="normal" in2="BackgroundImageFix" result="effect1_dropShadow_221_54"/>
<feBlend mode="normal" in="SourceGraphic" in2="effect1_dropShadow_221_54" result="shape"/>
</filter>
<filter id="filter3_d_221_54" x="1155" y="30" width="360" height="360" filterUnits="userSpaceOnUse" color-interpolation-filters="sRGB">
<feFlood flood-opacity="0" result="BackgroundImageFix"/>
<feColorMatrix in="SourceAlpha" type="matrix" values="0 0 0 0 0 0 0 0 0 0 0 0 0 0 0 0 0 0 127 0" result="hardAlpha"/>
<feOffset/>
<feGaussianBlur stdDeviation="40"/>
<feComposite in2="hardAlpha" operator="out"/>
<feColorMatrix type="matrix" values="0 0 0 0 0 0 0 0 0 0.196078 0 0 0 0 0.313726 0 0 0 0.25 0"/>
<feBlend mode="normal" in2="BackgroundImageFix" result="effect1_dropShadow_221_54"/>
<feBlend mode="normal" in="SourceGraphic" in2="effect1_dropShadow_221_54" result="shape"/>
</filter>
<filter id="filter4_d_221_54" x="405" y="480" width="360" height="360" filterUnits="userSpaceOnUse" color-interpolation-filters="sRGB">
<feFlood flood-opacity="0" result="BackgroundImageFix"/>
<feColorMatrix in="SourceAlpha" type="matrix" values="0 0 0 0 0 0 0 0 0 0 0 0 0 0 0 0 0 0 127 0" result="hardAlpha"/>
<feOffset/>
<feGaussianBlur stdDeviation="40"/>
<feComposite in2="hardAlpha" operator="out"/>
<feColorMatrix type="matrix" values="0 0 0 0 1 0 0 0 0 0 0 0 0 0 0 0 0 0 0.25 0"/>
<feBlend mode="normal" in2="BackgroundImageFix" result="effect1_dropShadow_221_54"/>
<feBlend mode="normal" in="SourceGraphic" in2="effect1_dropShadow_221_54" result="shape"/>
</filter>
<filter id="filter5_d_221_54" x="655" y="480" width="360" height="360" filterUnits="userSpaceOnUse" color-interpolation-filters="sRGB">
<feFlood flood-opacity="0" result="BackgroundImageFix"/>
<feColorMatrix in="SourceAlpha" type="matrix" values="0 0 0 0 0 0 0 0 0 0 0 0 0 0 0 0 0 0 127 0" result="hardAlpha"/>
<feOffset/>
<feGaussianBlur stdDeviation="40"/>
<feComposite in2="hardAlpha" operator="out"/>
<feColorMatrix type="matrix" values="0 0 0 0 0.370065 0 0 0 0 0.147691 0 0 0 0 0.754167 0 0 0 0.25 0"/>
<feBlend mode="normal" in2="BackgroundImageFix" result="effect1_dropShadow_221_54"/>
<feBlend mode="normal" in="SourceGraphic" in2="effect1_dropShadow_221_54" result="shape"/>
</filter>
<filter id="filter6_d_221_54" x="905" y="480" width="360" height="360" filterUnits="userSpaceOnUse" color-interpolation-filters="sRGB">
<feFlood flood-opacity="0" result="BackgroundImageFix"/>
<feColorMatrix in="SourceAlpha" type="matrix" values="0 0 0 0 0 0 0 0 0 0 0 0 0 0 0 0 0 0 127 0" result="hardAlpha"/>
<feOffset/>
<feGaussianBlur stdDeviation="40"/>
<feComposite in2="hardAlpha" operator="out"/>
<feColorMatrix type="matrix" values="0 0 0 0 1 0 0 0 0 0 0 0 0 0 0 0 0 0 0.25 0"/>
<feBlend mode="normal" in2="BackgroundImageFix" result="effect1_dropShadow_221_54"/>
<feBlend mode="normal" in="SourceGraphic" in2="effect1_dropShadow_221_54" result="shape"/>
</filter>
<filter id="filter7_d_221_54" x="1155" y="480" width="360" height="360" filterUnits="userSpaceOnUse" color-interpolation-filters="sRGB">
<feFlood flood-opacity="0" result="BackgroundImageFix"/>
<feColorMatrix in="SourceAlpha" type="matrix" values="0 0 0 0 0 0 0 0 0 0 0 0 0 0 0 0 0 0 127 0" result="hardAlpha"/>
<feOffset/>
<feGaussianBlur stdDeviation="40"/>
<feComposite in2="hardAlpha" operator="out"/>
<feColorMatrix type="matrix" values="0 0 0 0 0 0 0 0 0 0.443137 0 0 0 0 0.717647 0 0 0 0.25 0"/>
<feBlend mode="normal" in2="BackgroundImageFix" result="effect1_dropShadow_221_54"/>
<feBlend mode="normal" in="SourceGraphic" in2="effect1_dropShadow_221_54" result="shape"/>
</filter>
<filter id="filter8_d_221_54" x="55" y="280" width="310" height="310" filterUnits="userSpaceOnUse" color-interpolation-filters="sRGB">
<feFlood flood-opacity="0" result="BackgroundImageFix"/>
<feColorMatrix in="SourceAlpha" type="matrix" values="0 0 0 0 0 0 0 0 0 0 0 0 0 0 0 0 0 0 127 0" result="hardAlpha"/>
<feOffset/>
<feGaussianBlur stdDeviation="40"/>
<feComposite in2="hardAlpha" operator="out"/>
<feColorMatrix type="matrix" values="0 0 0 0 0.917647 0 0 0 0 0.188235 0 0 0 0 0.188235 0 0 0 0.25 0"/>
<feBlend mode="normal" in2="BackgroundImageFix" result="effect1_dropShadow_221_54"/>
<feBlend mode="normal" in="SourceGraphic" in2="effect1_dropShadow_221_54" result="shape"/>
</filter>
<filter id="filter9_d_221_54" x="280" y="255" width="360" height="360" filterUnits="userSpaceOnUse" color-interpolation-filters="sRGB">
<feFlood flood-opacity="0" result="BackgroundImageFix"/>
<feColorMatrix in="SourceAlpha" type="matrix" values="0 0 0 0 0 0 0 0 0 0 0 0 0 0 0 0 0 0 127 0" result="hardAlpha"/>
<feOffset/>
<feGaussianBlur stdDeviation="40"/>
<feComposite in2="hardAlpha" operator="out"/>
<feColorMatrix type="matrix" values="0 0 0 0 0.00784314 0 0 0 0 0.0588235 0 0 0 0 1 0 0 0 0.25 0"/>
<feBlend mode="normal" in2="BackgroundImageFix" result="effect1_dropShadow_221_54"/>
<feBlend mode="normal" in="SourceGraphic" in2="effect1_dropShadow_221_54" result="shape"/>
</filter>
<filter id="filter10_d_221_54" x="530" y="255" width="360" height="360" filterUnits="userSpaceOnUse" color-interpolation-filters="sRGB">
<feFlood flood-opacity="0" result="BackgroundImageFix"/>
<feColorMatrix in="SourceAlpha" type="matrix" values="0 0 0 0 0 0 0 0 0 0 0 0 0 0 0 0 0 0 127 0" result="hardAlpha"/>
<feOffset/>
<feGaussianBlur stdDeviation="40"/>
<feComposite in2="hardAlpha" operator="out"/>
<feColorMatrix type="matrix" values="0 0 0 0 0.0352941 0 0 0 0 0.796078 0 0 0 0 0.796078 0 0 0 0.25 0"/>
<feBlend mode="normal" in2="BackgroundImageFix" result="effect1_dropShadow_221_54"/>
<feBlend mode="normal" in="SourceGraphic" in2="effect1_dropShadow_221_54" result="shape"/>
</filter>
<filter id="filter11_d_221_54" x="780" y="255" width="360" height="360" filterUnits="userSpaceOnUse" color-interpolation-filters="sRGB">
<feFlood flood-opacity="0" result="BackgroundImageFix"/>
<feColorMatrix in="SourceAlpha" type="matrix" values="0 0 0 0 0 0 0 0 0 0 0 0 0 0 0 0 0 0 127 0" result="hardAlpha"/>
<feOffset/>
<feGaussianBlur stdDeviation="40"/>
<feComposite in2="hardAlpha" operator="out"/>
<feColorMatrix type="matrix" values="0 0 0 0 0.678431 0 0 0 0 0 0 0 0 0 1 0 0 0 0.25 0"/>
<feBlend mode="normal" in2="BackgroundImageFix" result="effect1_dropShadow_221_54"/>
<feBlend mode="normal" in="SourceGraphic" in2="effect1_dropShadow_221_54" result="shape"/>
</filter>
<filter id="filter12_d_221_54" x="1030" y="255" width="360" height="360" filterUnits="userSpaceOnUse" color-interpolation-filters="sRGB">
<feFlood flood-opacity="0" result="BackgroundImageFix"/>
<feColorMatrix in="SourceAlpha" type="matrix" values="0 0 0 0 0 0 0 0 0 0 0 0 0 0 0 0 0 0 127 0" result="hardAlpha"/>
<feOffset/>
<feGaussianBlur stdDeviation="40"/>
<feComposite in2="hardAlpha" operator="out"/>
<feColorMatrix type="matrix" values="0 0 0 0 0.411765 0 0 0 0 0.847059 0 0 0 0 0.490196 0 0 0 0.25 0"/>
<feBlend mode="normal" in2="BackgroundImageFix" result="effect1_dropShadow_221_54"/>
<feBlend mode="normal" in="SourceGraphic" in2="effect1_dropShadow_221_54" result="shape"/>
</filter>
<filter id="filter13_d_221_54" x="1280" y="255" width="360" height="360" filterUnits="userSpaceOnUse" color-interpolation-filters="sRGB">
<feFlood flood-opacity="0" result="BackgroundImageFix"/>
<feColorMatrix in="SourceAlpha" type="matrix" values="0 0 0 0 0 0 0 0 0 0 0 0 0 0 0 0 0 0 127 0" result="hardAlpha"/>
<feOffset/>
<feGaussianBlur stdDeviation="40"/>
<feComposite in2="hardAlpha" operator="out"/>
<feColorMatrix type="matrix" values="0 0 0 0 0.286275 0 0 0 0 0.596078 0 0 0 0 0.886275 0 0 0 0.25 0"/>
<feBlend mode="normal" in2="BackgroundImageFix" result="effect1_dropShadow_221_54"/>
<feBlend mode="normal" in="SourceGraphic" in2="effect1_dropShadow_221_54" result="shape"/>
</filter>
<filter id="filter14_d_221_54" x="1555" y="280" width="310" height="310" filterUnits="userSpaceOnUse" color-interpolation-filters="sRGB">
<feFlood flood-opacity="0" result="BackgroundImageFix"/>
<feColorMatrix in="SourceAlpha" type="matrix" values="0 0 0 0 0 0 0 0 0 0 0 0 0 0 0 0 0 0 127 0" result="hardAlpha"/>
<feOffset/>
<feGaussianBlur stdDeviation="40"/>
<feComposite in2="hardAlpha" operator="out"/>
<feColorMatrix type="matrix" values="0 0 0 0 0.219608 0 0 0 0 0.713726 0 0 0 0 1 0 0 0 0.25 0"/>
<feBlend mode="normal" in2="BackgroundImageFix" result="effect1_dropShadow_221_54"/>
<feBlend mode="normal" in="SourceGraphic" in2="effect1_dropShadow_221_54" result="shape"/>
</filter>
<clipPath id="clip0_221_54">
<rect width="1920" height="870" fill="white"/>
</clipPath>
</defs>
</svg>
